<?xml version="1.0" encoding="utf-8"?>
<!-- Generator: Adobe Illustrator 23.0.1, SVG Export Plug-In . SVG Version: 6.00 Build 0)  -->
<svg version="1.1" id="Слой_1" xmlns="http://www.w3.org/2000/svg" xmlns:xlink="http://www.w3.org/1999/xlink" x="0px" y="0px"
	 viewBox="0 0 137.4 97" style="enable-background:new 0 0 137.4 97;" xml:space="preserve">
<style type="text/css">
	
		.st0{fill-rule:evenodd;clip-rule:evenodd;fill:#FFFFFF;stroke:#000000;stroke-width:0.75;stroke-linecap:round;stroke-linejoin:round;stroke-miterlimit:10;}
	.st1{fill-rule:evenodd;clip-rule:evenodd;fill:#FF0000;}
	.st2{fill:#FFFFFF;stroke:#000000;stroke-linecap:round;stroke-linejoin:round;stroke-miterlimit:10;}
	.st3{fill:none;stroke:#000000;stroke-linecap:round;stroke-linejoin:round;stroke-miterlimit:10;}
	.st4{fill:#F5F5F3;stroke:#000000;stroke-linecap:round;stroke-linejoin:round;stroke-miterlimit:10;}
	.st5{fill:none;stroke:#000000;stroke-width:0.75;stroke-linecap:round;stroke-linejoin:round;stroke-miterlimit:10;}
	.st6{fill:#1A1A1A;}
	.st7{fill:#E8545F;}
	.st8{fill:#C91836;}
	.st9{fill:#F1F2F2;}
	.st10{fill:#FFFFFF;}
	
		.st11{fill-rule:evenodd;clip-rule:evenodd;fill:#FF0000;stroke:#FF0000;stroke-width:0.75;stroke-linecap:round;stroke-linejoin:round;stroke-miterlimit:10;}
	.st12{fill:#FFFFFF;stroke:#1A1A1A;stroke-linecap:round;stroke-linejoin:round;stroke-miterlimit:10;}
</style>
<g>
	<path class="st0" d="M116.3,60.8c0,0.6-1.1,3.3-1.1,4.6c0.1,2.9,0.9,2.9,1.4,6.9c0.4,2.6,0.5,7.9,0.1,10.8"/>
	<path d="M12.9,13.1c0,0,0-11.9,15.8-13c7.7-0.6,12.8,5.7,19.8,2.4s25.3,0.4,28.6,8.3c2.1,4.9,7.7,4.3,14.9,12.4
		c8.1,9.3,4,31.8-0.4,34.9c-7.4,5.1-18.3,0.7-28.5,7.4s-19.9-5.4-30-0.8S18.5,58.8,8,51.4C-1.3,44.9-5.7,20.7,12.9,13.1z"/>
	<g>
		<path class="st0" d="M52,57.3c0.8,0.4,1.7,0.7,2.5,1c0.8,0.2,2.4,1.2,3.1,1.4c0.7,0.2,1.7,0.9,2.6,0.9c1,0,1.3-1,0.6-1.4
			c-0.6-0.4-1.4-0.6-2-1.1"/>
		<path class="st0" d="M44.5,52.6c1.6,0.3,3.6,0.7,5.3,1c1.7,0.3,3.3,0.4,4.7,0.8c1.4,0.4,3.6,0.4,4.4,0.5c0.8,0.1,2.3-0.1,2.3,0.7
			c0.1,0.8-0.9,1.1-2.2,1"/>
		<path class="st0" d="M50,57.4c0.7-0.2,0.6-0.3,1.6-0.2c1,0.1,2.2,0,3,0.2c0.8,0.2,1.7,0.2,2.6,0.5c0.9,0.3,2.2,0.8,3.3,0.1
			c1-0.8-1.3-1.4-2.4-1.7c-1.1-0.3-3.4-1.5-4.2-1.6c-0.8-0.1-3.5-0.4-5.2-1c-1.7-0.5-5.3-1.4-6.5-1.5c-1.3-0.1-2.8-0.3-4.2-0.1
			c-1.4,0.2-3.3,1.7-4,3.1c-0.4,0.7-7.7,20.1-8.3,21.4l9.3,5c2.1-2.6,1.6-19.8,3.9-23"/>
		<path class="st1" d="M59.4,54.9c0,0.5,1.2,0.4,1.8,0.2C61.7,55,60.8,54.8,59.4,54.9z"/>
		<path class="st1" d="M60.1,58.8c-0.5,0.2,0.5,1.3,1.2,1C61.8,59.5,60.9,58.9,60.1,58.8z"/>
		<path class="st0" d="M38.4,57.7c0.5,1.1,2.8,1.8,4.2,2.1c1.4,0.3,2.2-0.3,3.2-0.4c1-0.1,3.6-0.1,4.4-0.4c0.8-0.4,1-1.5,0.3-2
			c-0.7-0.5-2.7-0.1-3.7,0c-1.1,0.1-1.9-1.3-3.4-1.2"/>
		<path class="st1" d="M49.1,57.8c0,0.7,0.4,0.7,1,0.7c1.2,0,1.1-1.9-0.2-1.5C49.6,57.1,49.1,57.3,49.1,57.8z"/>
		<path class="st1" d="M59.1,56.6c-0.3,0.7,0.8,1,1.7,1C61.9,57.5,60.2,56.8,59.1,56.6z"/>
	</g>
	<g>
		<path class="st2" d="M79.7,56.6v10.2c0.8,3.6,10.4,5.8,10.4,5.8H53.8c8.2-1.4,11.3-5.8,11.3-5.8V54.7L79.7,56.6z"/>
		<path class="st3" d="M109.9,96.1c0-14.3-18.2-23.5-18.2-23.5H74.1H71H51.8c0,0-18.4,6.4-23.1,20.4"/>
	</g>
	<g>
		<path class="st4" d="M85.9,40.9c1.3,1.4,3.3,0.2,4.3-1.9c1-2.1,1.2-6.1-0.7-7c-1.9-0.9-3.2,1.5-3.2,1.5s0,4.1-0.2,5.6L85.9,40.9z"
			/>
		<g>
			<g>
				<path class="st5" d="M86.2,37.2c1.1-3.2,3.4-2.7,3.4-2.7"/>
			</g>
			<path class="st5" d="M87.2,35.6c0,0,2.4,1,1.1,2.9"/>
		</g>
	</g>
	<path class="st2" d="M86.2,30.5c0,0,2.3,27-11.3,29.5c-13.7,2.5-21-25.4-21-25.4s-3-16.8,14.9-19.1C85.5,13.4,86.2,30.5,86.2,30.5z
		"/>
	<path class="st3" d="M69.5,41l0.3,2.5c0,0.2,0.1,0.3,0.2,0.5c0.3,0.6,1,0.8,1.7,0.5l0.7-0.3"/>
	<path d="M74.8,31.4c0.1,0.3,0.3,0.6,0.4,0.9c0.1,0.2,0.2,0.3,0.4,0.2l4-0.6l3.5,0.9c0.2,0,0.3,0,0.4-0.1l0.7-0.7l-3.5-1.1
		c-0.5-0.2-1.1-0.3-1.6-0.3l-4.1,0.3C74.8,30.8,74.6,31.1,74.8,31.4z"/>
	<g>
		<path d="M54.4,42.1c0,0-8.8-21.1,3.7-27.1c17.7-8.4,28.3,8.8,28.9,13.1l-11.2-5.6l-14.1,1.7c0,0-1.7,4.3-4.5,5.5
			C57.3,29.8,53.5,31.9,54.4,42.1z"/>
	</g>
	<path class="st4" d="M74.7,35.1c0,0,3.5-0.9,4.5,0.7"/>
	<g>
		<path class="st6" d="M62.8,35.1c0,0.3,0,0.7,0,1c0,0.2-0.1,0.3-0.3,0.4l-3.9,1.2l-2.8,2.3c-0.1,0.1-0.3,0.1-0.5,0.1l-1-0.4
			l2.7-2.5c0.4-0.4,0.8-0.7,1.3-0.9l3.8-1.5C62.6,34.6,62.8,34.8,62.8,35.1z"/>
		<path class="st4" d="M64.9,38.4c0,0-3.9,0.8-4.2,2.7"/>
	</g>
	<path d="M75.9,20.7c0,0,0,12.1-22.4,12.1S33.9,16.9,47.9,16S75.9,20.7,75.9,20.7z"/>
	<g>
		
			<image style="overflow:visible;opacity:0.2;" width="24" height="23" xlink:href="23812CDDB1DF27FC.png"  transform="matrix(1 0 0 1 63.8889 43.138)">
		</image>
		<g>
			<g>
				<g>
					<g>
						<path class="st7" d="M70.3,52.1C70.3,52,70.3,52,70.3,52.1C70.3,52,70.3,52,70.3,52.1L70.3,52.1z"/>
						<path class="st7" d="M75.8,50.7C75.8,50.7,75.8,50.7,75.8,50.7C75.8,50.7,75.8,50.7,75.8,50.7L75.8,50.7z"/>
						<path class="st8" d="M73,49.7c-0.2,0.2-0.3,0.3-0.3,0.3s-0.2,0-0.4-0.1c-0.3-0.1-0.9-0.1-1.3,0.6c0,0-0.6,1.2-0.7,1.6
							c0.1,0,0.6,0.1,1-0.2c0.5-0.3,0.8-0.2,0.8-0.2s0.2-0.4,0.6-0.4c0,0,0.2,0,0.3,0c0.1,0,0.3-0.1,0.3-0.1
							c0.3-0.2,0.7,0.1,0.7,0.1s0.3-0.2,0.8-0.2c0.5,0,0.9-0.3,1-0.3c-0.3-0.3-1.3-1.1-1.3-1.1C73.8,49.2,73.2,49.5,73,49.7z"/>
					</g>
					<path class="st8" d="M74.8,51c-0.5,0-0.8,0.2-0.8,0.2c-0.8,0.2-0.8,0.6-0.8,0.6s-0.2-0.3-1-0.1c0,0-0.4-0.1-0.8,0.2
						c-0.4,0.2-0.8,0.2-1,0.2l-0.1,0c0,0,1.2,1.7,3.2,1.2c2.1-0.5,2.3-2.6,2.3-2.6l-0.1,0C75.6,50.8,75.2,51.1,74.8,51z"/>
					<path class="st6" d="M73.9,51.2c0,0-0.4-0.3-0.7-0.1c0,0-0.1,0.1-0.3,0.1c-0.1,0-0.3,0-0.3,0c-0.4,0-0.6,0.4-0.6,0.4
						c0.8-0.2,1,0.1,1,0.1S73.2,51.4,73.9,51.2z"/>
				</g>
				<path class="st9" d="M74.8,51c-0.5,0-0.8,0.2-0.8,0.2c-0.8,0.2-0.8,0.6-0.8,0.6s-0.2-0.3-1-0.1c0,0-0.4-0.1-0.8,0.2
					c-0.4,0.2-0.8,0.2-1,0.2l-0.1,0c0,0,1.2,1.7,3.2,1.2c2.1-0.5,2.3-2.6,2.3-2.6l-0.1,0C75.6,50.8,75.2,51.1,74.8,51z"/>
			</g>
		</g>
	</g>
	<path class="st2" d="M36.1,96.5c0-3.9-0.4-6,0.6-12.7C38.4,72.6,24,79.7,24,79.7s-3.5,10.1-3.7,16.8"/>
	<path class="st2" d="M26,72.9c0,0,10.9,4,12.2,3.1c1.3-1-1.4,7.8-1.4,7.8s-12.6-3.1-12.9-5S26,72.9,26,72.9z"/>
	<g>
		<g>
			<path d="M118.9,51.5c0,0.2,0.1,0.3,0.3,0.4l1,0.2c0.2,0,0.3-0.1,0.4-0.2l0.2-1c0-0.2-0.1-0.3-0.2-0.4l-1-0.2
				c-0.2,0-0.3,0.1-0.4,0.3L118.9,51.5z"/>
		</g>
		<g>
			<path d="M118.4,53.2c-0.1,0.2,0,0.3,0.2,0.4l0.9,0.4c0.2,0.1,0.3,0,0.4-0.2l0.4-0.9c0.1-0.2,0-0.3-0.2-0.4l-0.9-0.4
				c-0.2-0.1-0.3,0-0.4,0.2L118.4,53.2z"/>
		</g>
		<g>
			<path d="M117.7,54.9c-0.1,0.2,0,0.3,0.2,0.4l0.9,0.4c0.2,0.1,0.3,0,0.4-0.2l0.4-0.9c0.1-0.2,0-0.3-0.2-0.4l-0.9-0.4
				c-0.2-0.1-0.3,0-0.4,0.2L117.7,54.9z"/>
		</g>
		<g>
			<path d="M131.7,43.2c-1.5,3.5-0.2,6.6,1.1,7.2c0.2,0.1,2.1-1.7,3.6-5.2c1.5-3.5,0.9-6.5,0.2-7.3
				C135.8,36.8,133.2,39.7,131.7,43.2z"/>
		</g>
		<g>
			<path d="M131.5,33.7c2.3,0.7,4.1,2.2,5.2,4.2l-3.8,12.5c-2,1-4.3,1.2-6.6,0.6c-4.8-1.4-7.4-6.5-6-11.2
				C121.7,34.9,126.7,32.3,131.5,33.7z"/>
		</g>
		<g>
			<path d="M103.6,38.2c0,0,17.6,10.5,21,12.1c3.5,1.6,8.5-15.9,8.5-15.9s-4.3-2.5-25-7L103.6,38.2z"/>
		</g>
		<path d="M103.9,31.9c-1.3,3-1.4,5.8-0.2,6.3c1.1,0.5,3.1-1.6,4.3-4.6c1.3-3,1.4-5.8,0.2-6.3C107.1,26.9,105.1,28.9,103.9,31.9z"/>
		<path class="st10" d="M105.6,32.2c-0.9,2-1,3.9-0.3,4.2c0.7,0.3,1.9-1.1,2.8-3.1c0.9-2,1-3.9,0.3-4.2
			C107.7,28.8,106.5,30.2,105.6,32.2z"/>
		<g>
			<path d="M127.3,51.2c0,0-1.5-0.6-2.9,3.5c-1.4,4.1-5.9,14.6-10.2,15.7c0,0-4.5-0.6-4.3-2.5c0.1-1.8,2.1-1.2,1.5-2.6
				c-0.6-1.4,0.1-2,1.4-2c1.3,0,1.2-0.9,0.9-2c-0.3-1,0.9-1.5,1.9-1.4c0.9,0.1,0.7-1,0.2-1.6c-0.5-0.6,0-1.8,1.3-1.8
				c1.3,0,4.4-6.6,1.4-9.6C115.6,43.9,132.8,49.2,127.3,51.2z"/>
		</g>
		<g>
			<path d="M112,72c-0.1,0.2,0,0.4,0.2,0.5l1.1,0.5c0.2,0.1,0.4,0,0.5-0.2l1.5-3.5c0.1-0.2,0-0.4-0.2-0.5l-1.1-0.5
				c-0.2-0.1-0.4,0-0.5,0.2L112,72z"/>
		</g>
	</g>
	<path class="st0" d="M117.9,53.4c-0.6-0.2-1.8-1.4-0.9-2c0.5-0.4,1.1,0.4,2.3,0.6c1.1,0.2,1.3,0.7,2.2,1.4c0.9,0.7,2.2,1.1,2,3.1"
		/>
	<path class="st0" d="M120.9,57.8l-0.2-2.2l-4.7,0.2c-0.8,0.1-1.8-0.5-1.7-1.2c0.1-0.7,1.6-0.7,2.2-1c0.6-0.3,1.7-0.2,2.6-0.1
		c0.9,0.1,2.4,0.6,3,0.7c0.6,0.1,0.9,1.3,1.3,2.2c0.3,0.6,0.6,1.7,0.9,2.7l0.6,1.4c0.4,0.9,0.5,1.7-0.2,3.1"/>
	<path class="st11" d="M116.2,53.7c0,0.6-2.1,1.7-2.3,1C113.7,54,115.4,53.9,116.2,53.7z"/>
	<path class="st11" d="M118.6,51.7c-0.6,0.4-2.4-0.1-2.2-0.6C116.5,50.5,118.1,51.4,118.6,51.7z"/>
	<path class="st0" d="M116.4,57.8c-0.1,0.3-0.2,0.8-0.2,1"/>
	<path class="st0" d="M118.8,57.3c0.1,0.3,0.1,0.5,0.1,0.9"/>
	<path class="st0" d="M119.9,61.6c-0.4,0.4-0.4,0.7-0.9,0.9c-0.5,0.2-0.9,0.6-1.5,0.7"/>
	<path class="st0" d="M118.8,60.7c0.1,0.6,0.1,1.4-0.1,1.9"/>
	<path class="st0" d="M117.2,62.5c0.4-0.2,1-0.2,1.5,0.1"/>
	<path class="st0" d="M120.9,59.3c0-0.2,0.1-0.5,0-0.6c-0.3-0.4-0.6-1.1-0.6-1.3c0-0.2-0.9,0-1.7-0.1c-0.8-0.1-1.1-0.3-1.7,0.2
		c-0.6,0.5-2,0.7-2.4-0.2c-0.4-0.9,1.2-1.3,1.9-1.7c0.6-0.4,1.6-0.8,2.5-0.7c0.8,0.1,2.4,0,3.4,0.5c1,0.4,2.3,3.1,3.2,5
		c1,1.9,0.2,3.5-0.1,4.4c-0.5,1.5-1,3-1.1,3.6c-0.2,0.9-1.8,5.4-0.7,15.9"/>
	<path class="st11" d="M116.3,55.7c0,0.5-2,2-2.4,1.6C113.6,56.8,115.4,56,116.3,55.7z"/>
	<path class="st0" d="M120.1,63.9c0.1-0.5-0.2-0.8,0-1.6c0.1-0.8-0.2-0.8-0.7-1.3c-0.5-0.5-1-0.6-1.3-0.8c-0.4-0.2-0.9-0.3-1.1,0
		c-0.2,0.4-1.4,1.3-2.3,0.8c-0.9-0.5-0.2-1,0.3-1.3c0.6-0.4,1.6-1.3,2.1-1.3c0.5,0,2.2-0.3,2.5-0.1c0.3,0.2,3.9,2.8,4.3,3.4
		c0.4,0.6,0.3,1.5,0.1,2.4"/>
	<path class="st11" d="M115.3,59.5c0.1,0.5-1.1,1.3-1.5,1.1C113.6,60.4,114.4,59.8,115.3,59.5z"/>
	<g>
		<path class="st2" d="M115.2,90.6c0.8-11.3,13.3-1.2,13.3-1.2s0.6,2.9,1.4,6.7"/>
		<path class="st2" d="M128,82.3c0,0-11.5,1.6-12.6,0.4c-1-1.2-0.3,7.9-0.3,7.9s13-0.3,13.6-2.1C129.4,86.8,128,82.3,128,82.3z"/>
	</g>
	<line class="st12" x1="115.4" y1="90.6" x2="114.9" y2="96.1"/>
</g>
</svg>
