<?xml version="1.0" encoding="utf-8"?>
<!-- Generator: Adobe Illustrator 23.0.1, SVG Export Plug-In . SVG Version: 6.00 Build 0)  -->
<svg version="1.1" id="Слой_1" xmlns="http://www.w3.org/2000/svg" xmlns:xlink="http://www.w3.org/1999/xlink" x="0px" y="0px"
	 viewBox="0 0 121.1 127.5" style="enable-background:new 0 0 121.1 127.5;" xml:space="preserve">
<style type="text/css">
	.st0{fill:#FFFFFF;stroke:#000000;stroke-width:1.1298;stroke-linecap:round;stroke-linejoin:round;stroke-miterlimit:10;}
	.st1{fill:none;stroke:#000000;stroke-width:1.1298;stroke-linecap:round;stroke-linejoin:round;stroke-miterlimit:10;}
	.st2{stroke:#000000;stroke-width:1.1298;stroke-linecap:round;stroke-linejoin:round;stroke-miterlimit:10;}
</style>
<g>
	<g>
		<g>
			<path d="M101.3,27.9c0,0-0.7-2.4-1.3-6c-0.6-3.6-3.8-5.2-8-4.4c-4.2,0.8-4.9,4.3-7.5,8.1c-2.6,3.8-13.8,9.6-13,14.8
				c0.7,5.2,5.5,4.6,4.2,7c-1.4,2.4-5.1,7,0.3,10.9c5.5,3.9,11.1-0.1,13.7,4.1c2.5,4.2,5.3,7.8,14.2,5.3c8.9-2.5,9.2-8.4,7.7-11.6
				c-1.5-3.3-0.4-4.4,4.4-5.8c4.9-1.5,6.6-6.9,4.1-10c-2.5-3.1-5-0.8-10.3-4.5C104.3,32.1,102,29.8,101.3,27.9z"/>
			<path class="st0" d="M90.8,31.3c0,0,0,2-0.6,3.9c-0.6,1.9-1.3,2.7-1.3,2.7s1.4,0,2.9,0.3c1.5,0.3,3.1-0.3,3.1-0.3
				s-0.4-1.5-0.3-3.4c0.1-1.9,0.2-2.5,0.2-2.5L90.8,31.3z"/>
			<path class="st0" d="M97.4,26.1c0.1-1.9-0.6-3.9-2.6-4.6c-2.1-0.7-4.3,0.5-4.8,2.6c-0.6,3.2-1.3,9.7,3.6,9.8
				C96.9,34.1,97.2,28.3,97.4,26.1z"/>
			<path d="M96.4,121.9c0,0-6.1,4.6-5.4,5.3c0.7,0.8,2.4,0,6.7-1.4c4.3-1.5,5.5-3.4,5.8-4.3C103.8,120.5,96.4,121.9,96.4,121.9z"/>
			<path class="st0" d="M97,36.1c0,0-3.8,1.2-7.6,0.1c-3.8-1.1-6.4-4-7.3-10.1C81.2,20,81,15.2,81.3,10.9s0.3-4.2,0.7-4.7
				c0.4-0.5,2.6-1.4,2.9-2.7S84.3,0.1,84,0.7c-0.3,0.6-0.1,1.3-0.1,1.3s0-1.6-0.7-1c-0.7,0.6,0,1.8,0,1.8s-1-2.1-1.1-1.5
				C82,1.9,82.2,3,82.2,3s-1.1-1.8-1.1-1.2c0,0.5,0.4,1.9,0.4,1.9s-2.7,0.8-2.8,1.6c-0.1,0.8-0.1,3.3-0.1,3.3s-0.6,10,0.4,18.9
				c1,8.9,6.3,14.1,6.3,14.1s-3.8,2.1-3.6,4.6c0.1,2.6,1.9,4.5,1.8,5.6c-0.1,1.2-0.9,3.5-0.3,9.1c0.6,5.5,0.9,8.9,0.9,8.9
				s-6.1,5-9.7,11.3c-3.6,6.3-2.6,7.5,0.2,10.6c2.9,3.2,13.2,12.3,14.8,15.6c1.6,3.3,3.5,9.1,3.8,11.8c0.3,2.7,0.5,4.1,0.5,4.1
				s4.5,0.2,6.9-0.3c2.5-0.5,4.8-1.7,4.8-1.7s-0.7-6-2.3-12.1c-1.7-6.1-7-13.6-8.6-16.9c-1.6-3.3-2.6-5.8-2.6-5.8s3.5-5.8,6.2-9.3
				c2.7-3.5,4.9-7.2,3.8-11.2c-1.1-4-6.9-9.2-7.3-10.6c-0.3-1.4,0.2-2.3,2-5.4c1.9-3.1,3-7.2,5.9-10.5c2.9-3.3,6.1-7.2,7.2-11.5
				c1.1-4.3,1.8-12,2.3-15.5c0.3-2.6,0-3.4,0.7-3.5s4.9-1.4,5-2.2c0.1-0.8-0.2-3.6-0.4-3.3c-0.2,0.3-0.3,1.3-0.3,1.3l-0.1,0.5
				c0,0-0.6-2.4-0.9-1.5s-0.5,2-0.5,2s-0.6-2.7-1-2c-0.4,0.7-0.1,2.3-0.1,2.3s-1-2.7-1.2-2c-0.2,0.7,0,1.9,0,1.9s-2.7-0.2-2.9,1.5
				c-0.1,1.7-0.7,8-3.3,15.3C104.6,29.8,100.6,35,97,36.1z"/>
			<path class="st0" d="M93.8,123.2c0,0,4.5,0.2,6.9-0.3c2.5-0.5,4.8-1.7,4.8-1.7s-0.7-6-2.3-12.1c-1.7-6.1-7-13.6-8.6-16.9
				c-1.6-3.3-2.6-5.8-2.6-5.8s3.5-5.8,6.2-9.3c2.7-3.5,4.9-7.2,3.8-11.2c-0.6-2.3-2.8-4.9-4.6-7c-0.7,0.4-1.4,0.9-2.3,1.5
				c-3.2,2.2-9.2,1.7-11.9,1.4c0.5,5.1,0.8,8.1,0.8,8.1s-6.1,5-9.7,11.3c-3.6,6.3-2.6,7.5,0.2,10.6c2.9,3.2,13.2,12.3,14.8,15.6
				c1.6,3.3,3.5,9.1,3.8,11.8C93.5,121.8,93.8,123.2,93.8,123.2z"/>
			<path class="st0" d="M98.1,59.7c-1.7-2.1-3.3-3.8-3.5-4.5c-0.3-1.4,0.2-2.3,2-5.4c1.9-3.1,3-7.2,5.9-10.5c1.3-1.5,2.7-1.5,4-3.2
				c-1-0.5-3.2-0.8-4-2c-0.3-0.4-0.8-1.7-1-2c-1.9,2.7-2.6,3.4-4.5,4c0,0-3.8,1.2-7.6,0.1c-3.3-1-4.7-1.5-5.9-6.1
				c-0.8,0.7-2.9,3.2-4,4c1.7,6.9,5.8,7.5,5.8,7.5s-3.8,2.1-3.6,4.6c0.1,2.6,1.9,4.5,1.8,5.6c-0.1,1.2-0.9,3.5-0.3,9.1
				c0.1,0.8,0.2,1.6,0.2,2.3c1.9,0,4.7,0,7.8-0.4C94.1,62.6,96.5,61.1,98.1,59.7z"/>
			<path class="st1" d="M89.9,71.3c0,0-8.5,12.9-8.1,16.5c0.4,3.6,8.6,21,8.6,21"/>
		</g>
	</g>
	<g>
		<g>
			<path class="st0" d="M28.6,47.5c0,0,2.6,8.3,10.4,7.5c7.8-0.8,10.4-6.6,10.4-6.6s0.5-2.5,0.6-3.1c0.1-0.6,1.3-1.7,1.3-1.7
				s3.1-0.8,3.4,0c0.3,0.8,0.1,1,0.1,1.4c0,0.4,0,2.5,0,3.4c0,0.9-1.6,2-3,4.3c-1.4,2.3-3.5,5.5-10.4,7.3c-6.9,1.8-10.6,1-13-1.8
				C26.2,55.3,28.6,47.5,28.6,47.5z"/>
			<path class="st0" d="M28.6,47.5c0,0-2.5,7.8-0.1,10.5c0.4,0.5,0.9,1,1.5,1.3l4.1-5.2C30.1,52.2,28.6,47.5,28.6,47.5z"/>
			<path d="M17.1,117.2c0,0-2.1,5.8-1.3,6.5c0.8,0.8,13.1,2.4,14.4,1.5c1.3-0.9-0.3-2.3-3-3.1c-2.7-0.9-3.2-1.3-3.2-1.3l0.3-2.3
				L17.1,117.2z"/>
			<path d="M27.4,122.2l-0.5,2l-11.3-1.7c-0.1,0.6,0,1,0.1,1.2c0.8,0.8,13.1,2.4,14.4,1.5C31.4,124.4,30,123.1,27.4,122.2z"/>
			<path class="st0" d="M50.2,81.2c-4-5.6-12.6-12.9-13.4-14c-0.8-1.1-6.1-8.6-6.4-16.3c-0.3-7.6,3.2-9.6,3.8-13.3
				c0.5-3.6-4.5-5.6-6.6-4.6c0,0-3.8-0.8-13.4,3.8C4.6,41.3,1,51.8,0.7,56.2s3.6,4.8,4.9,2.9c1.3-1.9,2.2-6.1,4.7-9.9
				c2.5-3.8,8-5.8,8-5.8s-3.2,9.1-0.9,20.9c2.3,11.8,9.3,23,9.7,27c0.4,4-3.2,9.6-5.7,14.6c-2.5,5-7.7,11.6-7.7,11.6l13.1,3.8
				c0,0,3.6-5.8,7.7-14.1c0,0,10.9-6.3,14.9-10.6C53.5,92.2,54.2,86.8,50.2,81.2z M40.2,92.1c0,0-0.4-1.6-0.6-3.3
				s-4.8-10.6-4.8-10.6s6.1,6,6.7,8C42.1,88.2,40.2,92.1,40.2,92.1z"/>
			<polygon class="st0" points="29.9,28.1 25.5,35.1 28,43.1 29.7,36.8 32.5,34.6 			"/>
			<path class="st0" d="M32,26.1c0,0-0.6-2.3-1.7-2.3c-1,0-2.1,2.3-2.1,3.6c0,1.4,1.7,1.3,1.7,1.3s-0.3,6.5,2.5,7.4
				c2.7,0.9,6.2-2.2,7.8-4c1.9-2.3,2.9-4,2.9-4l-7-5L32,26.1z"/>
			<path class="st2" d="M30.2,25.1c0,0,4.3-9.9,6.9-9.9c2.6,0,11.8,6.4,11.4,10.3c-0.4,3.9-5.4,2.6-5.4,2.6l-6.7-4.4l-4.4,3.4
				L30.2,25.1z"/>
			<path class="st0" d="M3.6,47.2c-1.9,3.5-2.5,7.4-2.6,9.4C0.7,61,4.4,60.9,5.7,59c1.2-1.7,2-5.2,3.9-8.6
				C7.7,48.6,5.3,47.7,3.6,47.2z"/>
			<polyline class="st0" points="51.3,43.5 52,47.1 50.9,47.5 			"/>
			<path class="st0" d="M8.3,53c0,0-2.8,5.6,0.6,8.3s9.2,3.4,10.4,3.4c1.2,0,2.7-0.6,3.1-1.3c0.4-0.6,3.5,0.3,3.5,0.3l0.4,1.1
				l1.6,0.8c0,0,0.6,1-0.1,1.1c-0.8,0.1-1.3,0.1-1.4,0.5c-0.1,0.4-1,2.6-3,3c-1.9,0.4-4.8,0-9.2-0.5C9.7,69.2,4.8,68.1,2,62.4
				c-4-8.1,1.5-15.2,1.5-15.2"/>
			<path class="st1" d="M38.2,68.6l-16.9,7.8c2.7,6.8,5.7,12.3,5.9,14.9c0.4,4-3.2,9.6-5.7,14.6c-2.5,5-7.7,11.6-7.7,11.6l13.1,3.8
				c0,0,3.6-5.8,7.7-14.1c0,0,10.9-6.3,14.9-10.6c4-4.4,4.7-9.8,0.6-15.4C47,76.7,40.9,71.2,38.2,68.6z M40.2,92.1
				c0,0-0.4-1.6-0.6-3.3s-4.8-10.6-4.8-10.6s6.1,6,6.7,8C42.1,88.2,40.2,92.1,40.2,92.1z"/>
			<path class="st1" d="M40.2,92.1c0,0-0.6,8.5-5.6,15.1"/>
		</g>
	</g>
</g>
</svg>
