<?xml version="1.0" encoding="utf-8"?>
<!-- Generator: Adobe Illustrator 23.0.1, SVG Export Plug-In . SVG Version: 6.00 Build 0)  -->
<svg version="1.1" id="Слой_1" xmlns="http://www.w3.org/2000/svg" xmlns:xlink="http://www.w3.org/1999/xlink" x="0px" y="0px"
	 viewBox="0 0 120.9 104.6" style="enable-background:new 0 0 120.9 104.6;" xml:space="preserve">
<style type="text/css">
	.st0{fill:none;stroke:#000000;stroke-width:1.0878;stroke-linecap:round;stroke-linejoin:round;stroke-miterlimit:10;}
	.st1{fill:none;stroke:#000000;stroke-width:1.1491;stroke-linecap:round;stroke-linejoin:round;stroke-miterlimit:10;}
	.st2{fill:none;stroke:#000000;stroke-width:1.1298;stroke-linecap:round;stroke-linejoin:round;stroke-miterlimit:10;}
	.st3{fill:#F5F5F3;stroke:#000000;stroke-width:1.1298;stroke-linecap:round;stroke-linejoin:round;stroke-miterlimit:10;}
	.st4{fill:#F5F5F3;stroke:#000000;stroke-width:1.1491;stroke-linejoin:round;stroke-miterlimit:10;}
	.st5{fill:none;stroke:#000000;stroke-width:0.5745;stroke-linecap:round;stroke-linejoin:round;stroke-miterlimit:10;}
	.st6{fill:none;stroke:#1A1A1A;stroke-linecap:round;stroke-linejoin:round;stroke-miterlimit:10;}
	.st7{fill:#1A1A1A;}
</style>
<g>
	<g>
		<path class="st0" d="M43.8,38c0,0-0.8,8-0.8,8.1c0.3,0.8,2,1.1,2.8,0.9l0.9-0.2"/>
		<path d="M49.5,34.2c0.1,0.2,0.5,3.1,0.5,3.1l7.1-0.2l2.6,0.3l-1.2-2.5c-0.5-0.4-1.1-0.6-1.8-0.7l-4.1,0.9L49.5,34.2z"/>
		<path d="M40.3,34.2c-0.1,0.2-0.5,3.1-0.5,3.1l-7.1-0.2l-2.6,0.3l1.2-2.5c0.5-0.4,1.1-0.6,1.8-0.7l4.1,0.9L40.3,34.2z"/>
		<g>
			<path class="st1" d="M34.2,63.8v10.4c0,0-2,6-12.6,7.7h46.5c0,0-10.6-3.5-11.6-7.7V63.8"/>
			<path class="st1" d="M89.9,104c-0.5-22.3-21.1-22.2-21.1-22.2H47.6h-3.9h-22c0,0-21.2,1.7-21.1,22.2"/>
		</g>
		<path class="st2" d="M42.3,53.3c0,0,3.1,4.2,6.2,0"/>
		<path class="st3" d="M49.3,40.5c0,0,3.5-0.9,5.3,0.9"/>
		<path class="st3" d="M38.8,40.5c0,0-3.5-0.9-5.3,0.9"/>
		<path d="M22,46c0,0-10.6-19.3-5.3-25.7s6.2-3.7,6.2-3.7S18.5,4.7,33.5,1.1S57,4.4,60.8,5.5C67,7.2,71.4,0.7,71.4,7.2
			s-0.9,8.5-0.9,8.5s7.1,22-0.9,27.5s-5.3,7.3-5.3,7.3s0.9-29.3-2.6-27.5c-3.5,1.8-11.5,0.9-15.9-0.9c-3.6-1.5-5.3-3.7-12.3-0.9
			c-7.4,2.9-7.1,18.3-7.1,21.1C26.4,45.1,26.4,51.5,22,46z"/>
		<g>
			<path class="st4" d="M64.4,49.2c1.3,1.9,3.8,0.6,5.3-1.8c1.5-2.4,2.2-7.3,0-8.7c-2.2-1.3-4,1.4-4,1.4s-0.5,4.9-0.9,6.8L64.4,49.2
				z"/>
			<g>
				<g>
					<path class="st5" d="M65.1,44.7c1.7-3.7,4.3-2.9,4.3-2.9"/>
				</g>
				<path class="st5" d="M66.5,42.8c0,0,2.6,1.5,0.9,3.7"/>
			</g>
		</g>
		<g>
			<path class="st4" d="M25.2,49.2c-1.3,1.9-3.8,0.6-5.3-1.8c-1.5-2.4-2.2-7.3,0-8.7c2.2-1.3,4,1.4,4,1.4s0.5,4.9,0.9,6.8L25.2,49.2
				z"/>
			<g>
				<g>
					<path class="st5" d="M24.4,44.7c-1.7-3.7-4.3-2.9-4.3-2.9"/>
				</g>
				<path class="st5" d="M23.1,42.8c0,0-2.6,1.5-0.9,3.7"/>
			</g>
		</g>
		<path d="M26.4,40.5c0,0,0,19.3,4.4,21.1c4.4,1.8,9.9-0.9,11.5-2.7c1.7-1.8,3.6-1.4,6.2-0.2c2.6,1.1,6.1,3.9,9.6,3
			c3.5-0.9,6.2-11,6.2-18.3c0-7.3,1.8-2.8,1.8,0.9c0,3.7,0.6,24.5-13.8,24.7c-14.4,0.1-19.7,0.1-23.2-4.5c-3.5-4.6-5.3-11-4.4-17.4
			S25.5,37.8,26.4,40.5z"/>
		<path d="M45.4,51.1c1.3-1.4,4.9-2.8,6.6-0.5c2.6,3.7,4.8-0.5,5.3,0c0.9,0.9-0.9,4.6-4.4,4.6C48.5,55.2,44.1,52.4,45.4,51.1z"/>
		<path d="M44.9,51.1c-1.3-1.4-4.9-2.8-6.6-0.5c-2.6,3.7-4.8-0.5-5.3,0c-0.9,0.9,0.9,4.6,4.4,4.6C41.8,55.2,46.2,52.4,44.9,51.1z"/>
		<line class="st0" x1="10" y1="85.7" x2="80.8" y2="85.7"/>
		<line class="st0" x1="5.2" y1="89.7" x2="85.6" y2="89.7"/>
	</g>
	<path class="st6" d="M100.8,19.4L89,39.9c-1.6,2.8,0.4,6.2,3.6,6.2h23.7c3.2,0,5.2-3.4,3.6-6.2L108,19.4
		C106.4,16.6,102.4,16.6,100.8,19.4z"/>
	<line class="st6" x1="104.4" y1="25.3" x2="104.4" y2="36.4"/>
	<circle class="st7" cx="104.4" cy="40.7" r="1"/>
</g>
</svg>
