<?xml version="1.0" encoding="utf-8"?>
<!-- Generator: Adobe Illustrator 23.0.1, SVG Export Plug-In . SVG Version: 6.00 Build 0)  -->
<svg version="1.1" id="Слой_1" xmlns="http://www.w3.org/2000/svg" xmlns:xlink="http://www.w3.org/1999/xlink" x="0px" y="0px"
	 viewBox="0 0 133.1 94.7" style="enable-background:new 0 0 133.1 94.7;" xml:space="preserve">
<style type="text/css">
	.st0{fill:#FFFFFF;}
	.st1{fill:none;stroke:#000000;stroke-width:1.1298;stroke-linecap:round;stroke-linejoin:round;stroke-miterlimit:10;}
	.st2{fill:#FFFFFF;stroke:#000000;stroke-width:1.1298;stroke-linecap:round;stroke-linejoin:round;stroke-miterlimit:10;}
</style>
<g>
	<g>
		<path d="M59.2,84.8l1.1-2.7c0.1-0.2,0.3-0.3,0.5-0.4c0.2,0,0.4,0.1,0.5,0.3l5.1,7.9c0.2,0.3,0.5,0.6,0.9,0.7
			c0.4,0.1,0.8,0,1.1-0.2l0.5-0.3c0.2-0.1,0.4-0.1,0.6,0l2.6,1.8c0.5,0.4,0.7,1,0.6,1.6c-0.2,0.6-0.7,1-1.4,1h-4.9
			c-1.2,0-2.2-0.8-2.6-1.9c-0.2-0.7-0.6-1.4-1-2l-0.3,3.4c0,0.3-0.3,0.5-0.6,0.5H61c-0.3,0-0.5-0.2-0.6-0.5l-0.5-6.2
			C59.1,87,58.8,85.9,59.2,84.8L59.2,84.8z"/>
		<g>
			<polygon class="st0" points="101,85.5 102.5,84.4 103.5,85.2 105.1,86.2 105.3,88.3 101.7,88.3 100.4,86.5 			"/>
			<path d="M113.3,91c-0.1-0.3-0.2-0.6-0.3-0.9c-0.1-0.2-0.2-0.3-0.4-0.2c-0.2,0,0,0-0.2,0.1l0-0.1c-0.3-1.3-1.4-2.2-2.7-2.3
				c-1-0.1-2.3-0.3-3.9-1c-0.2-0.1-0.4-0.2-0.7-0.3l-0.6,0.9c-0.1,0.1-0.3,0.2-0.4,0.2c-0.1,0-0.2,0-0.3-0.1
				c-0.2-0.1-0.3-0.5-0.2-0.7l0.6-0.9c-0.3-0.2-0.6-0.4-0.8-0.6l-1.2,1.6c-0.1,0.1-0.2,0.2-0.4,0.2c-0.1,0-0.2,0-0.3-0.1
				c-0.2-0.2-0.3-0.5-0.1-0.7l1.2-1.7c-0.2-0.2-0.4-0.3-0.6-0.5c-0.2-0.2-0.5-0.1-0.7,0c-0.7,0.7-2.6,2.4-5.7,2.5
				c-0.3,0-0.6,0-0.9,0c-0.1,0-0.2,0-0.3,0.1c-0.1,0.1-0.1,0.2-0.1,0.2v3.9h-0.1c-0.2,0-0.3,0.1-0.3,0.3V92c0,0.2,0.1,0.3,0.3,0.3
				c0,0,8.1,0,8.2,0c4.3,0,7.1,0.1,10.6-0.9c0.1,0,0.2-0.1,0.2-0.2C113.3,91.1,113.3,91.1,113.3,91z"/>
		</g>
		<g>
			<polygon class="st0" points="93.9,87.4 95.5,86.3 96.6,87.1 98.2,88.2 98.4,90.4 94.7,90.4 93.3,88.5 			"/>
			<path d="M106.8,93.2c-0.1-0.3-0.2-0.7-0.3-1c-0.1-0.2-0.3-0.3-0.4-0.2c-0.2,0,0,0-0.2,0.1l0-0.1c-0.4-1.3-1.5-2.3-2.9-2.4
				c-1-0.1-2.4-0.4-4.1-1c-0.2-0.1-0.4-0.2-0.7-0.3l-0.6,1c-0.1,0.2-0.3,0.2-0.4,0.2c-0.1,0-0.2,0-0.3-0.1c-0.2-0.2-0.3-0.5-0.2-0.7
				l0.6-1c-0.3-0.2-0.6-0.4-0.9-0.6l-1.3,1.7c-0.1,0.1-0.3,0.2-0.4,0.2c-0.1,0-0.2,0-0.3-0.1c-0.2-0.2-0.3-0.5-0.1-0.7l1.3-1.7
				c-0.2-0.2-0.4-0.4-0.6-0.5c-0.2-0.2-0.5-0.2-0.7,0c-0.7,0.8-2.7,2.5-6,2.6c-0.3,0-0.6,0-0.9,0c-0.1,0-0.2,0-0.3,0.1
				c-0.1,0.1-0.1,0.2-0.1,0.3v4.1h-0.1c-0.2,0-0.3,0.1-0.3,0.3v1.1c0,0.2,0.1,0.3,0.3,0.3c0,0,8.5,0,8.6,0c4.5,0,7.5,0.1,11.2-1
				c0.1,0,0.2-0.1,0.2-0.2C106.8,93.4,106.8,93.3,106.8,93.2z"/>
		</g>
		<path class="st1" d="M5.1,21.6h39c1.1,0,1.4-1.6,0.3-2L24,12.2c-0.2-0.1-0.5-0.1-0.7,0L4.8,19.6C3.7,20,4,21.6,5.1,21.6z"/>
		<g>
			<g>
				<path class="st2" d="M47.6,83.9L34.1,47.8c-0.2-0.4-0.6-0.7-1.1-0.7l-17.8,0c-0.5,0-0.9,0.3-1.1,0.7L0.6,83.9
					c-0.3,0.7,0.2,1.5,0.9,1.5l5.3,0.6c0.7,0.1,1.2,0.9,0.9,1.6l0,0.1c-0.3,0.8,0.3,1.6,1.1,1.6l30.6,0c0.8,0,1.4-0.9,1-1.6l0,0
					c-0.3-0.7,0.1-1.5,0.9-1.6l5.3-0.6C47.4,85.3,47.9,84.6,47.6,83.9z"/>
				<path class="st2" d="M31.5,13.8c-0.5-0.2-1.1,0.1-1.3,0.5l-6.1,10.8v0l-6-10.8c-0.3-0.5-0.8-0.7-1.3-0.5l-10.3,3
					c-0.6,0.2-1,0.9-0.8,1.5l3.7,10.7c0.1,0.2,0.3,0.5,0.5,0.6l2.4,1.5c0.3,0.2,0.5,0.4,0.5,0.8l2,10.2c0.1,0.5,0.6,0.9,1.1,0.9
					l16.5,0c0.6,0,1-0.4,1.1-0.9l2-10.3c0.1-0.3,0.2-0.6,0.5-0.8l2.4-1.5c0.2-0.1,0.4-0.4,0.5-0.6l3.7-10.7c0.2-0.6-0.1-1.3-0.8-1.5
					L31.5,13.8z"/>
			</g>
		</g>
		<path d="M14.3,40.6c0,0,17.9,0.9,19.4,0.3c1.5-0.6,1.1,7.2,1.1,7.2s-20.2,1.2-21.1-0.4C12.9,46,14.3,40.6,14.3,40.6z"/>
		<path class="st2" d="M26.1,4.7c0,0,1.7-4.1-2.5-4.1c-3.4,0-3.7,3.3-2.9,5c0.8,1.7,2.5,1.7,2.9,2.9v3.7"/>
		<path class="st1" d="M53.8,21.6h39c1.1,0,1.4-1.6,0.3-2l-20.5-7.4c-0.2-0.1-0.5-0.1-0.7,0l-18.5,7.4C52.4,20,52.7,21.6,53.8,21.6z
			"/>
		<path class="st2" d="M74.8,4.7c0,0,1.7-4.1-2.5-4.1c-3.4,0-3.7,3.3-2.9,5c0.8,1.7,2.5,1.7,2.9,2.9v3.7"/>
		<g>
			<path class="st2" d="M95.9,25.4c-1-6-3.6-7.6-3.6-7.6l-12.9-4c-0.5-0.2-1.1,0.1-1.4,0.5c0,0-2.4,3.1-5.6,3.1
				c-3.2,0-5.6-3.1-5.6-3.1c-0.3-0.5-0.9-0.7-1.4-0.5l-12.9,4c0,0-2.6,1.6-3.6,7.6l7.3,4l1.9-1.7l-0.1,30.4c0.1,0.5,0.6,0.9,1.2,0.9
				l12.7,0.2v0l0.5,0l0.5,0v0L85.5,59c0.6,0,1.1-0.4,1.2-0.9l-0.1-30.4l1.9,1.7L95.9,25.4z"/>
			<path class="st2" d="M72.6,17.3c0,0,3.4,0.1,3.4,3.1c0,0,5.2-4,5-6l-3-2C78,12.5,75.2,17.2,72.6,17.3z"/>
			<path class="st2" d="M71.1,17.3c0,0-3.4,0.1-3.4,3.1c0,0-5.2-4-5-6l3-2C65.7,12.5,68.5,17.2,71.1,17.3z"/>
			<line class="st1" x1="72" y1="17.5" x2="72" y2="30.4"/>
		</g>
		<g>
			<path class="st1" d="M92.5,41.5h39c1.1,0,1.4-1.6,0.3-2l-20.5-7.4c-0.2-0.1-0.5-0.1-0.7,0l-18.5,7.4
				C91.2,39.9,91.4,41.5,92.5,41.5z"/>
			<path class="st2" d="M113.5,24.6c0,0,1.7-4.1-2.5-4.1c-3.4,0-3.7,3.3-2.9,5c0.8,1.7,2.5,1.7,2.9,2.9V32"/>
			<path d="M98.9,43.3l-2,25.8c0,0,14.9,2,14.9,1s1-7.9,1-7.9s1,7.9,2,7.9c1,0,12.9,0,13.9-1c1-1-3-25.8-3-25.8H98.9z"/>
			<rect x="99.9" y="39.3" width="2" height="5.5"/>
			<rect x="122.2" y="39.3" width="2" height="5.5"/>
		</g>
		<path d="M65,78.9l1.1-2.7c0.1-0.2,0.3-0.3,0.5-0.4c0.2,0,0.4,0.1,0.5,0.3l5.1,7.9c0.2,0.3,0.5,0.6,0.9,0.7c0.4,0.1,0.8,0,1.1-0.2
			l0.5-0.3c0.2-0.1,0.4-0.1,0.6,0l2.6,1.8c0.5,0.4,0.7,1,0.6,1.6c-0.2,0.6-0.7,1-1.4,1h-4.9c-1.2,0-2.2-0.8-2.6-1.9
			c-0.2-0.7-0.6-1.4-1-2L68.3,88c0,0.3-0.3,0.5-0.6,0.5h-0.9c-0.3,0-0.5-0.2-0.6-0.5l-0.5-6.2C64.9,81.1,64.6,79.9,65,78.9L65,78.9z
			"/>
	</g>
	<line class="st1" x1="40.6" y1="87.6" x2="37.8" y2="73.9"/>
	<line class="st1" x1="7.7" y1="87.6" x2="10.5" y2="73.9"/>
</g>
</svg>
