<?xml version="1.0" encoding="utf-8"?>
<!-- Generator: Adobe Illustrator 23.0.1, SVG Export Plug-In . SVG Version: 6.00 Build 0)  -->
<svg version="1.1" id="Слой_1" xmlns="http://www.w3.org/2000/svg" xmlns:xlink="http://www.w3.org/1999/xlink" x="0px" y="0px"
	 viewBox="0 0 148 104.4" style="enable-background:new 0 0 148 104.4;" xml:space="preserve">
<style type="text/css">
	.st0{fill:#FFFFFF;stroke:#000000;stroke-width:1.0126;stroke-linejoin:round;stroke-miterlimit:10;}
	.st1{fill:#FFFFFF;stroke:#1A1A1A;stroke-width:1.0126;stroke-linejoin:round;stroke-miterlimit:10;}
	.st2{opacity:0.3;}
	.st3{opacity:0.3;fill:#6D4010;}
	.st4{opacity:0.3;fill:#855213;}
	.st5{opacity:0.2;}
	.st6{opacity:0.5;fill:#FFFFFF;}
	.st7{opacity:0.5;fill:#855213;}
	.st8{fill:#FFFFFF;}
	.st9{opacity:0.6;fill:#FFFFFF;}
	.st10{stroke:#000000;stroke-width:1.0126;stroke-linejoin:round;stroke-miterlimit:10;}
	.st11{fill:none;stroke:#000000;stroke-width:1.0126;stroke-linejoin:round;stroke-miterlimit:10;}
	.st12{fill:#FFFFFF;stroke:#1A1A1A;stroke-width:0.5;stroke-linejoin:round;stroke-miterlimit:10;}
	.st13{fill:#FFFFFF;stroke:#171717;stroke-width:0.5641;stroke-linejoin:round;stroke-miterlimit:10;}
	.st14{fill:#FFFFFF;stroke:#141414;stroke-width:0.6282;stroke-linejoin:round;stroke-miterlimit:10;}
	.st15{fill:#FFFFFF;stroke:#101010;stroke-width:0.6922;stroke-linejoin:round;stroke-miterlimit:10;}
	.st16{fill:#FFFFFF;stroke:#0D0D0D;stroke-width:0.7563;stroke-linejoin:round;stroke-miterlimit:10;}
	.st17{fill:#FFFFFF;stroke:#0A0A0A;stroke-width:0.8204;stroke-linejoin:round;stroke-miterlimit:10;}
	.st18{fill:#FFFFFF;stroke:#070707;stroke-width:0.8845;stroke-linejoin:round;stroke-miterlimit:10;}
	.st19{fill:#FFFFFF;stroke:#030303;stroke-width:0.9486;stroke-linejoin:round;stroke-miterlimit:10;}
	.st20{opacity:0.5;}
</style>
<g>
	<g>
		<path class="st0" d="M63.9,38.8l0-1.7c0-0.2,0.1-5.3,0.7-10.6c1.2-10.2,3.4-11.8,5-12.1c3.6-0.7,31.4-2.2,36.7,1.1
			c4.9,3.1,6.9,18.7,7.3,21.8l0.1,1.3L63.9,38.8z M88.2,16.1c-7.8,0-15.4,0.5-17.5,0.9c-1.9,0.4-3.6,8.8-3.9,18.9l43.6-0.2
			c-1-7.9-3.3-16.7-5.4-18C103.9,17,98.8,16.1,88.2,16.1z"/>
	</g>
	<ellipse class="st0" cx="110.3" cy="26.9" rx="2.8" ry="1.9"/>
	<ellipse class="st1" cx="65.9" cy="26.9" rx="2.8" ry="1.9"/>
	<path class="st0" d="M139.2,57.9l-15.3-20.2c0.1,0-34.1,0.7-40.9,0.9c-6.9-0.1-41-0.9-40.9-0.9L26.6,57.9c-0.9,1.1-1.3,2.5-1.3,4
		v25.3c0,2.4,1.9,4.4,4.2,4.4h52.2h2.4h52.2c2.3,0,4.2-2,4.2-4.4V61.8C140.5,60.4,140.1,59,139.2,57.9z"/>
	<g>
		<path class="st0" d="M124.9,35c0-1.3-1-2.3-2.2-2.3l-39.5-0.8v0l-0.7,0l-0.7,0v0l-39.5,0.8C41,32.7,40,33.7,40,35v4l42.4,2.6
			l42.4-2.6V35z"/>
	</g>
	<path class="st0" d="M120.8,27.8H84.6h-2.3H46c-1.6,0-2.9,1.3-2.9,2.9v2.5h39.1h2.3h39.1v-2.5C123.6,29.1,122.4,27.8,120.8,27.8z"
		/>
	<g>
		<path class="st0" d="M54.7,34.1l0.4-1.7c0-0.2,1.2-5.4,3-10.7c3.4-10.3,5.9-11.9,7.6-12.2c3.7-0.7,31.6-2.2,36.1,1.2
			c4.2,3.2,2.8,18.9,2.4,22L104,34L54.7,34.1z M83.8,11.3c-7.8,0-15.3,0.5-17.5,0.9c-2,0.4-5.5,8.9-7.9,19l43.2-0.1
			c0.7-8,0.4-16.8-1.5-18.2C99,12.2,94.2,11.3,83.8,11.3z"/>
	</g>
	<g>
		<path class="st2" d="M31.8,34.8c0.3-0.1,0.6-0.1,0.9,0c0.4,0.1,0.8,0.4,1.3,0.4c0.9-0.1,1.5-1.1,1.9-1.8c0.5-0.8,1-1.7,1.5-2.6
			c0.5-0.9,1-1.8,1.4-2.8c0.3-0.8,0.7-1.9,0.6-2.8c-0.1-0.3-0.2-0.6-0.4-0.7c-0.5,0.8-0.8,1.7-1.3,2.5c-1,1.6-2.2,3.2-3.5,4.6
			c-1,1-1.9,2-2.6,3.2C31.7,34.9,31.8,34.8,31.8,34.8z"/>
		<path class="st3" d="M53.4,22.7c0.6,1.8,2,3.1,3.3,4.4c0.7,0.7,1.4,1.4,2.1,2c0.7,0.6,1.5,1.1,2.5,0.9c0.7-0.1,1.3-0.4,2-0.1
			c0-0.1-0.1-0.1-0.1-0.2c-0.9-1.1-2.1-1.8-3.2-2.6c-1.4-1-2.8-2.1-4-3.4c-1-1-1.7-2.4-3.1-2.8C53.1,21.5,53.2,22.2,53.4,22.7z"/>
		<path class="st4" d="M40.5,26.2c0.2,0.4,0.5,0.9,0.9,1.2c0.5,0.3,1,0.2,1.5,0c0.6-0.2,1.1-0.5,1.7-0.8c0.4-0.2,0.8-0.5,1.2-0.7
			c1-0.3,2-0.2,3,0c1.1,0.2,2.4-0.4,2.4-1.6c0.1-0.8-0.3-1.7-0.1-2.5c0.1-0.5,0.4-0.7,0.7-0.9c-0.7,0-1.3,0.3-1.9,0.5
			c-0.3,0-0.6,0.1-0.9,0.2c-0.8,0.2-1.5,0.6-2.2,0.9c-0.7,0.3-1.7,0.8-2.5,0.9c-1.3-0.3-2.6-0.7-3.9-0.2c-0.6,0.2-1,0.6-1.3,1
			C40,24.6,40.1,25.5,40.5,26.2z"/>
		<path class="st4" d="M41.2,25.2c0,1,0.8,2.1,1.9,1.8c1.1-0.3,1.8-1.4,3-1.5c0.5,0,1,0,1.6,0.1c0.5,0.1,1.1,0.3,1.7,0.2
			c1.3-0.1,2-1.6,1.6-2.7c0,0,0,0,0,0c-0.4,0.1-0.8,0.2-1.1,0.3c-1,0.3-2.1,0.5-3.1,0.7c-1,0.2-2.1,0.4-3.1,0.6
			c-0.5,0.1-0.9,0.1-1.4,0.2C41.9,25.1,41.5,25.2,41.2,25.2z"/>
		<path class="st5" d="M63.1,30.5c-0.5,0-1,0.2-1.4,0.4c-0.4,0.2-0.8,0.6-1.2,0.6c-0.9,0-1.6-0.7-2.2-1.2c-0.8-0.8-1.8-1.3-2.6-2.2
			c-0.6-0.8-1.4-2-2.5-2c-1.4,0-0.8,2-0.4,2.8c0.8,1.7,2.2,3.3,2,5.3c-0.3,3-3.6,4.6-6.2,5.1c-1.6,0.3-3.3,0.4-4.7-0.3
			c-1.4-0.7-2.4-2-2.8-3.6c-0.2-0.8-0.3-1.6-0.2-2.4c0-0.6,0.1-1.4-0.1-2c-0.5-1-1.6,0.5-1.8,1c-0.5,0.8-0.9,1.7-1.3,2.5
			c-0.4,0.8-0.9,1.7-1.6,2.4c-0.4,0.4-1.2,0.9-1.7,0.4c-0.6-0.5-0.9-1.4-1.7-1.6c-0.6-0.2-1.1,0-1.5,0.3c-0.3,1.2,0.4,2.5,1.5,3.1
			c1.5,0.8,3.1-0.4,4-1.5c1.2-1.3,2.1-2.7,2.8-4.3c0.1-0.3,0.2-0.6,0.4-0.9c0,0.1,0,0.2-0.1,0.4c-0.4,1.9-0.4,4,0.1,5.9
			c0.3,0.9,0.9,1.8,1.4,2.6c0.5,0.7,1.1,1.3,1.7,1.8c1.3,0.9,2.9,1.6,4.5,1.7c0.9,0.1,1.8,0,2.7-0.1c2.3-0.5,4.6-1.7,6-3.6
			c0.5-0.7,1.1-1.6,1.4-2.5c0.2-0.6,0.3-1.3,0.3-1.9c0.1-2.6-1.4-4.8-2.7-7c-0.4-0.6-0.8-1.3-1.2-1.9c-0.1-0.1-0.1-0.2-0.2-0.3
			c0.2,0.2,0.3,0.3,0.5,0.5c0.3,0.4,0.7,0.8,1,1.2c0.1,0.2,0.3,0.4,0.4,0.5c1,1.3,2.1,2.3,3.4,3.2c1.1,0.7,2.7,1.5,3.9,0.5
			c0.8-0.7,1.2-1.9,0.8-2.9C63.5,30.5,63.3,30.5,63.1,30.5z"/>
		<g>
			<path class="st5" d="M39.8,32.4c0,0-0.5,0.8-0.8,1.2c-0.3,0.5-0.6,1.1-1,1.6c-0.5,0.7-1.1,1.4-1.8,2c-0.1,0.1-0.2,0.2-0.4,0.3
				c-0.2,0.2-0.4,0.3-0.7,0.4c-0.7,0.3-1.3,0.2-1.8-0.4c-0.3-0.4-0.7-0.9-1.2-1c-0.4-0.1-0.8,0-1.1,0.3c0.1,0.9,0.7,1.8,1.6,2.3
				c1.5,0.8,3.1-0.4,4-1.5c1.2-1.3,2.1-2.7,2.8-4.3C39.6,33,39.7,32.7,39.8,32.4z"/>
			<path class="st5" d="M54.1,41c-2.7,1.8-6.5,2.3-9.6,1.1c-1-0.4-2-0.9-2.8-1.7c-0.3-0.2-0.5-0.5-0.7-0.8c-0.7-0.9-1.2-1.9-1.4-2.9
				c0.1,0.6,0.2,1.3,0.3,1.9c0.3,0.9,0.9,1.8,1.4,2.6c0.5,0.7,1.1,1.3,1.7,1.8c1.3,0.9,2.9,1.6,4.5,1.7c0.9,0.1,1.8,0,2.7-0.1
				c2.3-0.5,4.6-1.7,6-3.6c0.5-0.7,1.1-1.6,1.4-2.5c0.2-0.6,0.3-1.3,0.3-1.9c0-0.2,0-0.5,0-0.7c-0.1,0.6-0.3,1.2-0.6,1.7
				C56.5,39,55.4,40.2,54.1,41z"/>
			<path class="st5" d="M62.2,32c-0.4,0.3-0.8,0.7-1.3,0.8c-0.4,0.1-1-0.2-1.3-0.4c-1.1-0.6-2.1-1.5-3.1-2.3c-0.5-0.5-1.1-1-1.6-1.5
				c-0.4-0.4-0.9-0.9-1.4-1.2c0,0,0.1,0.2,0.1,0.2c0.1,0.2,0.3,0.3,0.4,0.5c0.3,0.4,0.7,0.8,1,1.2c0.1,0.2,0.3,0.4,0.4,0.5
				c1,1.3,2.1,2.3,3.4,3.2c1.1,0.7,2.7,1.5,3.9,0.5c0.4-0.3,0.7-0.8,0.8-1.2C63.4,31.7,62.7,31.6,62.2,32z"/>
		</g>
		<path d="M63.2,29.8c-0.9-1.1-2.1-1.8-3.2-2.6c-1.4-1-2.8-2.1-4-3.4c-1-1.1-1.7-2.6-3.4-2.9c-0.6-0.1-1.1,0-1.6,0.2
			c0.4-0.3,0.7-0.7,1-1.1c0.8-1,1.7-2.6,1.9-3.9c0.4-2.5,0.2-5.1-0.8-7.5c0.1,0,0.2,0,0.2,0c0.1,0,0.1,0,0.2,0
			c0.2-0.1,0.4-0.1,0.7-0.2c0,0,0.1,0,0.1,0c0.2-0.1,0.5-0.2,0.7-0.4c0,0,0.1,0,0.1-0.1c0.2-0.1,0.4-0.3,0.6-0.4c0,0,0,0,0.1,0
			c0,0,0,0,0,0c0.3-0.3,0.6-0.7,0.8-1.1c0.4-0.8,0.3-2.1,0.1-2.8c-0.3-1-0.8-2.1-1.7-2.7c-1.5-1-3.7-1-5.1,0.1
			c-0.5,0.4-1,0.9-1.3,1.5c0,0,0,0,0,0c0,0,0,0.1-0.1,0.1c0,0.1-0.1,0.1-0.1,0.2c-0.1,0.2-0.2,0.4-0.2,0.5c-1.8-0.8-3.7-0.9-5.8-0.4
			c-2.1,0.5-4.3,1.1-6,2.7c-0.1,0.1-0.3,0.3-0.4,0.4C35.8,5,35.2,4.3,34.4,4C34.3,4,34.2,4,34.1,4c0,0,0,0,0,0c0,0,0,0,0.1,0
			c-1.2-0.4-2.6-0.4-3.7,0.2c-1.4,0.7-2.1,2.1-2.3,3.5c-0.1,0.4-0.1,0.9,0,1.3c0.1,1,0.6,2,1.3,2.7c0,0,0,0,0,0c0,0,0,0,0,0
			c0.8,0.8,1.9,1.4,3,1.3c0.1,0,0.1,0,0.2,0c0,0,0,0,0.1,0c0.2,0,0.5-0.1,0.7-0.2c-0.1,1-0.1,2,0,3c0.1,0.9,0.4,1.9,0.8,2.7
			c1.2,2.5,3.4,4.1,6,4.9c-1.5,0.8-1.9,2.4-2.7,3.8c-1,1.6-2.2,3.2-3.5,4.6c-1,1.1-2.1,2.2-2.8,3.6c-0.8,1.4-0.1,3,1.3,3.7
			c1.5,0.8,3.1-0.4,4-1.5c1.2-1.3,2.1-2.7,2.8-4.3c0.1-0.3,0.2-0.6,0.4-0.9c0,0.1,0,0.2-0.1,0.4c-0.4,1.9-0.4,4,0.1,5.9
			c0.3,0.9,0.9,1.8,1.4,2.6c0.5,0.7,1.1,1.3,1.7,1.8c1.3,0.9,2.9,1.6,4.5,1.7c0.9,0.1,1.8,0,2.7-0.1c2.3-0.5,4.6-1.7,6-3.6
			c0.5-0.7,1.1-1.6,1.4-2.5c0.2-0.6,0.3-1.3,0.3-1.9c0.1-2.6-1.4-4.8-2.7-7c-0.4-0.6-0.8-1.3-1.2-1.9c-0.1-0.1-0.1-0.2-0.2-0.3
			c0.2,0.2,0.3,0.3,0.5,0.5c0.3,0.4,0.7,0.8,1,1.2c0.1,0.2,0.3,0.4,0.4,0.5c1,1.3,2.1,2.3,3.4,3.2c1.1,0.8,2.7,1.5,3.9,0.5
			C63.9,32.5,64.1,30.9,63.2,29.8z"/>
		<path class="st2" d="M48.4,6.9c1.3-1,0.3-2.6-0.7-3.4C46.9,3,45.9,2.8,45,2.9c-1.5,0.1-3,0.5-4.4,0.9c-1.4,0.4-2.8,1.1-3.7,2.2
			c-0.5,0.5-0.9,1.2-1.1,1.9c-0.2,0.6,0,1.5,0.7,1.7c1,0.2,2.1-0.4,3.1-0.4c0.4,0,0.8,0.1,1.1,0.3c0.4,0.2,0.8,0.7,1.3,0.8
			c1.1,0.3,1.7-1.4,2.4-2C45.5,7.3,47.4,7.7,48.4,6.9z"/>
		<path class="st6" d="M46.9,10.7c-0.1-0.3-0.3-0.6-0.6-0.7c0,0-0.1,0-0.1,0c0,0,0,0,0,0c-0.8,0.2-0.8,1.3-0.7,2
			c0.1,0.7,0.3,1.4,0.8,1.9c0.2,0.2,0.5,0.4,0.8,0.2c0.3-0.2,0.4-0.5,0.5-0.8c0.1-0.5,0-1-0.2-1.4C47.3,11.5,47.1,11.1,46.9,10.7z"
			/>
		<path class="st5" d="M52.5,7.4C52.3,7,52,6.6,51.7,6.1c-0.6-0.8-1.4-1.6-2.2-2.2c-0.6-0.4-1.3-0.8-2-1c0.4,0.3,0.9,0.5,1.3,0.8
			c1.7,1.3,3.1,3,3.8,5c0.6,1.6,0.8,3.3,0.9,5c0,0.7,0,1.4-0.2,2c-0.1,0.5-0.3,1.1-0.8,1.3c-0.6,0.3-1.1-0.1-1.5-0.6
			c-0.3-0.4-0.6-0.8-1.1-0.9c0,0,0,0-0.1,0c-0.4,0.1-0.6,0.3-0.7,0.6c-0.1,0.2-0.1,0.5-0.1,0.7c0.1,0.5,0.4,0.9,0.4,1.3
			c0.1,0.7-0.3,1.3-1,1.6c-0.5,0.2-1.1,0.3-1.6,0.1c-0.1,0-0.2-0.1-0.3-0.1c-0.3-0.1-0.6-0.4-0.7-0.7c0,0,0-0.1,0-0.1
			c-0.1-0.1-0.1-0.2-0.1-0.4c0-0.3,0.3-0.6,0.4-0.8c0.3-0.4,0.1-1.1-0.2-1.5c-0.3-0.5-1.1-0.6-1.4-0.6c-0.5,0-0.4,1-0.9,0.9
			c-0.3,0-0.2-0.5-0.4-0.5c-0.3,0-0.9,0.2-1.2,0.5c-0.3,0.4-0.5,0.7-0.4,1.2c0.2,0.5,0.6,0.8,0.9,1.1c0.6,0.5,0.8,1.2,0.4,1.8
			c-0.5,0.7-1.4,1-2.2,0.7c-0.4-0.2-0.6-0.6-0.7-1c0-0.4,0.1-0.7,0.3-1.1c0.1-0.3,0.1-0.5,0-0.7c-0.3-0.2-0.6-0.3-1-0.2
			c-0.5,0.2-0.8,0.5-1.1,0.8c-0.2,0.2-0.4,0.4-0.7,0.5c-0.7,0.1-1.3-0.3-1.7-0.8c-0.5-0.6-1-1.4-1.3-2.2c-0.8-1.9-0.7-4.1-0.3-6
			c0.2-1,0.4-1.9,0.8-2.8c0.2-0.5,0.3-1,0.6-1.5c-1.1,1.4-1.7,3.1-2,4.9c-0.2,1.5-0.3,3-0.1,4.5c0.1,0.9,0.4,1.9,0.8,2.7
			c1.4,2.8,4,4.6,7,5.1c0.8,0.2,1.6,0.2,2.5,0.2c3-0.1,6.3-1.3,8.1-3.7c0.8-1,1.7-2.6,1.9-3.9C54.4,13.2,54,10.1,52.5,7.4z"/>
		<path class="st7" d="M45.8,22.1c0.3-0.3,0.6-0.6,0.8-1c0,0,0,0-0.1,0c0,0,0,0,0-0.1c-0.5-0.3-1-0.6-1.3-1.1
			c-0.4-0.6-0.6-1.2-0.7-1.8c0,0.4,0,0.9-0.1,1.3c-0.1,0.9-0.6,1.9-1.3,2.5C44,22.5,45,22.7,45.8,22.1z"/>
		<path class="st8" d="M44.6,14.6c-0.3,0-0.6,0-0.9,0.1c-0.5,0.2-1.2,0.4-1.4,0.9c-0.2,0.5-0.1,1,0.4,1.2c0.7,0.4,1.1,1.3,1.8,0.9
			c0.3-0.2,1.1-1.6,1.2-2c0-0.4-0.2-0.8-0.5-1C45,14.7,44.8,14.6,44.6,14.6z"/>
		<path class="st3" d="M45.3,16.1c0-0.2-0.4-0.2-0.5-0.1C44.6,16.4,45.4,16.5,45.3,16.1z"/>
		<g>
			<g>
				<g>
					<path class="st8" d="M45.6,24.1c-0.1-0.1-0.1-0.2-0.2-0.2c-0.4-0.3-0.9-0.5-1.3-0.7c-0.4-0.2-0.8-0.3-1.2-0.4
						c-0.7-0.2-1.9-0.1-2.3,0.7c-0.4,0.8-0.3,1.8-0.1,2.7c0.2,0.7,0.6,1.8,1.5,1.7c0.9-0.1,1.7-0.8,2.2-1.5c0.3-0.4,0.6-0.8,0.9-1.3
						c0.2-0.2,0.4-0.4,0.6-0.6c0-0.1,0.1-0.1,0.1-0.2C45.7,24.2,45.7,24.2,45.6,24.1C45.7,24.1,45.7,24.1,45.6,24.1z"/>
					<path class="st6" d="M42.8,22.9c-0.5-0.1-1.1-0.1-1.5,0.2c-0.7,0.4-0.9,1.2-0.8,1.9c0.1,0.7,0.4,1.9,1.3,1.6
						c0.2-0.1,0.5-0.2,0.7-0.5c0.2-0.2,0.3-0.3,0.4-0.5c0.1-0.1,0.2-0.3,0-0.4c-0.1-0.2-0.5,0-0.6,0c-0.1,0-0.5,0-0.5-0.2
						c0-0.2,0.2-0.3,0.3-0.3c0.1,0,0.7-0.4,0.3-0.5c-0.1,0-0.1,0-0.2,0c-0.1,0-0.2,0-0.3-0.1c-0.3-0.2-0.1-0.6,0.2-0.7
						c0.2-0.1,0.4-0.2,0.6-0.2c0.1,0,0.3,0,0.4-0.1c0,0,0,0,0,0C43,22.9,42.9,22.9,42.8,22.9z"/>
					<g>
						<path class="st8" d="M44.7,24.7c-0.3,0.3-0.5,0.7-0.8,1c0,0,0,0.1,0,0C44.3,25.4,44.6,25.1,44.7,24.7
							C44.9,24.7,44.8,24.6,44.7,24.7z"/>
						<path class="st8" d="M44.7,24.4c-0.4-0.1-0.9,0.1-1.3,0.2c0,0,0,0.1,0,0.1c0.4-0.1,0.8-0.1,1.2-0.2
							C44.8,24.5,44.8,24.4,44.7,24.4z"/>
					</g>
				</g>
				<path class="st6" d="M45.6,24.1c-0.1-0.1-0.1-0.2-0.2-0.2c-0.3-0.2-0.6-0.4-1-0.6c-0.4,0-0.8,0.1-1.3,0.2
					c-0.1,0-0.4,0.1-0.6,0.2c0.5-0.1,1,0.1,1.5,0.3c0.1,0,0.1,0.1,0,0.1c-0.2,0.2-0.5,0.4-0.7,0.6c0.3,0,0.5,0,0.8,0.1
					c0.1,0,0.1,0.1,0,0.1c-0.1,0.2-0.3,0.4-0.4,0.5c-0.1,0.1-0.3,0.3-0.4,0.4c-0.3,0.3-0.6,0.6-0.9,0.9c-0.5,0.4-1,0.7-1.6,0.2
					c-0.1-0.1-0.2-0.2-0.3-0.3c0.2,0.6,0.7,1.2,1.3,1.1c0.9-0.1,1.7-0.8,2.2-1.5c0.3-0.4,0.6-0.8,0.9-1.3c0.2-0.2,0.4-0.4,0.6-0.6
					c0-0.1,0.1-0.1,0.1-0.2C45.7,24.2,45.7,24.2,45.6,24.1C45.7,24.1,45.7,24.1,45.6,24.1z"/>
			</g>
			<g>
				<g>
					<path class="st8" d="M45.6,24.2C45.6,24.2,45.7,24.2,45.6,24.2c0.1,0.1,0.1,0.2,0.2,0.2c0.3,0.1,0.5,0.2,0.8,0.3
						c0.4,0.3,0.9,0.5,1.3,0.8c0.7,0.4,1.8,0.7,2.7,0.4c0.8-0.3,0.8-1.5,0.6-2.2c-0.2-0.9-0.5-1.8-1.3-2.3c-0.7-0.5-1.8-0.1-2.4,0.4
						c-0.3,0.3-0.7,0.6-0.9,0.9c-0.3,0.4-0.7,0.8-0.9,1.2C45.7,23.9,45.7,24,45.6,24.2C45.6,24.1,45.6,24.1,45.6,24.2z"/>
					<path class="st6" d="M47.7,21.8c0.4-0.3,0.9-0.5,1.5-0.5c0.8,0.1,1.3,0.7,1.6,1.4c0.2,0.7,0.4,1.9-0.5,2c-0.3,0-0.5,0-0.8-0.1
						c-0.2-0.1-0.4-0.1-0.6-0.3c-0.1-0.1-0.3-0.2-0.2-0.4c0.1-0.2,0.4-0.2,0.6-0.3c0.1-0.1,0.4-0.2,0.3-0.4
						c-0.1-0.1-0.3-0.2-0.4-0.2c-0.1,0-0.8-0.1-0.5-0.3c0,0,0.1-0.1,0.1-0.1c0.1-0.1,0.2-0.1,0.2-0.2c0.2-0.4-0.1-0.6-0.5-0.6
						c-0.2,0-0.4,0-0.6,0c-0.1,0-0.3,0.1-0.4,0.1c0,0,0,0,0,0C47.6,21.9,47.7,21.8,47.7,21.8z"/>
					<g>
						<path class="st8" d="M46.7,24.2c0.4,0.1,0.7,0.4,1.2,0.5c0,0,0,0.1,0,0C47.5,24.7,47,24.6,46.7,24.2
							C46.6,24.3,46.7,24.2,46.7,24.2z"/>
						<path class="st8" d="M46.6,23.9c0.4-0.2,0.8-0.3,1.2-0.3c0,0,0,0.1,0,0.1c-0.4,0.1-0.8,0.3-1.2,0.4C46.6,24,46.6,24,46.6,23.9
							z"/>
					</g>
				</g>
				<path class="st6" d="M45.7,24.1c0-0.1,0-0.2,0.1-0.3c0.1-0.3,0.4-0.6,0.6-0.9c0.4-0.2,0.8-0.3,1.2-0.4c0.1,0,0.4-0.1,0.6-0.1
					c-0.5,0.2-0.9,0.5-1.2,0.9c0,0,0,0.1,0,0.1c0.3,0.1,0.6,0.1,0.9,0.2c-0.2,0.1-0.5,0.2-0.7,0.4c0,0,0,0.1,0,0.1
					c0.2,0.1,0.4,0.2,0.6,0.3c0.2,0.1,0.4,0.1,0.5,0.2c0.4,0.1,0.8,0.3,1.2,0.5c0.6,0.2,1.2,0.2,1.5-0.5c0.1-0.1,0.1-0.2,0.1-0.4
					c0,0.6-0.1,1.3-0.7,1.6c-0.8,0.3-1.9,0-2.7-0.4c-0.4-0.2-0.9-0.5-1.3-0.8c-0.3-0.1-0.5-0.2-0.8-0.3c-0.1,0-0.1-0.1-0.1-0.1
					C45.7,24.2,45.6,24.2,45.7,24.1C45.6,24.1,45.6,24.1,45.7,24.1z"/>
			</g>
			<g>
				<path class="st8" d="M46,23.1c-0.2-0.2-1-0.1-1.1,0.1c-0.3,0.3-0.1,1,0,1.4c0,0,0,0.1,0,0.1c0,0.1,0,0.2,0.1,0.3
					c0.1,0.4,0.6,0.3,0.9,0.3c0.5-0.1,0.5-0.5,0.4-0.9C46.4,24,46.4,23.3,46,23.1z"/>
				<path class="st9" d="M46.2,23.4c-0.1-0.2-0.2-0.3-0.4-0.4c-0.2,0-0.5,0-0.6,0.1C45,23.3,45,23.6,45,23.8c0,0.2,0.1,0.4,0.2,0.6
					c0.1,0.1,0.2,0.2,0.3,0.2c0.2,0.1,0.5,0,0.6-0.2C46.3,24.2,46.3,24,46.2,23.4z"/>
				<path class="st6" d="M46.4,24.4c0,0.3-0.2,0.5-0.7,0.5c-0.6,0-0.7-0.7-0.8-1.2c0-0.2-0.1-0.5,0.1-0.7c0,0-0.1,0-0.1,0.1
					c-0.3,0.3-0.1,1,0,1.4c0,0,0,0.1,0,0.1c0,0.1,0,0.2,0.1,0.3c0.1,0.4,0.6,0.3,0.9,0.3C46.5,25.1,46.5,24.8,46.4,24.4
					c0.1-0.1,0.1-0.2,0-0.3C46.4,24.2,46.4,24.3,46.4,24.4z"/>
			</g>
		</g>
		<path d="M41.1,28.4c-0.1,0.6-0.4,1.2-0.6,1.8c-0.2,0.6-0.4,1.2-0.6,1.8c-0.2,0.6-0.5,1.1-0.8,1.7c-0.3,0.6-0.6,1.3-1,1.8
			c-0.4,0.5-0.8,1-1.2,1.5c-0.5,0.5-0.9,1-1.5,1.4c-0.3,0.2-0.6,0.3-0.9,0.4c-0.6,0.3-1.3,0.4-1.9,0.1c0.1,0,0.1,0.1,0.2,0.1
			c0.5,0.3,1.4,0.1,1.9-0.1c1.3-0.5,2.2-1.6,3.1-2.7c0.5-0.5,0.8-1.1,1.1-1.7c0.3-0.7,0.7-1.4,1-2.1c0.2-0.7,0.5-1.3,0.7-2
			C40.8,29.8,41.1,29.1,41.1,28.4C41.1,28.4,41.1,28.4,41.1,28.4z"/>
		<path d="M60.5,33.5c-0.9-0.3-1.6-0.7-2.3-1.3c-0.7-0.7-1.4-1.4-2.1-2.2c-0.7-0.8-1.2-1.6-1.9-2.3c-0.7-0.7-1.4-1.5-2.1-2.2
			c0,0-0.1,0,0,0c0.7,0.8,1.4,1.6,2.1,2.4c0.4,0.4,0.7,0.8,1.1,1.3c0.3,0.4,0.6,0.8,0.9,1.1C57.4,31.6,58.5,33.2,60.5,33.5
			C60.5,33.5,60.5,33.5,60.5,33.5z"/>
		<circle class="st8" cx="38.5" cy="13.1" r="1.6"/>
		<circle class="st8" cx="47.7" cy="10.9" r="1.6"/>
	</g>
	<path class="st0" d="M137.2,90.5c0,2.4-1.9,4.4-4.2,4.4H80.8h-2.4H26.2c-2.3,0-4.2-2-4.2-4.4V65.1c0-1.4,0.5-2.8,1.3-4L38.7,41
		c-0.1,0,34.1,0.7,40.9,0.9c6.9-0.1,41-0.9,40.9-0.9l8.7,16.1c0,0,3.8,7.6,7.6,4.7"/>
	<g id="XMLID_10633_">
		<path class="st0" d="M102.2,59.8c-1.1-2.2-3.6-3.8-3.6-4.1c0-0.3,0-1.4,0-1.4h-3.4h-3.4c0,0,0,1,0,1.4c0,0.3-2.5,1.9-3.6,4.1
			c-1.1,2.2-1,4.1-1,4.1v32.2c0,0,0.8,4.5,2.9,4.8c0,0,0.5,0.9,2.3,0.9s1.9-0.8,2-1c0.1-0.3,0.5,0,0.8,0s0.8-0.3,0.8,0
			c0.1,0.3,0.2,1,2,1s2.3-0.9,2.3-0.9c2.1-0.3,2.9-4.8,2.9-4.8V64C103.1,64,103.3,62.1,102.2,59.8z"/>
		<rect id="XMLID_10634_" x="90.2" y="65.3" width="10" height="21.5"/>
		<path class="st10" d="M98,50.9L98,50.9h-2.8h-2.8c-0.5,0-0.9,0.4-0.9,0.8v2.7c0,0.5,0.4,0.8,0.9,0.8h2.8H98H98
			c0.5,0,0.8-0.3,0.8-0.7v-0.1v-2.7v-0.1C98.9,51.2,98.5,50.9,98,50.9z"/>
	</g>
	<g>
		<g>
			<path class="st0" d="M49.3,78.1c-2.4-5.7-10.9-7.7-19.1-4.3c-7.4,3.1-12,9.5-10.9,14.9c-1.5,0.8-3.3,1.5-5.5,2
				c-3.9,0.9-5.7,0.4-10.9,3c-4.6,2.4-1.9,7.3,2.5,6c5.5-1.7,6.3-3.8,9.8-5.5c2.2-1.1,4-1.8,5.5-2.2c3.2,4.4,10.8,5.7,18.1,2.7
				C47,91.2,51.7,83.8,49.3,78.1z M4.6,97.5c-0.5,0.2-1.1,0-1.4-0.6c-0.2-0.5,0-1.1,0.6-1.4c0.5-0.2,1.1,0,1.4,0.6
				C5.3,96.7,5.1,97.3,4.6,97.5z"/>
			<path class="st0" d="M37.9,92.4c-6.5,2.7-13.3,1.1-15.1-3.4c-1.9-4.6,1.8-10.4,8.3-13.1c6.5-2.7,13.3-1.1,15.1,3.4
				C48.1,83.9,44.4,89.8,37.9,92.4z"/>
		</g>
		<g>
			<path d="M40.7,87.3c-0.1,0.3-0.4,0.4-0.6,0.3l-11.8-6c-0.2-0.1-0.2-0.4-0.1-0.7l0,0c0.1-0.3,0.4-0.4,0.6-0.3l11.8,6
				C40.8,86.7,40.8,87,40.7,87.3L40.7,87.3z"/>
			<path d="M40.4,85.1c-0.1,0.3-0.4,0.4-0.5,0.4l-9.6-4.9c-0.1-0.1-0.2-0.4,0-0.6l0,0c0.1-0.3,0.4-0.4,0.5-0.4l9.6,4.9
				C40.5,84.6,40.5,84.9,40.4,85.1L40.4,85.1z"/>
			<path d="M38.9,88.6c-0.1,0.3-0.4,0.4-0.5,0.4l-9.6-4.9c-0.1-0.1-0.2-0.4,0-0.6l0,0c0.1-0.3,0.4-0.4,0.5-0.4l9.6,4.9
				C39.1,88,39.1,88.3,38.9,88.6L38.9,88.6z"/>
			<path d="M36.7,89.5c-0.1,0.3-0.3,0.5-0.4,0.4l-6.7-3.4c-0.1-0.1-0.1-0.3,0.1-0.6l0,0c0.1-0.3,0.3-0.5,0.4-0.4l6.7,3.4
				C36.8,88.9,36.8,89.2,36.7,89.5L36.7,89.5z"/>
			<path d="M39.3,82.5c-0.1,0.3-0.3,0.5-0.4,0.4l-6.7-3.4c-0.1-0.1-0.1-0.3,0.1-0.6l0,0c0.1-0.3,0.3-0.5,0.4-0.4l6.7,3.4
				C39.4,82,39.4,82.3,39.3,82.5L39.3,82.5z"/>
		</g>
	</g>
	<g>
		<g>
			<g>
				<g>
					<path d="M71.6,95.5c0,0,0-0.1,0-0.1c0.1-0.1,0.2-0.1,0.3,0c0.1,0,1.7,1.3,1.7,5c0,0.1-0.1,0.2-0.2,0.2c-0.1,0-0.2-0.1-0.2-0.2
						c0-3.5-1.5-4.7-1.6-4.7C71.6,95.6,71.6,95.5,71.6,95.5z"/>
				</g>
				<g>
					<path d="M68.5,95.7c0-0.1,0-0.1,0.1-0.2c0.1-0.1,0.2-0.1,0.3,0c0.1,0.1,2.1,2.4,2.2,6.1c0,0.1-0.1,0.2-0.2,0.2
						c-0.1,0-0.2-0.1-0.2-0.2c0-3.6-2-5.9-2.1-5.9C68.6,95.8,68.5,95.7,68.5,95.7z"/>
				</g>
				<g>
					<path d="M65.5,95.9c0-0.1,0-0.1,0.1-0.2c0.1-0.1,0.2-0.1,0.3,0c0.1,0.1,2.1,2.4,2.2,6.1c0,0.1-0.1,0.2-0.2,0.2
						c-0.1,0-0.2-0.1-0.2-0.2c0-3.6-2-5.9-2.1-5.9C65.5,96,65.5,95.9,65.5,95.9z"/>
				</g>
				<g>
					<path d="M62.5,96.1c0-0.1,0-0.1,0.1-0.2c0.1-0.1,0.2-0.1,0.3,0c0.1,0.1,2.1,2.4,2.2,6.1c0,0.1-0.1,0.2-0.2,0.2
						c-0.1,0-0.2-0.1-0.2-0.2c0-3.6-2-5.9-2.1-5.9C62.5,96.2,62.5,96.2,62.5,96.1z"/>
				</g>
				<g>
					<path d="M59.4,96.3c0-0.1,0-0.1,0.1-0.2c0.1-0.1,0.2-0.1,0.3,0c0.1,0.1,2.1,2.4,2.2,6.1c0,0.1-0.1,0.2-0.2,0.2
						c-0.1,0-0.2-0.1-0.2-0.2c0-3.6-2-5.9-2.1-5.9C59.4,96.4,59.4,96.4,59.4,96.3z"/>
				</g>
				<g>
					<path d="M56.4,96.6c0-0.1,0-0.1,0.1-0.2c0.1-0.1,0.2-0.1,0.3,0c0.1,0.1,2.1,2.4,2.2,6.1c0,0.1-0.1,0.2-0.2,0.2
						c-0.1,0-0.2-0.1-0.2-0.2c0-3.6-2-5.9-2.1-5.9C56.4,96.6,56.4,96.6,56.4,96.6z"/>
				</g>
				<g>
					<path d="M53.3,96.8c0-0.1,0-0.1,0.1-0.2c0.1-0.1,0.2-0.1,0.3,0c0.1,0.1,2.1,2.4,2.2,6.1c0,0.1-0.1,0.2-0.2,0.2
						c-0.1,0-0.2-0.1-0.2-0.2c0-3.6-2-5.9-2.1-5.9C53.4,96.9,53.3,96.8,53.3,96.8z"/>
				</g>
				<g>
					<path d="M50.3,97c0-0.1,0-0.1,0.1-0.2c0.1-0.1,0.2-0.1,0.3,0c0.1,0.1,2.1,2.4,2.2,6.1c0,0.1-0.1,0.2-0.2,0.2
						c-0.1,0-0.2-0.1-0.2-0.2c0-3.6-2-5.9-2.1-5.9C50.3,97.1,50.3,97,50.3,97z"/>
				</g>
				<g>
					<path d="M47.3,97.2c0-0.1,0-0.1,0.1-0.2c0.1-0.1,0.2-0.1,0.3,0c0.1,0.1,2.1,2.4,2.2,6.1c0,0.1-0.1,0.2-0.2,0.2
						c-0.1,0-0.2-0.1-0.2-0.2c0-3.6-2-5.9-2.1-5.9C47.3,97.3,47.3,97.3,47.3,97.2z"/>
				</g>
				<g>
					<path d="M44.2,97.4c0-0.1,0-0.1,0.1-0.2c0.1-0.1,0.2-0.1,0.3,0c0.1,0.1,2.1,2.4,2.2,6.1c0,0.1-0.1,0.2-0.2,0.2
						c-0.1,0-0.2-0.1-0.2-0.2c0-3.6-2-5.9-2.1-5.9C44.2,97.5,44.2,97.5,44.2,97.4z"/>
				</g>
			</g>
			<g>
				<g>
					<path d="M42.5,102c-0.2-3.3,1.4-4.6,1.4-4.6c0.1-0.1,0.2-0.1,0.3,0c0.1,0.1,0.1,0.2,0,0.3c0,0-1.7,1.4-1.2,4.9
						c0,0.1-0.1,0.2-0.2,0.2c-0.1,0-0.2-0.1-0.2-0.2C42.6,102.3,42.5,102.1,42.5,102z"/>
				</g>
				<g>
					<path d="M45.3,103c-0.2-3.4,1.6-5.8,1.7-5.9c0.1-0.1,0.2-0.1,0.3,0c0.1,0.1,0.1,0.2,0,0.3c0,0-2,2.6-1.6,6.1
						c0,0.1-0.1,0.2-0.2,0.2c-0.1,0-0.2-0.1-0.2-0.2C45.3,103.4,45.3,103.2,45.3,103z"/>
				</g>
				<g>
					<path d="M48.3,102.8c-0.2-3.4,1.6-5.8,1.7-5.9c0.1-0.1,0.2-0.1,0.3,0c0.1,0.1,0.1,0.2,0,0.3c0,0-2,2.6-1.6,6.1
						c0,0.1-0.1,0.2-0.2,0.2c-0.1,0-0.2-0.1-0.2-0.2C48.3,103.1,48.3,103,48.3,102.8z"/>
				</g>
				<g>
					<path d="M51.4,102.6c-0.2-3.4,1.6-5.8,1.7-5.9c0.1-0.1,0.2-0.1,0.3,0c0.1,0.1,0.1,0.2,0,0.3c0,0-2,2.6-1.6,6.1
						c0,0.1-0.1,0.2-0.2,0.2c-0.1,0-0.2-0.1-0.2-0.2C51.4,102.9,51.4,102.7,51.4,102.6z"/>
				</g>
				<g>
					<path d="M54.4,102.3c-0.2-3.4,1.6-5.8,1.7-5.9c0.1-0.1,0.2-0.1,0.3,0c0.1,0.1,0.1,0.2,0,0.3c0,0-2,2.6-1.6,6.1
						c0,0.1-0.1,0.2-0.2,0.2c-0.1,0-0.2-0.1-0.2-0.2C54.4,102.7,54.4,102.5,54.4,102.3z"/>
				</g>
				<g>
					<path d="M57.4,102.1c-0.2-3.4,1.6-5.8,1.7-5.9c0.1-0.1,0.2-0.1,0.3,0c0.1,0.1,0.1,0.2,0,0.3c0,0-2,2.6-1.6,6.1
						c0,0.1-0.1,0.2-0.2,0.2c-0.1,0-0.2-0.1-0.2-0.2C57.5,102.5,57.4,102.3,57.4,102.1z"/>
				</g>
				<g>
					<path d="M60.5,101.9c-0.2-3.4,1.6-5.8,1.7-5.9c0.1-0.1,0.2-0.1,0.3,0c0.1,0.1,0.1,0.2,0,0.3c0,0-2,2.6-1.6,6.1
						c0,0.1-0.1,0.2-0.2,0.2c-0.1,0-0.2-0.1-0.2-0.2C60.5,102.3,60.5,102.1,60.5,101.9z"/>
				</g>
				<g>
					<path d="M63.5,101.7c-0.2-3.4,1.6-5.8,1.7-5.9c0.1-0.1,0.2-0.1,0.3,0c0.1,0.1,0.1,0.2,0,0.3c0,0-2,2.6-1.6,6.1
						c0,0.1-0.1,0.2-0.2,0.2c-0.1,0-0.2-0.1-0.2-0.2C63.5,102,63.5,101.9,63.5,101.7z"/>
				</g>
				<g>
					<path d="M66.6,101.5c-0.2-3.4,1.6-5.8,1.7-5.9c0.1-0.1,0.2-0.1,0.3,0c0.1,0.1,0.1,0.2,0,0.3c0,0-2,2.6-1.6,6.1
						c0,0.1-0.1,0.2-0.2,0.2c-0.1,0-0.2-0.1-0.2-0.2C66.6,101.8,66.6,101.6,66.6,101.5z"/>
				</g>
				<g>
					<path d="M69.6,101.2c-0.2-3.4,1.6-5.8,1.7-5.9c0.1-0.1,0.2-0.1,0.3,0c0.1,0.1,0.1,0.2,0,0.3c0,0-2,2.6-1.6,6.1
						c0,0.1-0.1,0.2-0.2,0.2c-0.1,0-0.2-0.1-0.2-0.2C69.6,101.6,69.6,101.4,69.6,101.2z"/>
				</g>
			</g>
		</g>
		<g>
			<path d="M41.8,98.3l29.4-2.1c2.4-0.2,4.2-2.3,4-4.7c-0.2-2.4-2.3-4.2-4.7-4l-29.4,2.1L41.8,98.3z"/>
		</g>
		<g>
			<g>
				<g>
					<path d="M71.5,95.5c0,0.2,0.2,0.3,0.3,0.3c0.2,0,0.3-0.2,0.3-0.3c0-0.2-0.2-0.3-0.3-0.3C71.6,95.2,71.4,95.3,71.5,95.5z"/>
				</g>
				<g>
					<path d="M69.1,95.6c0-0.2-0.2-0.3-0.3-0.3c-0.2,0-0.3,0.2-0.3,0.3c0,0.2,0.2,0.3,0.3,0.3C68.9,95.9,69.1,95.8,69.1,95.6z"/>
				</g>
				<g>
					<path d="M66,95.9c0-0.2-0.2-0.3-0.3-0.3c-0.2,0-0.3,0.2-0.3,0.3c0,0.2,0.2,0.3,0.3,0.3C65.9,96.2,66,96,66,95.9z"/>
				</g>
				<g>
					<path d="M63,96.1c0-0.2-0.2-0.3-0.3-0.3c-0.2,0-0.3,0.2-0.3,0.3c0,0.2,0.2,0.3,0.3,0.3C62.9,96.4,63,96.2,63,96.1z"/>
				</g>
				<g>
					<path d="M59.9,96.3c0-0.2-0.2-0.3-0.3-0.3c-0.2,0-0.3,0.2-0.3,0.3c0,0.2,0.2,0.3,0.3,0.3C59.8,96.6,60,96.5,59.9,96.3z"/>
				</g>
				<g>
					<path d="M56.9,96.5c0-0.2-0.2-0.3-0.3-0.3c-0.2,0-0.3,0.2-0.3,0.3c0,0.2,0.2,0.3,0.3,0.3C56.8,96.8,56.9,96.7,56.9,96.5z"/>
				</g>
				<g>
					<path d="M53.9,96.7c0-0.2-0.2-0.3-0.3-0.3c-0.2,0-0.3,0.2-0.3,0.3c0,0.2,0.2,0.3,0.3,0.3C53.7,97.1,53.9,96.9,53.9,96.7z"/>
				</g>
				<g>
					<path d="M50.8,97c0-0.2-0.2-0.3-0.3-0.3c-0.2,0-0.3,0.2-0.3,0.3c0,0.2,0.2,0.3,0.3,0.3C50.7,97.3,50.8,97.1,50.8,97z"/>
				</g>
				<g>
					<path d="M47.8,97.2c0-0.2-0.2-0.3-0.3-0.3c-0.2,0-0.3,0.2-0.3,0.3c0,0.2,0.2,0.3,0.3,0.3C47.7,97.5,47.8,97.4,47.8,97.2z"/>
				</g>
				<g>
					<path d="M44.7,97.4c0-0.2-0.2-0.3-0.3-0.3c-0.2,0-0.3,0.2-0.3,0.3c0,0.2,0.2,0.3,0.3,0.3C44.6,97.7,44.7,97.6,44.7,97.4z"/>
				</g>
			</g>
			<g>
				<g>
					<path d="M72.7,94.7c0,0.2,0.2,0.3,0.3,0.3c0.2,0,0.3-0.2,0.3-0.3c0-0.2-0.2-0.3-0.3-0.3C72.9,94.4,72.7,94.5,72.7,94.7z"/>
				</g>
				<g>
					<path d="M70.3,94.9c0-0.2-0.2-0.3-0.3-0.3c-0.2,0-0.3,0.2-0.3,0.3c0,0.2,0.2,0.3,0.3,0.3C70.2,95.2,70.4,95,70.3,94.9z"/>
				</g>
				<g>
					<path d="M67.3,95.1c0-0.2-0.2-0.3-0.3-0.3c-0.2,0-0.3,0.2-0.3,0.3c0,0.2,0.2,0.3,0.3,0.3C67.2,95.4,67.3,95.3,67.3,95.1z"/>
				</g>
				<g>
					<path d="M64.3,95.3c0-0.2-0.2-0.3-0.3-0.3c-0.2,0-0.3,0.2-0.3,0.3c0,0.2,0.2,0.3,0.3,0.3C64.1,95.6,64.3,95.5,64.3,95.3z"/>
				</g>
				<g>
					<path d="M61.2,95.5c0-0.2-0.2-0.3-0.3-0.3c-0.2,0-0.3,0.2-0.3,0.3c0,0.2,0.2,0.3,0.3,0.3C61.1,95.8,61.2,95.7,61.2,95.5z"/>
				</g>
				<g>
					<path d="M58.2,95.7c0-0.2-0.2-0.3-0.3-0.3c-0.2,0-0.3,0.2-0.3,0.3c0,0.2,0.2,0.3,0.3,0.3C58.1,96.1,58.2,95.9,58.2,95.7z"/>
				</g>
				<g>
					<path d="M55.1,96c0-0.2-0.2-0.3-0.3-0.3c-0.2,0-0.3,0.2-0.3,0.3c0,0.2,0.2,0.3,0.3,0.3C55,96.3,55.2,96.1,55.1,96z"/>
				</g>
				<g>
					<path d="M52.1,96.2c0-0.2-0.2-0.3-0.3-0.3c-0.2,0-0.3,0.2-0.3,0.3c0,0.2,0.2,0.3,0.3,0.3C52,96.5,52.1,96.4,52.1,96.2z"/>
				</g>
				<g>
					<path d="M49.1,96.4c0-0.2-0.2-0.3-0.3-0.3c-0.2,0-0.3,0.2-0.3,0.3c0,0.2,0.2,0.3,0.3,0.3C48.9,96.7,49.1,96.6,49.1,96.4z"/>
				</g>
				<g>
					<path d="M46,96.6c0-0.2-0.2-0.3-0.3-0.3c-0.2,0-0.3,0.2-0.3,0.3c0,0.2,0.2,0.3,0.3,0.3C45.9,96.9,46,96.8,46,96.6z"/>
				</g>
				<g>
					<path d="M43,96.9c0-0.2-0.2-0.3-0.3-0.3c-0.2,0-0.3,0.2-0.3,0.3c0,0.2,0.2,0.3,0.3,0.3C42.9,97.2,43,97,43,96.9z"/>
				</g>
			</g>
			<g>
				<g>
					<path d="M74.2,93.5c0,0.2,0.2,0.3,0.3,0.3c0.2,0,0.3-0.2,0.3-0.3c0-0.2-0.2-0.3-0.3-0.3C74.3,93.2,74.2,93.4,74.2,93.5z"/>
				</g>
				<g>
					<path d="M71.8,93.7c0-0.2-0.2-0.3-0.3-0.3c-0.2,0-0.3,0.2-0.3,0.3c0,0.2,0.2,0.3,0.3,0.3C71.7,94,71.8,93.9,71.8,93.7z"/>
				</g>
				<g>
					<path d="M68.8,93.9c0-0.2-0.2-0.3-0.3-0.3c-0.2,0-0.3,0.2-0.3,0.3c0,0.2,0.2,0.3,0.3,0.3C68.6,94.2,68.8,94.1,68.8,93.9z"/>
				</g>
				<g>
					<path d="M65.7,94.2c0-0.2-0.2-0.3-0.3-0.3c-0.2,0-0.3,0.2-0.3,0.3c0,0.2,0.2,0.3,0.3,0.3C65.6,94.5,65.7,94.3,65.7,94.2z"/>
				</g>
				<g>
					<path d="M62.7,94.4c0-0.2-0.2-0.3-0.3-0.3c-0.2,0-0.3,0.2-0.3,0.3c0,0.2,0.2,0.3,0.3,0.3C62.6,94.7,62.7,94.5,62.7,94.4z"/>
				</g>
				<g>
					<path d="M59.6,94.6c0-0.2-0.2-0.3-0.3-0.3c-0.2,0-0.3,0.2-0.3,0.3c0,0.2,0.2,0.3,0.3,0.3C59.5,94.9,59.7,94.8,59.6,94.6z"/>
				</g>
				<g>
					<path d="M56.6,94.8c0-0.2-0.2-0.3-0.3-0.3c-0.2,0-0.3,0.2-0.3,0.3c0,0.2,0.2,0.3,0.3,0.3C56.5,95.1,56.6,95,56.6,94.8z"/>
				</g>
				<g>
					<path d="M53.6,95c0-0.2-0.2-0.3-0.3-0.3c-0.2,0-0.3,0.2-0.3,0.3c0,0.2,0.2,0.3,0.3,0.3C53.4,95.3,53.6,95.2,53.6,95z"/>
				</g>
				<g>
					<path d="M50.5,95.3c0-0.2-0.2-0.3-0.3-0.3c-0.2,0-0.3,0.2-0.3,0.3c0,0.2,0.2,0.3,0.3,0.3C50.4,95.6,50.5,95.4,50.5,95.3z"/>
				</g>
				<g>
					<path d="M47.5,95.5c0-0.2-0.2-0.3-0.3-0.3c-0.2,0-0.3,0.2-0.3,0.3c0,0.2,0.2,0.3,0.3,0.3C47.4,95.8,47.5,95.6,47.5,95.5z"/>
				</g>
				<g>
					<path d="M44.4,95.7c0-0.2-0.2-0.3-0.3-0.3c-0.2,0-0.3,0.2-0.3,0.3c0,0.2,0.2,0.3,0.3,0.3C44.3,96,44.5,95.9,44.4,95.7z"/>
				</g>
			</g>
			<g>
				<g>
					<path d="M72.6,92.7c0,0.2,0.2,0.3,0.3,0.3c0.2,0,0.3-0.2,0.3-0.3c0-0.2-0.2-0.3-0.3-0.3C72.7,92.4,72.6,92.5,72.6,92.7z"/>
				</g>
				<g>
					<path d="M70.2,92.8c0-0.2-0.2-0.3-0.3-0.3c-0.2,0-0.3,0.2-0.3,0.3c0,0.2,0.2,0.3,0.3,0.3C70.1,93.1,70.2,93,70.2,92.8z"/>
				</g>
				<g>
					<path d="M67.2,93.1c0-0.2-0.2-0.3-0.3-0.3c-0.2,0-0.3,0.2-0.3,0.3c0,0.2,0.2,0.3,0.3,0.3C67,93.4,67.2,93.2,67.2,93.1z"/>
				</g>
				<g>
					<path d="M64.1,93.3c0-0.2-0.2-0.3-0.3-0.3c-0.2,0-0.3,0.2-0.3,0.3c0,0.2,0.2,0.3,0.3,0.3C64,93.6,64.1,93.4,64.1,93.3z"/>
				</g>
				<g>
					<path d="M61.1,93.5c0-0.2-0.2-0.3-0.3-0.3c-0.2,0-0.3,0.2-0.3,0.3c0,0.2,0.2,0.3,0.3,0.3C61,93.8,61.1,93.7,61.1,93.5z"/>
				</g>
				<g>
					<path d="M58,93.7c0-0.2-0.2-0.3-0.3-0.3c-0.2,0-0.3,0.2-0.3,0.3c0,0.2,0.2,0.3,0.3,0.3C57.9,94,58.1,93.9,58,93.7z"/>
				</g>
				<g>
					<path d="M55,93.9c0-0.2-0.2-0.3-0.3-0.3c-0.2,0-0.3,0.2-0.3,0.3c0,0.2,0.2,0.3,0.3,0.3C54.9,94.3,55,94.1,55,93.9z"/>
				</g>
				<g>
					<path d="M52,94.2c0-0.2-0.2-0.3-0.3-0.3c-0.2,0-0.3,0.2-0.3,0.3c0,0.2,0.2,0.3,0.3,0.3C51.8,94.5,52,94.3,52,94.2z"/>
				</g>
				<g>
					<path d="M48.9,94.4c0-0.2-0.2-0.3-0.3-0.3c-0.2,0-0.3,0.2-0.3,0.3c0,0.2,0.2,0.3,0.3,0.3C48.8,94.7,48.9,94.5,48.9,94.4z"/>
				</g>
				<g>
					<path d="M45.9,94.6c0-0.2-0.2-0.3-0.3-0.3c-0.2,0-0.3,0.2-0.3,0.3c0,0.2,0.2,0.3,0.3,0.3C45.8,94.9,45.9,94.8,45.9,94.6z"/>
				</g>
				<g>
					<path d="M42.8,94.8c0-0.2-0.2-0.3-0.3-0.3c-0.2,0-0.3,0.2-0.3,0.3c0,0.2,0.2,0.3,0.3,0.3C42.7,95.1,42.9,95,42.8,94.8z"/>
				</g>
			</g>
			<g>
				<g>
					<path d="M74.1,91.6c0,0.2,0.2,0.3,0.3,0.3c0.2,0,0.3-0.2,0.3-0.3c0-0.2-0.2-0.3-0.3-0.3C74.2,91.3,74,91.4,74.1,91.6z"/>
				</g>
				<g>
					<path d="M71.7,91.7c0-0.2-0.2-0.3-0.3-0.3c-0.2,0-0.3,0.2-0.3,0.3c0,0.2,0.2,0.3,0.3,0.3C71.5,92.1,71.7,91.9,71.7,91.7z"/>
				</g>
				<g>
					<path d="M68.6,92c0-0.2-0.2-0.3-0.3-0.3c-0.2,0-0.3,0.2-0.3,0.3c0,0.2,0.2,0.3,0.3,0.3C68.5,92.3,68.6,92.1,68.6,92z"/>
				</g>
				<g>
					<path d="M65.6,92.2c0-0.2-0.2-0.3-0.3-0.3c-0.2,0-0.3,0.2-0.3,0.3c0,0.2,0.2,0.3,0.3,0.3C65.5,92.5,65.6,92.3,65.6,92.2z"/>
				</g>
				<g>
					<path d="M62.5,92.4c0-0.2-0.2-0.3-0.3-0.3c-0.2,0-0.3,0.2-0.3,0.3c0,0.2,0.2,0.3,0.3,0.3C62.4,92.7,62.6,92.6,62.5,92.4z"/>
				</g>
				<g>
					<path d="M59.5,92.6c0-0.2-0.2-0.3-0.3-0.3c-0.2,0-0.3,0.2-0.3,0.3c0,0.2,0.2,0.3,0.3,0.3C59.4,92.9,59.5,92.8,59.5,92.6z"/>
				</g>
				<g>
					<path d="M56.5,92.8c0-0.2-0.2-0.3-0.3-0.3c-0.2,0-0.3,0.2-0.3,0.3c0,0.2,0.2,0.3,0.3,0.3C56.3,93.2,56.5,93,56.5,92.8z"/>
				</g>
				<g>
					<path d="M53.4,93.1c0-0.2-0.2-0.3-0.3-0.3c-0.2,0-0.3,0.2-0.3,0.3c0,0.2,0.2,0.3,0.3,0.3C53.3,93.4,53.4,93.2,53.4,93.1z"/>
				</g>
				<g>
					<path d="M50.4,93.3c0-0.2-0.2-0.3-0.3-0.3c-0.2,0-0.3,0.2-0.3,0.3c0,0.2,0.2,0.3,0.3,0.3C50.3,93.6,50.4,93.5,50.4,93.3z"/>
				</g>
				<g>
					<path d="M47.3,93.5c0-0.2-0.2-0.3-0.3-0.3c-0.2,0-0.3,0.2-0.3,0.3c0,0.2,0.2,0.3,0.3,0.3C47.2,93.8,47.3,93.7,47.3,93.5z"/>
				</g>
				<g>
					<path d="M44.3,93.7c0-0.2-0.2-0.3-0.3-0.3c-0.2,0-0.3,0.2-0.3,0.3c0,0.2,0.2,0.3,0.3,0.3C44.2,94,44.3,93.9,44.3,93.7z"/>
				</g>
			</g>
		</g>
		<g>
			
				<rect x="37.9" y="92.2" transform="matrix(0.9974 -7.252173e-02 7.252173e-02 0.9974 -6.7142 3.1249)" width="3.5" height="3.6"/>
		</g>
		<g>
			<path d="M16.2,99.3c-0.9,0.1-1.7-0.6-1.8-1.6l-0.3-3.6c-0.1-0.9,0.6-1.7,1.6-1.8l20.9-1.5c0.9-0.1,1.7,0.6,1.8,1.6l0.3,3.6
				c0.1,0.9-0.6,1.8-1.6,1.8L16.2,99.3z"/>
		</g>
		<g>
			<g>
				<g>
					<path d="M72.9,94.7C72.9,94.7,72.9,94.6,72.9,94.7c0.1-0.2,0.2-0.2,0.3-0.2c0.1,0,2.1,0.8,2.1,4.6c0,0.1-0.1,0.2-0.2,0.2
						c-0.1,0-0.2-0.1-0.2-0.2c0-3.5-1.8-4.3-1.9-4.3C72.9,94.8,72.9,94.8,72.9,94.7z"/>
				</g>
				<g>
					<path d="M69.8,94.9c0,0,0-0.1,0-0.1c0.1-0.1,0.2-0.1,0.3,0c0.1,0.1,2.5,2,2.5,5.7c0,0.1-0.1,0.2-0.2,0.2
						c-0.1,0-0.2-0.1-0.2-0.2c0-3.6-2.4-5.4-2.4-5.4C69.9,95,69.8,95,69.8,94.9z"/>
				</g>
				<g>
					<path d="M66.8,95.1c0,0,0-0.1,0-0.1c0.1-0.1,0.2-0.1,0.3,0c0.1,0.1,2.5,2,2.5,5.7c0,0.1-0.1,0.2-0.2,0.2
						c-0.1,0-0.2-0.1-0.2-0.2c0-3.6-2.4-5.4-2.4-5.4C66.8,95.2,66.8,95.2,66.8,95.1z"/>
				</g>
				<g>
					<path d="M63.7,95.3c0,0,0-0.1,0-0.1c0.1-0.1,0.2-0.1,0.3,0c0.1,0.1,2.5,2,2.5,5.7c0,0.1-0.1,0.2-0.2,0.2
						c-0.1,0-0.2-0.1-0.2-0.2c-0.1-3.6-2.4-5.4-2.4-5.4C63.8,95.4,63.8,95.4,63.7,95.3z"/>
				</g>
				<g>
					<path d="M60.7,95.6c0,0,0-0.1,0-0.1c0.1-0.1,0.2-0.1,0.3,0c0.1,0.1,2.5,2,2.5,5.7c0,0.1-0.1,0.2-0.2,0.2
						c-0.1,0-0.2-0.1-0.2-0.2c0-3.6-2.4-5.4-2.4-5.4C60.7,95.7,60.7,95.6,60.7,95.6z"/>
				</g>
				<g>
					<path d="M57.7,95.8c0,0,0-0.1,0-0.1c0.1-0.1,0.2-0.1,0.3,0c0.1,0.1,2.5,2,2.5,5.7c0,0.1-0.1,0.2-0.2,0.2
						c-0.1,0-0.2-0.1-0.2-0.2c0-3.6-2.4-5.4-2.4-5.4C57.7,95.9,57.7,95.8,57.7,95.8z"/>
				</g>
				<g>
					<path d="M54.6,96c0,0,0-0.1,0-0.1c0.1-0.1,0.2-0.1,0.3,0c0.1,0.1,2.5,2,2.5,5.7c0,0.1-0.1,0.2-0.2,0.2c-0.1,0-0.2-0.1-0.2-0.2
						c0-3.6-2.4-5.4-2.4-5.4C54.7,96.1,54.6,96.1,54.6,96z"/>
				</g>
				<g>
					<path d="M51.6,96.2c0,0,0-0.1,0-0.1c0.1-0.1,0.2-0.1,0.3,0c0.1,0.1,2.5,2,2.5,5.7c0,0.1-0.1,0.2-0.2,0.2
						c-0.1,0-0.2-0.1-0.2-0.2c0-3.6-2.4-5.4-2.4-5.4C51.6,96.3,51.6,96.3,51.6,96.2z"/>
				</g>
				<g>
					<path d="M48.5,96.4c0,0,0-0.1,0-0.1c0.1-0.1,0.2-0.1,0.3,0c0.1,0.1,2.5,2,2.5,5.7c0,0.1-0.1,0.2-0.2,0.2
						c-0.1,0-0.2-0.1-0.2-0.2c0-3.6-2.4-5.4-2.4-5.4C48.6,96.6,48.6,96.5,48.5,96.4z"/>
				</g>
				<g>
					<path d="M45.5,96.7c0,0,0-0.1,0-0.1c0.1-0.1,0.2-0.1,0.3,0c0.1,0.1,2.5,2,2.5,5.7c0,0.1-0.1,0.2-0.2,0.2
						c-0.1,0-0.2-0.1-0.2-0.2c0-3.6-2.4-5.4-2.4-5.4C45.5,96.8,45.5,96.7,45.5,96.7z"/>
				</g>
				<g>
					<path d="M42.5,96.9c0,0,0-0.1,0-0.1c0.1-0.1,0.2-0.1,0.3,0c0.1,0.1,2.5,2,2.5,5.7c0,0.1-0.1,0.2-0.2,0.2
						c-0.1,0-0.2-0.1-0.2-0.2c0-3.6-2.4-5.4-2.4-5.4C42.5,97,42.5,96.9,42.5,96.9z"/>
				</g>
			</g>
			<g>
				<g>
					<path d="M42.5,96.9c0-0.1,0-0.1,0.1-0.1c0.1-0.1,0.2-0.1,0.3,0c0,0,1,0.9,1.5,4.6c0,0.1-0.1,0.2-0.2,0.2
						c-0.1,0-0.2-0.1-0.2-0.2c-0.5-3.5-1.3-4.4-1.3-4.4C42.5,97,42.5,96.9,42.5,96.9z"/>
				</g>
				<g>
					<path d="M45.5,96.7c0-0.1,0-0.2,0.1-0.2c0.1,0,0.2,0,0.2,0.1c0,0,0.6,2.1,1.1,5.7c0,0.1-0.1,0.2-0.2,0.2
						c-0.1,0-0.2-0.1-0.2-0.2C46.1,98.8,45.5,96.7,45.5,96.7C45.5,96.7,45.5,96.7,45.5,96.7z"/>
				</g>
				<g>
					<path d="M48.6,96.4c0-0.1,0-0.2,0.1-0.2c0.1,0,0.2,0,0.2,0.1c0,0,0.6,2.1,1.1,5.7c0,0.1-0.1,0.2-0.2,0.2
						c-0.1,0-0.2-0.1-0.2-0.2C49.2,98.5,48.6,96.5,48.6,96.4C48.6,96.5,48.6,96.5,48.6,96.4z"/>
				</g>
				<g>
					<path d="M51.6,96.2c0-0.1,0-0.2,0.1-0.2c0.1,0,0.2,0,0.2,0.1c0,0,0.6,2.1,1.1,5.7c0,0.1-0.1,0.2-0.2,0.2
						c-0.1,0-0.2-0.1-0.2-0.2C52.2,98.3,51.6,96.3,51.6,96.2C51.6,96.3,51.6,96.2,51.6,96.2z"/>
				</g>
				<g>
					<path d="M54.6,96c0-0.1,0-0.2,0.1-0.2c0.1,0,0.2,0,0.2,0.1c0,0,0.6,2.1,1.1,5.7c0,0.1-0.1,0.2-0.2,0.2c-0.1,0-0.2-0.1-0.2-0.2
						C55.2,98.1,54.6,96.1,54.6,96C54.6,96,54.6,96,54.6,96z"/>
				</g>
				<g>
					<path d="M57.7,95.8c0-0.1,0-0.2,0.1-0.2c0.1,0,0.2,0,0.2,0.1c0,0,0.6,2.1,1.1,5.7c0,0.1-0.1,0.2-0.2,0.2
						c-0.1,0-0.2-0.1-0.2-0.2C58.3,97.9,57.7,95.8,57.7,95.8C57.7,95.8,57.7,95.8,57.7,95.8z"/>
				</g>
				<g>
					<path d="M60.7,95.6c0-0.1,0-0.2,0.1-0.2c0.1,0,0.2,0,0.2,0.1c0,0,0.6,2.1,1.1,5.7c0,0.1-0.1,0.2-0.2,0.2
						c-0.1,0-0.2-0.1-0.2-0.2C61.3,97.7,60.7,95.6,60.7,95.6C60.7,95.6,60.7,95.6,60.7,95.6z"/>
				</g>
				<g>
					<path d="M63.8,95.3c0-0.1,0-0.2,0.1-0.2c0.1,0,0.2,0,0.2,0.1c0,0,0.6,2.1,1.1,5.7c0,0.1-0.1,0.2-0.2,0.2
						c-0.1,0-0.2-0.1-0.2-0.2C64.4,97.4,63.8,95.4,63.8,95.3C63.8,95.4,63.8,95.4,63.8,95.3z"/>
				</g>
				<g>
					<path d="M66.8,95.1c0-0.1,0-0.2,0.1-0.2c0.1,0,0.2,0,0.2,0.1c0,0,0.6,2.1,1.1,5.7c0,0.1-0.1,0.2-0.2,0.2
						c-0.1,0-0.2-0.1-0.2-0.2C67.4,97.2,66.8,95.2,66.8,95.1C66.8,95.2,66.8,95.1,66.8,95.1z"/>
				</g>
				<g>
					<path d="M69.8,94.9c0-0.1,0-0.2,0.1-0.2c0.1,0,0.2,0,0.2,0.1c0,0,0.6,2.1,1.1,5.7c0,0.1-0.1,0.2-0.2,0.2
						c-0.1,0-0.2-0.1-0.2-0.2C70.4,97,69.8,95,69.8,94.9C69.8,94.9,69.8,94.9,69.8,94.9z"/>
				</g>
				<g>
					<path d="M72.9,94.7c0-0.1,0-0.2,0.1-0.2c0.1,0,0.2,0,0.2,0.1c0,0,0.6,2.1,1.1,5.7c0,0.1-0.1,0.2-0.2,0.2
						c-0.1,0-0.2-0.1-0.2-0.2C73.5,96.8,72.9,94.7,72.9,94.7C72.9,94.7,72.9,94.7,72.9,94.7z"/>
				</g>
			</g>
		</g>
		<g>
			<g>
				<g>
					<path d="M74.3,93.5C74.3,93.5,74.3,93.5,74.3,93.5c0-0.1,0.1-0.2,0.2-0.2c0.1,0,1.7,0.1,1.7,3.4c0,0.1-0.1,0.2-0.2,0.2
						c-0.1,0-0.2-0.1-0.2-0.2c0-2.9-1.3-3-1.3-3C74.4,93.7,74.3,93.6,74.3,93.5z"/>
				</g>
				<g>
					<path d="M71.2,93.8c0,0,0-0.1,0-0.1c0.1-0.1,0.2-0.1,0.3,0c0.1,0.1,2.5,2,2.5,5.2c0,0.1-0.1,0.2-0.2,0.2
						c-0.1,0-0.2-0.1-0.2-0.2c0-3-2.3-4.9-2.4-4.9C71.3,93.9,71.2,93.8,71.2,93.8z"/>
				</g>
				<g>
					<path d="M68.2,94c0,0,0-0.1,0-0.1c0.1-0.1,0.2-0.1,0.3,0c0.1,0.1,2.5,2,2.5,5.2c0,0.1-0.1,0.2-0.2,0.2c-0.1,0-0.2-0.1-0.2-0.2
						c0-3-2.3-4.9-2.4-4.9C68.2,94.1,68.2,94,68.2,94z"/>
				</g>
				<g>
					<path d="M65.2,94.2c0,0,0-0.1,0-0.1c0.1-0.1,0.2-0.1,0.3,0c0.1,0.1,2.5,2,2.5,5.2c0,0.1-0.1,0.2-0.2,0.2
						c-0.1,0-0.2-0.1-0.2-0.2c0-3-2.3-4.9-2.4-4.9C65.2,94.3,65.2,94.2,65.2,94.2z"/>
				</g>
				<g>
					<path d="M62.1,94.4c0,0,0-0.1,0-0.1c0.1-0.1,0.2-0.1,0.3,0c0.1,0.1,2.5,2,2.5,5.2c0,0.1-0.1,0.2-0.2,0.2
						c-0.1,0-0.2-0.1-0.2-0.2c0-3-2.3-4.9-2.4-4.9C62.2,94.5,62.1,94.5,62.1,94.4z"/>
				</g>
				<g>
					<path d="M59.1,94.6c0,0,0-0.1,0-0.1c0.1-0.1,0.2-0.1,0.3,0c0.1,0.1,2.5,2,2.5,5.2c0,0.1-0.1,0.2-0.2,0.2
						c-0.1,0-0.2-0.1-0.2-0.2c0-3-2.3-4.9-2.4-4.9C59.1,94.7,59.1,94.7,59.1,94.6z"/>
				</g>
				<g>
					<path d="M56,94.9c0,0,0-0.1,0-0.1c0.1-0.1,0.2-0.1,0.3,0c0.1,0.1,2.5,2,2.5,5.2c0,0.1-0.1,0.2-0.2,0.2c-0.1,0-0.2-0.1-0.2-0.2
						c0-3-2.3-4.9-2.4-4.9C56.1,95,56,94.9,56,94.9z"/>
				</g>
				<g>
					<path d="M53,95.1c0,0,0-0.1,0-0.1c0.1-0.1,0.2-0.1,0.3,0c0.1,0.1,2.5,2,2.5,5.2c0,0.1-0.1,0.2-0.2,0.2c-0.1,0-0.2-0.1-0.2-0.2
						c0-3-2.3-4.9-2.4-4.9C53,95.2,53,95.1,53,95.1z"/>
				</g>
				<g>
					<path d="M50,95.3c0,0,0-0.1,0-0.1c0.1-0.1,0.2-0.1,0.3,0c0.1,0.1,2.5,2,2.5,5.2c0,0.1-0.1,0.2-0.2,0.2c-0.1,0-0.2-0.1-0.2-0.2
						c0-3-2.3-4.9-2.4-4.9C50,95.4,50,95.4,50,95.3z"/>
				</g>
				<g>
					<path d="M46.9,95.5c0,0,0-0.1,0-0.1c0.1-0.1,0.2-0.1,0.3,0c0.1,0.1,2.5,2,2.5,5.2c0,0.1-0.1,0.2-0.2,0.2
						c-0.1,0-0.2-0.1-0.2-0.2c0-3-2.3-4.9-2.4-4.9C46.9,95.6,46.9,95.6,46.9,95.5z"/>
				</g>
				<g>
					<path d="M43.9,95.7c0,0,0-0.1,0-0.1c0.1-0.1,0.2-0.1,0.3,0c0.1,0.1,2.5,2,2.5,5.2c0,0.1-0.1,0.2-0.2,0.2
						c-0.1,0-0.2-0.1-0.2-0.2c0-3-2.3-4.9-2.4-4.9C43.9,95.8,43.9,95.8,43.9,95.7z"/>
				</g>
			</g>
			<g>
				<g>
					<path d="M42.8,98.5c-0.2-2.7,1.2-3,1.3-3c0.1,0,0.2,0.1,0.2,0.2c0,0.1-0.1,0.2-0.2,0.2c0,0-1.3,0.3-0.9,3.2
						c0,0.1-0.1,0.2-0.2,0.2c-0.1,0-0.2-0.1-0.2-0.2C42.8,98.9,42.8,98.7,42.8,98.5z"/>
				</g>
				<g>
					<path d="M45.2,100.5c-0.2-3,1.7-5,1.8-5.1c0.1-0.1,0.2-0.1,0.3,0c0.1,0.1,0.1,0.2,0,0.3c0,0-2,2.2-1.6,5.2
						c0,0.1-0.1,0.2-0.2,0.2c-0.1,0-0.2-0.1-0.2-0.2C45.3,100.8,45.2,100.6,45.2,100.5z"/>
				</g>
				<g>
					<path d="M48.3,100.2c-0.2-3,1.7-5,1.8-5.1c0.1-0.1,0.2-0.1,0.3,0c0.1,0.1,0.1,0.2,0,0.3c0,0-2,2.2-1.6,5.2
						c0,0.1-0.1,0.2-0.2,0.2c-0.1,0-0.2-0.1-0.2-0.2C48.3,100.5,48.3,100.4,48.3,100.2z"/>
				</g>
				<g>
					<path d="M51.3,100c-0.2-3,1.7-5,1.8-5.1c0.1-0.1,0.2-0.1,0.3,0c0.1,0.1,0.1,0.2,0,0.3c0,0-2,2.2-1.6,5.2c0,0.1-0.1,0.2-0.2,0.2
						c-0.1,0-0.2-0.1-0.2-0.2C51.3,100.3,51.3,100.2,51.3,100z"/>
				</g>
				<g>
					<path d="M54.4,99.8c-0.2-3,1.7-5,1.8-5.1c0.1-0.1,0.2-0.1,0.3,0c0.1,0.1,0.1,0.2,0,0.3c0,0-2,2.2-1.6,5.2
						c0,0.1-0.1,0.2-0.2,0.2c-0.1,0-0.2-0.1-0.2-0.2C54.4,100.1,54.4,100,54.4,99.8z"/>
				</g>
				<g>
					<path d="M57.4,99.6c-0.2-3,1.7-5,1.8-5.1c0.1-0.1,0.2-0.1,0.3,0c0.1,0.1,0.1,0.2,0,0.3c0,0-2,2.2-1.6,5.2
						c0,0.1-0.1,0.2-0.2,0.2c-0.1,0-0.2-0.1-0.2-0.2C57.4,99.9,57.4,99.7,57.4,99.6z"/>
				</g>
				<g>
					<path d="M60.4,99.4c-0.2-3,1.7-5,1.8-5.1c0.1-0.1,0.2-0.1,0.3,0c0.1,0.1,0.1,0.2,0,0.3c0,0-2,2.2-1.6,5.2
						c0,0.1-0.1,0.2-0.2,0.2c-0.1,0-0.2-0.1-0.2-0.2C60.5,99.7,60.4,99.5,60.4,99.4z"/>
				</g>
				<g>
					<path d="M63.5,99.1c-0.2-3,1.7-5,1.8-5.1c0.1-0.1,0.2-0.1,0.3,0c0.1,0.1,0.1,0.2,0,0.3c0,0-2,2.2-1.6,5.2
						c0,0.1-0.1,0.2-0.2,0.2c-0.1,0-0.2-0.1-0.2-0.2C63.5,99.4,63.5,99.3,63.5,99.1z"/>
				</g>
				<g>
					<path d="M66.5,98.9c-0.2-3,1.7-5,1.8-5.1c0.1-0.1,0.2-0.1,0.3,0c0.1,0.1,0.1,0.2,0,0.3c0,0-2,2.2-1.6,5.2
						c0,0.1-0.1,0.2-0.2,0.2c-0.1,0-0.2-0.1-0.2-0.2C66.5,99.2,66.5,99.1,66.5,98.9z"/>
				</g>
				<g>
					<path d="M69.6,98.7c-0.2-3,1.7-5,1.8-5.1c0.1-0.1,0.2-0.1,0.3,0c0.1,0.1,0.1,0.2,0,0.3c0,0-2,2.2-1.6,5.2
						c0,0.1-0.1,0.2-0.2,0.2c-0.1,0-0.2-0.1-0.2-0.2C69.6,99,69.6,98.8,69.6,98.7z"/>
				</g>
				<g>
					<path d="M72.6,98.5c-0.2-3,1.7-5,1.8-5.1c0.1-0.1,0.2-0.1,0.3,0c0.1,0.1,0.1,0.2,0,0.3c0,0-2,2.2-1.6,5.2
						c0,0.1-0.1,0.2-0.2,0.2c-0.1,0-0.2-0.1-0.2-0.2C72.6,98.8,72.6,98.6,72.6,98.5z"/>
				</g>
			</g>
		</g>
		<g>
			<g>
				<g>
					<path d="M72.7,92.7c0,0,0-0.1,0-0.1c0.1-0.1,0.2-0.1,0.3,0c0.1,0.1,2.1,1.6,2,4.1c0,0.1-0.1,0.2-0.2,0.2
						c-0.1,0-0.2-0.1-0.2-0.2c0-2.4-1.9-3.8-1.9-3.8C72.8,92.8,72.7,92.7,72.7,92.7z"/>
				</g>
				<g>
					<path d="M69.7,92.9c0,0,0-0.1,0-0.1c0.1-0.1,0.2-0.1,0.3,0c0.1,0.1,2.1,1.6,2,4.1c0,0.1-0.1,0.2-0.2,0.2
						c-0.1,0-0.2-0.1-0.2-0.2c0-2.3-1.9-3.8-1.9-3.8C69.7,93,69.7,92.9,69.7,92.9z"/>
				</g>
				<g>
					<path d="M66.6,93.1c0,0,0-0.1,0-0.1c0.1-0.1,0.2-0.1,0.3,0c0.1,0.1,2.1,1.6,2,4.1c0,0.1-0.1,0.2-0.2,0.2
						c-0.1,0-0.2-0.1-0.2-0.2c0-2.3-1.9-3.8-1.9-3.8C66.7,93.2,66.6,93.1,66.6,93.1z"/>
				</g>
				<g>
					<path d="M63.6,93.3c0,0,0-0.1,0-0.1c0.1-0.1,0.2-0.1,0.3,0c0.1,0.1,2.1,1.6,2,4.1c0,0.1-0.1,0.2-0.2,0.2
						c-0.1,0-0.2-0.1-0.2-0.2c0-2.3-1.9-3.8-1.9-3.8C63.6,93.4,63.6,93.4,63.6,93.3z"/>
				</g>
				<g>
					<path d="M60.6,93.5c0,0,0-0.1,0-0.1c0.1-0.1,0.2-0.1,0.3,0c0.1,0.1,2.1,1.6,2,4.1c0,0.1-0.1,0.2-0.2,0.2
						c-0.1,0-0.2-0.1-0.2-0.2c0-2.4-1.9-3.8-1.9-3.8C60.6,93.6,60.6,93.6,60.6,93.5z"/>
				</g>
				<g>
					<path d="M57.5,93.8c0,0,0-0.1,0-0.1c0.1-0.1,0.2-0.1,0.3,0c0.1,0.1,2.1,1.6,2,4.1c0,0.1-0.1,0.2-0.2,0.2s-0.2-0.1-0.2-0.2
						c0-2.4-1.9-3.8-1.9-3.8C57.6,93.9,57.5,93.8,57.5,93.8z"/>
				</g>
				<g>
					<path d="M54.5,94c0,0,0-0.1,0-0.1c0.1-0.1,0.2-0.1,0.3,0c0.1,0.1,2.1,1.6,2,4.1c0,0.1-0.1,0.2-0.2,0.2c-0.1,0-0.2-0.1-0.2-0.2
						c0-2.4-1.9-3.8-1.9-3.8C54.5,94.1,54.5,94,54.5,94z"/>
				</g>
				<g>
					<path d="M51.4,94.2c0,0,0-0.1,0-0.1c0.1-0.1,0.2-0.1,0.3,0c0.1,0.1,2.1,1.6,2,4.1c0,0.1-0.1,0.2-0.2,0.2
						c-0.1,0-0.2-0.1-0.2-0.2c0-2.3-1.9-3.8-1.9-3.8C51.5,94.3,51.4,94.3,51.4,94.2z"/>
				</g>
				<g>
					<path d="M48.4,94.4c0,0,0-0.1,0-0.1c0.1-0.1,0.2-0.1,0.3,0c0.1,0.1,2.1,1.6,2,4.1c0,0.1-0.1,0.2-0.2,0.2
						c-0.1,0-0.2-0.1-0.2-0.2c0-2.4-1.9-3.8-1.9-3.8C48.4,94.5,48.4,94.5,48.4,94.4z"/>
				</g>
				<g>
					<path d="M45.4,94.6c0,0,0-0.1,0-0.1c0.1-0.1,0.2-0.1,0.3,0c0.1,0.1,2.1,1.6,2,4.1c0,0.1-0.1,0.2-0.2,0.2
						c-0.1,0-0.2-0.1-0.2-0.2c0-2.3-1.9-3.8-1.9-3.8C45.4,94.7,45.4,94.7,45.4,94.6z"/>
				</g>
				<g>
					<path d="M42.3,94.9c0,0,0-0.1,0-0.1c0.1-0.1,0.2-0.1,0.3,0c0.1,0.1,2.1,1.6,2,4.1c0,0.1-0.1,0.2-0.2,0.2
						c-0.1,0-0.2-0.1-0.2-0.2c0-2.4-1.9-3.8-1.9-3.8C42.4,95,42.3,94.9,42.3,94.9z"/>
				</g>
			</g>
			<g>
				<g>
					<path d="M42,98c-0.1-1.9,0.3-3.2,0.3-3.3c0-0.1,0.1-0.2,0.2-0.1c0.1,0,0.2,0.1,0.1,0.2c0,0-0.6,1.7-0.2,4
						c0,0.1-0.1,0.2-0.2,0.2c-0.1,0-0.2-0.1-0.2-0.2C42.1,98.7,42,98.3,42,98z"/>
				</g>
				<g>
					<path d="M45.1,97.8c-0.1-1.9,0.3-3.2,0.3-3.3c0-0.1,0.1-0.2,0.2-0.1c0.1,0,0.2,0.1,0.1,0.2c0,0-0.6,1.7-0.2,4
						c0,0.1-0.1,0.2-0.2,0.2c-0.1,0-0.2-0.1-0.2-0.2C45.1,98.4,45.1,98.1,45.1,97.8z"/>
				</g>
				<g>
					<path d="M48.1,97.6c-0.1-1.9,0.3-3.2,0.3-3.3c0-0.1,0.1-0.2,0.2-0.1c0.1,0,0.2,0.1,0.1,0.2c0,0-0.6,1.7-0.2,4
						c0,0.1-0.1,0.2-0.2,0.2c-0.1,0-0.2-0.1-0.2-0.2C48.2,98.2,48.1,97.9,48.1,97.6z"/>
				</g>
				<g>
					<path d="M51.1,97.4c-0.1-1.9,0.3-3.2,0.3-3.3c0-0.1,0.1-0.2,0.2-0.1c0.1,0,0.2,0.1,0.1,0.2c0,0-0.6,1.7-0.2,4
						c0,0.1-0.1,0.2-0.2,0.2s-0.2-0.1-0.2-0.2C51.2,98,51.2,97.7,51.1,97.4z"/>
				</g>
				<g>
					<path d="M54.2,97.2c-0.1-1.9,0.3-3.2,0.3-3.3c0-0.1,0.1-0.2,0.2-0.1c0.1,0,0.2,0.1,0.1,0.2c0,0-0.6,1.7-0.2,4
						c0,0.1-0.1,0.2-0.2,0.2c-0.1,0-0.2-0.1-0.2-0.2C54.2,97.8,54.2,97.5,54.2,97.2z"/>
				</g>
				<g>
					<path d="M57.2,96.9c-0.1-1.9,0.3-3.2,0.3-3.3c0-0.1,0.1-0.2,0.2-0.1c0.1,0,0.2,0.1,0.1,0.2c0,0-0.6,1.7-0.2,4
						c0,0.1-0.1,0.2-0.2,0.2c-0.1,0-0.2-0.1-0.2-0.2C57.3,97.6,57.2,97.2,57.2,96.9z"/>
				</g>
				<g>
					<path d="M60.3,96.7c-0.1-1.9,0.3-3.2,0.3-3.3c0-0.1,0.1-0.2,0.2-0.1c0.1,0,0.2,0.1,0.1,0.2c0,0-0.6,1.7-0.2,4
						c0,0.1-0.1,0.2-0.2,0.2c-0.1,0-0.2-0.1-0.2-0.2C60.3,97.3,60.3,97,60.3,96.7z"/>
				</g>
				<g>
					<path d="M63.3,96.5c-0.1-1.9,0.3-3.2,0.3-3.3c0-0.1,0.1-0.2,0.2-0.1c0.1,0,0.2,0.1,0.1,0.2c0,0-0.6,1.7-0.2,4
						c0,0.1-0.1,0.2-0.2,0.2c-0.1,0-0.2-0.1-0.2-0.2C63.4,97.1,63.3,96.8,63.3,96.5z"/>
				</g>
				<g>
					<path d="M66.3,96.3c-0.1-1.9,0.3-3.2,0.3-3.3c0-0.1,0.1-0.2,0.2-0.1c0.1,0,0.2,0.1,0.1,0.2c0,0-0.6,1.7-0.2,4
						c0,0.1-0.1,0.2-0.2,0.2s-0.2-0.1-0.2-0.2C66.4,96.9,66.4,96.6,66.3,96.3z"/>
				</g>
				<g>
					<path d="M69.4,96.1c-0.1-1.9,0.3-3.2,0.3-3.3c0-0.1,0.1-0.2,0.2-0.1c0.1,0,0.2,0.1,0.1,0.2c0,0-0.6,1.7-0.2,4
						c0,0.1-0.1,0.2-0.2,0.2c-0.1,0-0.2-0.1-0.2-0.2C69.4,96.7,69.4,96.4,69.4,96.1z"/>
				</g>
				<g>
					<path d="M72.4,95.8c-0.1-1.9,0.3-3.2,0.3-3.3c0-0.1,0.1-0.2,0.2-0.1c0.1,0,0.2,0.1,0.1,0.2c0,0-0.6,1.7-0.2,4
						c0,0.1-0.1,0.2-0.2,0.2c-0.1,0-0.2-0.1-0.2-0.2C72.5,96.5,72.4,96.1,72.4,95.8z"/>
				</g>
			</g>
		</g>
		<g>
			<g>
				<g>
					<path d="M71.1,88.4c0-0.1,0-0.1,0.1-0.2c0,0,1.3-1.4,0.9-4.9c0-0.1,0.1-0.2,0.2-0.2c0.1,0,0.2,0.1,0.2,0.2
						c0.5,3.7-0.9,5.2-1,5.2c-0.1,0.1-0.2,0.1-0.3,0C71.1,88.5,71.1,88.5,71.1,88.4z"/>
				</g>
				<g>
					<path d="M68,88.6c0,0,0-0.1,0-0.1c0,0,1.7-2.6,1.2-6.1c0-0.1,0.1-0.2,0.2-0.2c0.1,0,0.2,0.1,0.2,0.2c0.5,3.7-1.2,6.3-1.2,6.4
						c-0.1,0.1-0.2,0.1-0.3,0.1C68.1,88.7,68,88.7,68,88.6z"/>
				</g>
				<g>
					<path d="M65,88.9c0,0,0-0.1,0-0.1c0,0,1.7-2.6,1.2-6.1c0-0.1,0.1-0.2,0.2-0.2c0.1,0,0.2,0.1,0.2,0.2c0.5,3.7-1.2,6.3-1.2,6.4
						c-0.1,0.1-0.2,0.1-0.3,0.1C65,89,65,88.9,65,88.9z"/>
				</g>
				<g>
					<path d="M61.9,89.1c0,0,0-0.1,0-0.1c0,0,1.7-2.6,1.2-6.1c0-0.1,0.1-0.2,0.2-0.2c0.1,0,0.2,0.1,0.2,0.2c0.5,3.7-1.2,6.3-1.2,6.4
						c-0.1,0.1-0.2,0.1-0.3,0.1C62,89.2,62,89.1,61.9,89.1z"/>
				</g>
				<g>
					<path d="M58.9,89.3c0,0,0-0.1,0-0.1c0,0,1.7-2.6,1.2-6.1c0-0.1,0.1-0.2,0.2-0.2c0.1,0,0.2,0.1,0.2,0.2c0.5,3.7-1.2,6.3-1.2,6.4
						c-0.1,0.1-0.2,0.1-0.3,0.1C58.9,89.4,58.9,89.4,58.9,89.3z"/>
				</g>
				<g>
					<path d="M55.9,89.5c0,0,0-0.1,0-0.1c0,0,1.7-2.6,1.2-6.1c0-0.1,0.1-0.2,0.2-0.2c0.1,0,0.2,0.1,0.2,0.2c0.5,3.7-1.2,6.3-1.2,6.4
						c-0.1,0.1-0.2,0.1-0.3,0.1C55.9,89.6,55.9,89.6,55.9,89.5z"/>
				</g>
				<g>
					<path d="M52.8,89.7c0,0,0-0.1,0-0.1c0,0,1.7-2.6,1.2-6.1c0-0.1,0.1-0.2,0.2-0.2c0.1,0,0.2,0.1,0.2,0.2c0.5,3.7-1.2,6.3-1.2,6.4
						c-0.1,0.1-0.2,0.1-0.3,0.1C52.9,89.9,52.8,89.8,52.8,89.7z"/>
				</g>
				<g>
					<path d="M49.8,90c0,0,0-0.1,0-0.1c0,0,1.7-2.6,1.2-6.1c0-0.1,0.1-0.2,0.2-0.2c0.1,0,0.2,0.1,0.2,0.2c0.5,3.7-1.2,6.3-1.2,6.4
						c-0.1,0.1-0.2,0.1-0.3,0.1C49.8,90.1,49.8,90,49.8,90z"/>
				</g>
				<g>
					<path d="M46.7,90.2c0,0,0-0.1,0-0.1c0,0,1.7-2.6,1.2-6.1c0-0.1,0.1-0.2,0.2-0.2c0.1,0,0.2,0.1,0.2,0.2c0.5,3.7-1.2,6.3-1.2,6.4
						c-0.1,0.1-0.2,0.1-0.3,0.1C46.8,90.3,46.8,90.2,46.7,90.2z"/>
				</g>
				<g>
					<path d="M43.7,90.4c0,0,0-0.1,0-0.1c0,0,1.7-2.6,1.2-6.1c0-0.1,0.1-0.2,0.2-0.2c0.1,0,0.2,0.1,0.2,0.2c0.5,3.7-1.2,6.3-1.2,6.4
						c-0.1,0.1-0.2,0.1-0.3,0.1C43.7,90.5,43.7,90.5,43.7,90.4z"/>
				</g>
			</g>
			<g>
				<g>
					<path d="M41.4,86.2c0-0.2,0-0.4,0-0.6c0-0.1,0.1-0.2,0.2-0.2c0.1,0,0.2,0.1,0.2,0.2c0,3.5,1.9,4.7,1.9,4.7
						c0.1,0.1,0.1,0.2,0.1,0.3c-0.1,0.1-0.2,0.1-0.3,0.1C43.4,90.5,41.6,89.5,41.4,86.2z"/>
				</g>
				<g>
					<path d="M43.9,84.7c0-0.2,0-0.3,0-0.5c0-0.1,0.1-0.2,0.2-0.2c0.1,0,0.2,0.1,0.2,0.2c0,3.6,2.4,5.8,2.4,5.8
						c0.1,0.1,0.1,0.2,0,0.3c-0.1,0.1-0.2,0.1-0.3,0C46.4,90.2,44.2,88.2,43.9,84.7z"/>
				</g>
				<g>
					<path d="M47,84.5c0-0.2,0-0.3,0-0.5c0-0.1,0.1-0.2,0.2-0.2c0.1,0,0.2,0.1,0.2,0.2c0,3.6,2.4,5.8,2.4,5.8c0.1,0.1,0.1,0.2,0,0.3
						c-0.1,0.1-0.2,0.1-0.3,0C49.4,90,47.2,88,47,84.5z"/>
				</g>
				<g>
					<path d="M50,84.3c0-0.2,0-0.3,0-0.5c0-0.1,0.1-0.2,0.2-0.2c0.1,0,0.2,0.1,0.2,0.2c0,3.6,2.4,5.8,2.4,5.8c0.1,0.1,0.1,0.2,0,0.3
						c-0.1,0.1-0.2,0.1-0.3,0C52.5,89.8,50.3,87.7,50,84.3z"/>
				</g>
				<g>
					<path d="M53.1,84.1c0-0.2,0-0.3,0-0.5c0-0.1,0.1-0.2,0.2-0.2c0.1,0,0.2,0.1,0.2,0.2c0,3.6,2.4,5.8,2.4,5.8
						c0.1,0.1,0.1,0.2,0,0.3c-0.1,0.1-0.2,0.1-0.3,0C55.5,89.6,53.3,87.5,53.1,84.1z"/>
				</g>
				<g>
					<path d="M56.1,83.9c0-0.2,0-0.3,0-0.5c0-0.1,0.1-0.2,0.2-0.2c0.1,0,0.2,0.1,0.2,0.2c0,3.6,2.4,5.8,2.4,5.8
						c0.1,0.1,0.1,0.2,0,0.3c-0.1,0.1-0.2,0.1-0.3,0C58.5,89.4,56.4,87.3,56.1,83.9z"/>
				</g>
				<g>
					<path d="M59.1,83.6c0-0.2,0-0.3,0-0.5c0-0.1,0.1-0.2,0.2-0.2c0.1,0,0.2,0.1,0.2,0.2c0,3.6,2.4,5.8,2.4,5.8
						c0.1,0.1,0.1,0.2,0,0.3c-0.1,0.1-0.2,0.1-0.3,0C61.6,89.1,59.4,87.1,59.1,83.6z"/>
				</g>
				<g>
					<path d="M62.2,83.4c0-0.2,0-0.3,0-0.5c0-0.1,0.1-0.2,0.2-0.2c0.1,0,0.2,0.1,0.2,0.2c0,3.6,2.4,5.8,2.4,5.8
						c0.1,0.1,0.1,0.2,0,0.3c-0.1,0.1-0.2,0.1-0.3,0C64.6,88.9,62.4,86.8,62.2,83.4z"/>
				</g>
				<g>
					<path d="M65.2,83.2c0-0.2,0-0.3,0-0.5c0-0.1,0.1-0.2,0.2-0.2c0.1,0,0.2,0.1,0.2,0.2c0,3.6,2.4,5.8,2.4,5.8
						c0.1,0.1,0.1,0.2,0,0.3c-0.1,0.1-0.2,0.1-0.3,0C67.7,88.7,65.5,86.6,65.2,83.2z"/>
				</g>
				<g>
					<path d="M68.3,83c0-0.2,0-0.3,0-0.5c0-0.1,0.1-0.2,0.2-0.2c0.1,0,0.2,0.1,0.2,0.2c0,3.6,2.4,5.8,2.4,5.8c0.1,0.1,0.1,0.2,0,0.3
						c-0.1,0.1-0.2,0.1-0.3,0C70.7,88.5,68.5,86.4,68.3,83z"/>
				</g>
			</g>
		</g>
		<g>
			<g>
				<g>
					<path d="M70.9,88.4c0-0.2,0.1-0.3,0.3-0.3c0.2,0,0.3,0.1,0.3,0.3c0,0.2-0.1,0.3-0.3,0.3C71.1,88.7,71,88.6,70.9,88.4z"/>
				</g>
				<g>
					<path d="M68.5,88.6c0,0.2-0.1,0.3-0.3,0.3c-0.2,0-0.3-0.1-0.3-0.3c0-0.2,0.1-0.3,0.3-0.3C68.4,88.3,68.5,88.4,68.5,88.6z"/>
				</g>
				<g>
					<path d="M65.5,88.8c0,0.2-0.1,0.3-0.3,0.3c-0.2,0-0.3-0.1-0.3-0.3c0-0.2,0.1-0.3,0.3-0.3C65.3,88.5,65.5,88.7,65.5,88.8z"/>
				</g>
				<g>
					<path d="M62.5,89c0,0.2-0.1,0.3-0.3,0.3c-0.2,0-0.3-0.1-0.3-0.3c0-0.2,0.1-0.3,0.3-0.3C62.3,88.7,62.5,88.9,62.5,89z"/>
				</g>
				<g>
					<path d="M59.4,89.3c0,0.2-0.1,0.3-0.3,0.3c-0.2,0-0.3-0.1-0.3-0.3c0-0.2,0.1-0.3,0.3-0.3C59.3,89,59.4,89.1,59.4,89.3z"/>
				</g>
				<g>
					<path d="M56.4,89.5c0,0.2-0.1,0.3-0.3,0.3c-0.2,0-0.3-0.1-0.3-0.3c0-0.2,0.1-0.3,0.3-0.3C56.2,89.2,56.4,89.3,56.4,89.5z"/>
				</g>
				<g>
					<path d="M53.3,89.7c0,0.2-0.1,0.3-0.3,0.3c-0.2,0-0.3-0.1-0.3-0.3c0-0.2,0.1-0.3,0.3-0.3C53.2,89.4,53.3,89.5,53.3,89.7z"/>
				</g>
				<g>
					<path d="M50.3,89.9c0,0.2-0.1,0.3-0.3,0.3c-0.2,0-0.3-0.1-0.3-0.3c0-0.2,0.1-0.3,0.3-0.3C50.1,89.6,50.3,89.8,50.3,89.9z"/>
				</g>
				<g>
					<path d="M47.3,90.1c0,0.2-0.1,0.3-0.3,0.3c-0.2,0-0.3-0.1-0.3-0.3c0-0.2,0.1-0.3,0.3-0.3C47.1,89.9,47.3,90,47.3,90.1z"/>
				</g>
				<g>
					<path d="M44.2,90.4c0,0.2-0.1,0.3-0.3,0.3c-0.2,0-0.3-0.1-0.3-0.3c0-0.2,0.1-0.3,0.3-0.3C44.1,90.1,44.2,90.2,44.2,90.4z"/>
				</g>
			</g>
			<g>
				<g>
					<path d="M72.3,89c0-0.2,0.1-0.3,0.3-0.3c0.2,0,0.3,0.1,0.3,0.3c0,0.2-0.1,0.3-0.3,0.3C72.5,89.3,72.3,89.2,72.3,89z"/>
				</g>
				<g>
					<path d="M69.9,89.2c0,0.2-0.1,0.3-0.3,0.3c-0.2,0-0.3-0.1-0.3-0.3c0-0.2,0.1-0.3,0.3-0.3C69.8,88.9,69.9,89,69.9,89.2z"/>
				</g>
				<g>
					<path d="M66.9,89.4c0,0.2-0.1,0.3-0.3,0.3c-0.2,0-0.3-0.1-0.3-0.3c0-0.2,0.1-0.3,0.3-0.3C66.7,89.1,66.9,89.2,66.9,89.4z"/>
				</g>
				<g>
					<path d="M63.9,89.6c0,0.2-0.1,0.3-0.3,0.3c-0.2,0-0.3-0.1-0.3-0.3c0-0.2,0.1-0.3,0.3-0.3C63.7,89.3,63.8,89.5,63.9,89.6z"/>
				</g>
				<g>
					<path d="M60.8,89.8c0,0.2-0.1,0.3-0.3,0.3c-0.2,0-0.3-0.1-0.3-0.3c0-0.2,0.1-0.3,0.3-0.3C60.6,89.6,60.8,89.7,60.8,89.8z"/>
				</g>
				<g>
					<path d="M57.8,90.1c0,0.2-0.1,0.3-0.3,0.3c-0.2,0-0.3-0.1-0.3-0.3c0-0.2,0.1-0.3,0.3-0.3C57.6,89.8,57.8,89.9,57.8,90.1z"/>
				</g>
				<g>
					<path d="M54.7,90.3c0,0.2-0.1,0.3-0.3,0.3c-0.2,0-0.3-0.1-0.3-0.3c0-0.2,0.1-0.3,0.3-0.3C54.6,90,54.7,90.1,54.7,90.3z"/>
				</g>
				<g>
					<path d="M51.7,90.5c0,0.2-0.1,0.3-0.3,0.3c-0.2,0-0.3-0.1-0.3-0.3c0-0.2,0.1-0.3,0.3-0.3C51.5,90.2,51.7,90.3,51.7,90.5z"/>
				</g>
				<g>
					<path d="M48.7,90.7c0,0.2-0.1,0.3-0.3,0.3c-0.2,0-0.3-0.1-0.3-0.3c0-0.2,0.1-0.3,0.3-0.3C48.5,90.4,48.6,90.6,48.7,90.7z"/>
				</g>
				<g>
					<path d="M45.6,90.9c0,0.2-0.1,0.3-0.3,0.3c-0.2,0-0.3-0.1-0.3-0.3c0-0.2,0.1-0.3,0.3-0.3C45.4,90.7,45.6,90.8,45.6,90.9z"/>
				</g>
				<g>
					<path d="M42.6,91.2c0,0.2-0.1,0.3-0.3,0.3c-0.2,0-0.3-0.1-0.3-0.3c0-0.2,0.1-0.3,0.3-0.3C42.4,90.9,42.6,91,42.6,91.2z"/>
				</g>
			</g>
			<g>
				<g>
					<path d="M73.9,89.9c0-0.2,0.1-0.3,0.3-0.3c0.2,0,0.3,0.1,0.3,0.3c0,0.2-0.1,0.3-0.3,0.3C74.1,90.2,73.9,90.1,73.9,89.9z"/>
				</g>
				<g>
					<path d="M71.5,90.1c0,0.2-0.1,0.3-0.3,0.3c-0.2,0-0.3-0.1-0.3-0.3c0-0.2,0.1-0.3,0.3-0.3C71.4,89.8,71.5,89.9,71.5,90.1z"/>
				</g>
				<g>
					<path d="M68.5,90.3c0,0.2-0.1,0.3-0.3,0.3c-0.2,0-0.3-0.1-0.3-0.3c0-0.2,0.1-0.3,0.3-0.3C68.3,90,68.5,90.2,68.5,90.3z"/>
				</g>
				<g>
					<path d="M65.5,90.6c0,0.2-0.1,0.3-0.3,0.3c-0.2,0-0.3-0.1-0.3-0.3c0-0.2,0.1-0.3,0.3-0.3C65.3,90.3,65.4,90.4,65.5,90.6z"/>
				</g>
				<g>
					<path d="M62.4,90.8c0,0.2-0.1,0.3-0.3,0.3c-0.2,0-0.3-0.1-0.3-0.3c0-0.2,0.1-0.3,0.3-0.3C62.3,90.5,62.4,90.6,62.4,90.8z"/>
				</g>
				<g>
					<path d="M59.4,91c0,0.2-0.1,0.3-0.3,0.3c-0.2,0-0.3-0.1-0.3-0.3c0-0.2,0.1-0.3,0.3-0.3C59.2,90.7,59.4,90.8,59.4,91z"/>
				</g>
				<g>
					<path d="M56.3,91.2c0,0.2-0.1,0.3-0.3,0.3c-0.2,0-0.3-0.1-0.3-0.3c0-0.2,0.1-0.3,0.3-0.3C56.2,90.9,56.3,91,56.3,91.2z"/>
				</g>
				<g>
					<path d="M53.3,91.4c0,0.2-0.1,0.3-0.3,0.3c-0.2,0-0.3-0.1-0.3-0.3c0-0.2,0.1-0.3,0.3-0.3C53.1,91.1,53.3,91.3,53.3,91.4z"/>
				</g>
				<g>
					<path d="M50.3,91.7c0,0.2-0.1,0.3-0.3,0.3c-0.2,0-0.3-0.1-0.3-0.3c0-0.2,0.1-0.3,0.3-0.3C50.1,91.4,50.2,91.5,50.3,91.7z"/>
				</g>
				<g>
					<path d="M47.2,91.9c0,0.2-0.1,0.3-0.3,0.3c-0.2,0-0.3-0.1-0.3-0.3c0-0.2,0.1-0.3,0.3-0.3C47.1,91.6,47.2,91.7,47.2,91.9z"/>
				</g>
				<g>
					<path d="M44.2,92.1c0,0.2-0.1,0.3-0.3,0.3c-0.2,0-0.3-0.1-0.3-0.3c0-0.2,0.1-0.3,0.3-0.3C44,91.8,44.2,91.9,44.2,92.1z"/>
				</g>
			</g>
			<g>
				<g>
					<path d="M72.5,91c0-0.2,0.1-0.3,0.3-0.3c0.2,0,0.3,0.1,0.3,0.3c0,0.2-0.1,0.3-0.3,0.3C72.6,91.3,72.5,91.2,72.5,91z"/>
				</g>
				<g>
					<path d="M70.1,91.2c0,0.2-0.1,0.3-0.3,0.3c-0.2,0-0.3-0.1-0.3-0.3c0-0.2,0.1-0.3,0.3-0.3C69.9,90.9,70.1,91,70.1,91.2z"/>
				</g>
				<g>
					<path d="M67,91.4c0,0.2-0.1,0.3-0.3,0.3c-0.2,0-0.3-0.1-0.3-0.3c0-0.2,0.1-0.3,0.3-0.3C66.9,91.1,67,91.3,67,91.4z"/>
				</g>
				<g>
					<path d="M64,91.6c0,0.2-0.1,0.3-0.3,0.3c-0.2,0-0.3-0.1-0.3-0.3c0-0.2,0.1-0.3,0.3-0.3C63.8,91.4,64,91.5,64,91.6z"/>
				</g>
				<g>
					<path d="M61,91.9c0,0.2-0.1,0.3-0.3,0.3c-0.2,0-0.3-0.1-0.3-0.3c0-0.2,0.1-0.3,0.3-0.3C60.8,91.6,60.9,91.7,61,91.9z"/>
				</g>
				<g>
					<path d="M57.9,92.1c0,0.2-0.1,0.3-0.3,0.3c-0.2,0-0.3-0.1-0.3-0.3c0-0.2,0.1-0.3,0.3-0.3C57.8,91.8,57.9,91.9,57.9,92.1z"/>
				</g>
				<g>
					<path d="M54.9,92.3c0,0.2-0.1,0.3-0.3,0.3c-0.2,0-0.3-0.1-0.3-0.3c0-0.2,0.1-0.3,0.3-0.3C54.7,92,54.9,92.1,54.9,92.3z"/>
				</g>
				<g>
					<path d="M51.8,92.5c0,0.2-0.1,0.3-0.3,0.3c-0.2,0-0.3-0.1-0.3-0.3c0-0.2,0.1-0.3,0.3-0.3C51.7,92.2,51.8,92.4,51.8,92.5z"/>
				</g>
				<g>
					<path d="M48.8,92.8c0,0.2-0.1,0.3-0.3,0.3c-0.2,0-0.3-0.1-0.3-0.3c0-0.2,0.1-0.3,0.3-0.3C48.6,92.5,48.8,92.6,48.8,92.8z"/>
				</g>
				<g>
					<path d="M45.8,93c0,0.2-0.1,0.3-0.3,0.3c-0.2,0-0.3-0.1-0.3-0.3c0-0.2,0.1-0.3,0.3-0.3C45.6,92.7,45.7,92.8,45.8,93z"/>
				</g>
				<g>
					<path d="M42.7,93.2c0,0.2-0.1,0.3-0.3,0.3c-0.2,0-0.3-0.1-0.3-0.3c0-0.2,0.1-0.3,0.3-0.3C42.6,92.9,42.7,93,42.7,93.2z"/>
				</g>
			</g>
		</g>
		<g>
			<g>
				<g>
					<path d="M72.5,89c0-0.1,0-0.1,0.1-0.2l0,0c0,0,1.7-1,1.2-4.5c0-0.1,0.1-0.2,0.2-0.2c0.1,0,0.2,0.1,0.2,0.2
						c0.5,3.8-1.3,4.8-1.4,4.9C72.7,89.2,72.5,89.2,72.5,89C72.5,89,72.5,89,72.5,89z"/>
				</g>
				<g>
					<path d="M69.4,89.2c0-0.1,0-0.1,0.1-0.1c0,0,2-2.2,1.6-5.7c0-0.1,0.1-0.2,0.2-0.2c0.1,0,0.2,0.1,0.2,0.2c0.5,3.7-1.6,5.9-1.7,6
						c-0.1,0.1-0.2,0.1-0.3,0C69.4,89.3,69.4,89.3,69.4,89.2z"/>
				</g>
				<g>
					<path d="M66.4,89.4c0-0.1,0-0.1,0.1-0.1c0,0,2-2.2,1.6-5.7c0-0.1,0.1-0.2,0.2-0.2c0.1,0,0.2,0.1,0.2,0.2c0.5,3.7-1.6,5.9-1.7,6
						c-0.1,0.1-0.2,0.1-0.3,0C66.4,89.5,66.4,89.5,66.4,89.4z"/>
				</g>
				<g>
					<path d="M63.3,89.7c0-0.1,0-0.1,0.1-0.1c0,0,2-2.2,1.6-5.7c0-0.1,0.1-0.2,0.2-0.2c0.1,0,0.2,0.1,0.2,0.2c0.5,3.7-1.6,5.9-1.7,6
						c-0.1,0.1-0.2,0.1-0.3,0C63.4,89.7,63.3,89.7,63.3,89.7z"/>
				</g>
				<g>
					<path d="M60.3,89.9c0-0.1,0-0.1,0.1-0.1c0,0,2-2.2,1.6-5.7c0-0.1,0.1-0.2,0.2-0.2c0.1,0,0.2,0.1,0.2,0.2c0.5,3.7-1.6,5.9-1.7,6
						c-0.1,0.1-0.2,0.1-0.3,0C60.3,90,60.3,89.9,60.3,89.9z"/>
				</g>
				<g>
					<path d="M57.3,90.1c0-0.1,0-0.1,0.1-0.1c0,0,2-2.2,1.6-5.7c0-0.1,0.1-0.2,0.2-0.2c0.1,0,0.2,0.1,0.2,0.2c0.5,3.7-1.6,5.9-1.7,6
						c-0.1,0.1-0.2,0.1-0.3,0C57.3,90.2,57.3,90.1,57.3,90.1z"/>
				</g>
				<g>
					<path d="M54.2,90.3c0-0.1,0-0.1,0.1-0.1c0,0,2-2.2,1.6-5.7c0-0.1,0.1-0.2,0.2-0.2c0.1,0,0.2,0.1,0.2,0.2c0.5,3.7-1.6,5.9-1.7,6
						c-0.1,0.1-0.2,0.1-0.3,0C54.2,90.4,54.2,90.4,54.2,90.3z"/>
				</g>
				<g>
					<path d="M51.2,90.5c0-0.1,0-0.1,0.1-0.1c0,0,2-2.2,1.6-5.7c0-0.1,0.1-0.2,0.2-0.2c0.1,0,0.2,0.1,0.2,0.2c0.5,3.7-1.6,5.9-1.7,6
						c-0.1,0.1-0.2,0.1-0.3,0C51.2,90.6,51.2,90.6,51.2,90.5z"/>
				</g>
				<g>
					<path d="M48.1,90.8c0-0.1,0-0.1,0.1-0.1c0,0,2-2.2,1.6-5.7c0-0.1,0.1-0.2,0.2-0.2c0.1,0,0.2,0.1,0.2,0.2c0.5,3.7-1.6,5.9-1.7,6
						c-0.1,0.1-0.2,0.1-0.3,0C48.2,90.9,48.1,90.8,48.1,90.8z"/>
				</g>
				<g>
					<path d="M45.1,91c0-0.1,0-0.1,0.1-0.1c0,0,2-2.2,1.6-5.7c0-0.1,0.1-0.2,0.2-0.2c0.1,0,0.2,0.1,0.2,0.2c0.5,3.7-1.6,5.9-1.7,6
						c-0.1,0.1-0.2,0.1-0.3,0C45.1,91.1,45.1,91,45.1,91z"/>
				</g>
				<g>
					<path d="M42.1,91.2c0-0.1,0-0.1,0.1-0.1c0,0,2-2.2,1.6-5.7c0-0.1,0.1-0.2,0.2-0.2c0.1,0,0.2,0.1,0.2,0.2c0.5,3.7-1.6,5.9-1.7,6
						c-0.1,0.1-0.2,0.1-0.3,0C42.1,91.3,42.1,91.3,42.1,91.2z"/>
				</g>
			</g>
			<g>
				<g>
					<path d="M42.1,91.2c0,0,0-0.1,0-0.1c0,0,0.7-1,0.7-4.5c0-0.1,0.1-0.2,0.2-0.2c0.1,0,0.2,0.1,0.2,0.2c0.1,3.7-0.7,4.7-0.8,4.8
						c-0.1,0.1-0.2,0.1-0.3,0C42.1,91.3,42.1,91.3,42.1,91.2z"/>
				</g>
				<g>
					<path d="M45.1,91C45.1,91,45.1,91,45.1,91c0-0.1,0.3-2.2,0.3-5.8c0-0.1,0.1-0.2,0.2-0.2c0.1,0,0.2,0.1,0.2,0.2
						c0,3.7-0.3,5.8-0.3,5.8c0,0.1-0.1,0.2-0.2,0.2C45.2,91.1,45.1,91.1,45.1,91z"/>
				</g>
				<g>
					<path d="M48.1,90.8C48.1,90.7,48.1,90.7,48.1,90.8c0-0.1,0.3-2.2,0.3-5.8c0-0.1,0.1-0.2,0.2-0.2c0.1,0,0.2,0.1,0.2,0.2
						c0,3.7-0.3,5.8-0.3,5.8c0,0.1-0.1,0.2-0.2,0.2C48.2,90.9,48.1,90.9,48.1,90.8z"/>
				</g>
				<g>
					<path d="M51.2,90.5C51.2,90.5,51.2,90.5,51.2,90.5c0-0.1,0.3-2.2,0.3-5.8c0-0.1,0.1-0.2,0.2-0.2c0.1,0,0.2,0.1,0.2,0.2
						c0,3.7-0.3,5.8-0.3,5.8c0,0.1-0.1,0.2-0.2,0.2C51.3,90.7,51.2,90.6,51.2,90.5z"/>
				</g>
				<g>
					<path d="M54.2,90.3C54.2,90.3,54.2,90.3,54.2,90.3c0-0.1,0.3-2.2,0.3-5.8c0-0.1,0.1-0.2,0.2-0.2c0.1,0,0.2,0.1,0.2,0.2
						c0,3.7-0.3,5.8-0.3,5.8c0,0.1-0.1,0.2-0.2,0.2C54.3,90.5,54.2,90.4,54.2,90.3z"/>
				</g>
				<g>
					<path d="M57.3,90.1C57.3,90.1,57.3,90.1,57.3,90.1c0-0.1,0.3-2.2,0.3-5.8c0-0.1,0.1-0.2,0.2-0.2c0.1,0,0.2,0.1,0.2,0.2
						c0,3.7-0.3,5.8-0.3,5.8c0,0.1-0.1,0.2-0.2,0.2C57.3,90.3,57.3,90.2,57.3,90.1z"/>
				</g>
				<g>
					<path d="M60.3,89.9C60.3,89.9,60.3,89.8,60.3,89.9c0-0.1,0.3-2.2,0.3-5.8c0-0.1,0.1-0.2,0.2-0.2c0.1,0,0.2,0.1,0.2,0.2
						c0,3.7-0.3,5.8-0.3,5.8c0,0.1-0.1,0.2-0.2,0.2C60.4,90,60.3,90,60.3,89.9z"/>
				</g>
				<g>
					<path d="M63.3,89.7C63.3,89.6,63.3,89.6,63.3,89.7c0-0.1,0.3-2.2,0.3-5.8c0-0.1,0.1-0.2,0.2-0.2c0.1,0,0.2,0.1,0.2,0.2
						c0,3.7-0.3,5.8-0.3,5.8c0,0.1-0.1,0.2-0.2,0.2C63.4,89.8,63.3,89.7,63.3,89.7z"/>
				</g>
				<g>
					<path d="M66.4,89.4C66.4,89.4,66.4,89.4,66.4,89.4c0-0.1,0.3-2.2,0.3-5.8c0-0.1,0.1-0.2,0.2-0.2c0.1,0,0.2,0.1,0.2,0.2
						c0,3.7-0.3,5.8-0.3,5.8c0,0.1-0.1,0.2-0.2,0.2C66.5,89.6,66.4,89.5,66.4,89.4z"/>
				</g>
				<g>
					<path d="M69.4,89.2C69.4,89.2,69.4,89.2,69.4,89.2c0-0.1,0.3-2.2,0.3-5.8c0-0.1,0.1-0.2,0.2-0.2c0.1,0,0.2,0.1,0.2,0.2
						c0,3.7-0.3,5.8-0.3,5.8c0,0.1-0.1,0.2-0.2,0.2C69.5,89.4,69.4,89.3,69.4,89.2z"/>
				</g>
				<g>
					<path d="M72.5,89C72.5,89,72.5,89,72.5,89c0-0.1,0.3-2.2,0.3-5.8c0-0.1,0.1-0.2,0.2-0.2c0.1,0,0.2,0.1,0.2,0.2
						c0,3.7-0.3,5.8-0.3,5.8c0,0.1-0.1,0.2-0.2,0.2C72.5,89.2,72.5,89.1,72.5,89z"/>
				</g>
			</g>
		</g>
		<g>
			<g>
				<g>
					<path d="M74,89.9c0-0.1,0.1-0.2,0.2-0.2c0,0,1.3-0.3,0.9-3.2c0-0.1,0.1-0.2,0.2-0.2c0.1,0,0.2,0.1,0.2,0.2
						c0.5,3.3-1.1,3.6-1.2,3.6C74.1,90.1,74,90.1,74,89.9C74,89.9,74,89.9,74,89.9z"/>
				</g>
				<g>
					<path d="M71,90.1c0-0.1,0-0.1,0.1-0.1c0,0,2-2.2,1.6-5.2c0-0.1,0.1-0.2,0.2-0.2c0.1,0,0.2,0.1,0.2,0.2c0.5,3.2-1.6,5.5-1.7,5.5
						c-0.1,0.1-0.2,0.1-0.3,0C71,90.2,71,90.2,71,90.1z"/>
				</g>
				<g>
					<path d="M67.9,90.4c0-0.1,0-0.1,0.1-0.1c0,0,2-2.2,1.6-5.2c0-0.1,0.1-0.2,0.2-0.2c0.1,0,0.2,0.1,0.2,0.2
						c0.5,3.2-1.6,5.5-1.7,5.5c-0.1,0.1-0.2,0.1-0.3,0C68,90.5,67.9,90.4,67.9,90.4z"/>
				</g>
				<g>
					<path d="M64.9,90.6c0-0.1,0-0.1,0.1-0.1c0,0,2-2.2,1.6-5.2c0-0.1,0.1-0.2,0.2-0.2c0.1,0,0.2,0.1,0.2,0.2
						c0.5,3.2-1.6,5.5-1.7,5.5c-0.1,0.1-0.2,0.1-0.3,0C64.9,90.7,64.9,90.6,64.9,90.6z"/>
				</g>
				<g>
					<path d="M61.9,90.8c0-0.1,0-0.1,0.1-0.1c0,0,2-2.2,1.6-5.2c0-0.1,0.1-0.2,0.2-0.2c0.1,0,0.2,0.1,0.2,0.2
						c0.5,3.2-1.6,5.5-1.7,5.5c-0.1,0.1-0.2,0.1-0.3,0C61.9,90.9,61.9,90.9,61.9,90.8z"/>
				</g>
				<g>
					<path d="M58.8,91c0-0.1,0-0.1,0.1-0.1c0,0,2-2.2,1.6-5.2c0-0.1,0.1-0.2,0.2-0.2c0.1,0,0.2,0.1,0.2,0.2c0.5,3.2-1.6,5.5-1.7,5.5
						c-0.1,0.1-0.2,0.1-0.3,0C58.8,91.1,58.8,91.1,58.8,91z"/>
				</g>
				<g>
					<path d="M55.8,91.3c0-0.1,0-0.1,0.1-0.1c0,0,2-2.2,1.6-5.2c0-0.1,0.1-0.2,0.2-0.2c0.1,0,0.2,0.1,0.2,0.2
						c0.5,3.2-1.6,5.5-1.7,5.5c-0.1,0.1-0.2,0.1-0.3,0C55.8,91.3,55.8,91.3,55.8,91.3z"/>
				</g>
				<g>
					<path d="M52.7,91.5c0-0.1,0-0.1,0.1-0.1c0,0,2-2.2,1.6-5.2c0-0.1,0.1-0.2,0.2-0.2c0.1,0,0.2,0.1,0.2,0.2
						c0.5,3.2-1.6,5.5-1.7,5.5c-0.1,0.1-0.2,0.1-0.3,0C52.8,91.6,52.7,91.5,52.7,91.5z"/>
				</g>
				<g>
					<path d="M49.7,91.7c0-0.1,0-0.1,0.1-0.1c0,0,2-2.2,1.6-5.2c0-0.1,0.1-0.2,0.2-0.2c0.1,0,0.2,0.1,0.2,0.2
						c0.5,3.2-1.6,5.5-1.7,5.5c-0.1,0.1-0.2,0.1-0.3,0C49.7,91.8,49.7,91.7,49.7,91.7z"/>
				</g>
				<g>
					<path d="M46.7,91.9c0-0.1,0-0.1,0.1-0.1c0,0,2-2.2,1.6-5.2c0-0.1,0.1-0.2,0.2-0.2c0.1,0,0.2,0.1,0.2,0.2
						c0.5,3.2-1.6,5.5-1.7,5.5c-0.1,0.1-0.2,0.1-0.3,0C46.7,92,46.7,92,46.7,91.9z"/>
				</g>
				<g>
					<path d="M43.6,92.1c0-0.1,0-0.1,0.1-0.1c0,0,2-2.2,1.6-5.2c0-0.1,0.1-0.2,0.2-0.2c0.1,0,0.2,0.1,0.2,0.2
						c0.5,3.2-1.6,5.5-1.7,5.5c-0.1,0.1-0.2,0.1-0.3,0C43.6,92.2,43.6,92.2,43.6,92.1z"/>
				</g>
			</g>
			<g>
				<g>
					<path d="M42.2,89.5c0-0.2,0-0.4,0-0.6c0-0.1,0.1-0.2,0.2-0.2c0.1,0,0.2,0.1,0.2,0.2c0,2.9,1.3,3,1.3,3c0.1,0,0.2,0.1,0.2,0.2
						c0,0.1-0.1,0.2-0.2,0.2C43.8,92.3,42.4,92.3,42.2,89.5z"/>
				</g>
				<g>
					<path d="M44.3,87.3c0-0.1,0-0.3,0-0.4c0-0.1,0.1-0.2,0.2-0.2c0.1,0,0.2,0.1,0.2,0.2c0,3,2.3,4.9,2.4,4.9c0.1,0.1,0.1,0.2,0,0.3
						c-0.1,0.1-0.2,0.1-0.3,0C46.7,92,44.5,90.2,44.3,87.3z"/>
				</g>
				<g>
					<path d="M47.3,87c0-0.1,0-0.3,0-0.4c0-0.1,0.1-0.2,0.2-0.2c0.1,0,0.2,0.1,0.2,0.2c0,3,2.3,4.9,2.4,4.9c0.1,0.1,0.1,0.2,0,0.3
						c-0.1,0.1-0.2,0.1-0.3,0C49.7,91.8,47.5,90,47.3,87z"/>
				</g>
				<g>
					<path d="M50.4,86.8c0-0.1,0-0.3,0-0.4c0-0.1,0.1-0.2,0.2-0.2c0.1,0,0.2,0.1,0.2,0.2c0,3,2.3,4.9,2.4,4.9c0.1,0.1,0.1,0.2,0,0.3
						c-0.1,0.1-0.2,0.1-0.3,0C52.7,91.5,50.6,89.8,50.4,86.8z"/>
				</g>
				<g>
					<path d="M53.4,86.6c0-0.1,0-0.3,0-0.4c0-0.1,0.1-0.2,0.2-0.2c0.1,0,0.2,0.1,0.2,0.2c0,3,2.3,4.9,2.4,4.9c0.1,0.1,0.1,0.2,0,0.3
						c-0.1,0.1-0.2,0.1-0.3,0C55.8,91.3,53.6,89.6,53.4,86.6z"/>
				</g>
				<g>
					<path d="M56.4,86.4c0-0.1,0-0.3,0-0.4c0-0.1,0.1-0.2,0.2-0.2c0.1,0,0.2,0.1,0.2,0.2c0,3,2.3,4.9,2.4,4.9c0.1,0.1,0.1,0.2,0,0.3
						c-0.1,0.1-0.2,0.1-0.3,0C58.8,91.1,56.6,89.3,56.4,86.4z"/>
				</g>
				<g>
					<path d="M59.5,86.2c0-0.1,0-0.3,0-0.4c0-0.1,0.1-0.2,0.2-0.2c0.1,0,0.2,0.1,0.2,0.2c0,3,2.3,4.9,2.4,4.9c0.1,0.1,0.1,0.2,0,0.3
						C62.2,91,62,91,62,91C61.9,90.9,59.7,89.1,59.5,86.2z"/>
				</g>
				<g>
					<path d="M62.5,85.9c0-0.1,0-0.3,0-0.4c0-0.1,0.1-0.2,0.2-0.2c0.1,0,0.2,0.1,0.2,0.2c0,3,2.3,4.9,2.4,4.9c0.1,0.1,0.1,0.2,0,0.3
						c-0.1,0.1-0.2,0.1-0.3,0C64.9,90.7,62.7,88.9,62.5,85.9z"/>
				</g>
				<g>
					<path d="M65.6,85.7c0-0.1,0-0.3,0-0.4c0-0.1,0.1-0.2,0.2-0.2c0.1,0,0.2,0.1,0.2,0.2c0,3,2.3,4.9,2.4,4.9c0.1,0.1,0.1,0.2,0,0.3
						c-0.1,0.1-0.2,0.1-0.3,0C67.9,90.4,65.8,88.7,65.6,85.7z"/>
				</g>
				<g>
					<path d="M68.6,85.5c0-0.1,0-0.3,0-0.4c0-0.1,0.1-0.2,0.2-0.2c0.1,0,0.2,0.1,0.2,0.2c0,3,2.3,4.9,2.4,4.9c0.1,0.1,0.1,0.2,0,0.3
						c-0.1,0.1-0.2,0.1-0.3,0C71,90.2,68.8,88.5,68.6,85.5z"/>
				</g>
				<g>
					<path d="M71.6,85.3c0-0.1,0-0.3,0-0.4c0-0.1,0.1-0.2,0.2-0.2c0.1,0,0.2,0.1,0.2,0.2c0,3,2.3,4.9,2.4,4.9c0.1,0.1,0.1,0.2,0,0.3
						c-0.1,0.1-0.2,0.1-0.3,0C74,90,71.8,88.2,71.6,85.3z"/>
				</g>
			</g>
		</g>
		<g>
			<g>
				<g>
					<path d="M72.6,91c0-0.1,0-0.1,0.1-0.2c0,0,1.7-1.7,1.3-4c0-0.1,0.1-0.2,0.2-0.2c0.1,0,0.2,0.1,0.2,0.2c0.4,2.5-1.3,4.3-1.4,4.4
						c-0.1,0.1-0.2,0.1-0.3,0C72.6,91.1,72.6,91.1,72.6,91z"/>
				</g>
				<g>
					<path d="M69.6,91.2c0-0.1,0-0.1,0.1-0.2c0,0,1.7-1.7,1.3-4c0-0.1,0.1-0.2,0.2-0.2c0.1,0,0.2,0.1,0.2,0.2
						c0.4,2.5-1.3,4.3-1.4,4.4c-0.1,0.1-0.2,0.1-0.3,0C69.6,91.3,69.6,91.3,69.6,91.2z"/>
				</g>
				<g>
					<path d="M66.5,91.5c0-0.1,0-0.1,0.1-0.2c0,0,1.7-1.7,1.3-4c0-0.1,0.1-0.2,0.2-0.2c0.1,0,0.2,0.1,0.2,0.2
						c0.4,2.5-1.3,4.3-1.4,4.4c-0.1,0.1-0.2,0.1-0.3,0C66.5,91.6,66.5,91.5,66.5,91.5z"/>
				</g>
				<g>
					<path d="M63.5,91.7c0-0.1,0-0.1,0.1-0.2c0,0,1.7-1.7,1.3-4c0-0.1,0.1-0.2,0.2-0.2c0.1,0,0.2,0.1,0.2,0.2
						c0.4,2.5-1.3,4.3-1.4,4.4c-0.1,0.1-0.2,0.1-0.3,0C63.5,91.8,63.5,91.7,63.5,91.7z"/>
				</g>
				<g>
					<path d="M60.4,91.9c0-0.1,0-0.1,0.1-0.2c0,0,1.7-1.7,1.3-4c0-0.1,0.1-0.2,0.2-0.2c0.1,0,0.2,0.1,0.2,0.2
						c0.4,2.5-1.3,4.3-1.4,4.4c-0.1,0.1-0.2,0.1-0.3,0C60.5,92,60.4,92,60.4,91.9z"/>
				</g>
				<g>
					<path d="M57.4,92.1c0-0.1,0-0.1,0.1-0.2c0,0,1.7-1.7,1.3-4c0-0.1,0.1-0.2,0.2-0.2c0.1,0,0.2,0.1,0.2,0.2
						c0.4,2.5-1.3,4.3-1.4,4.4c-0.1,0.1-0.2,0.1-0.3,0C57.4,92.2,57.4,92.2,57.4,92.1z"/>
				</g>
				<g>
					<path d="M54.4,92.3c0-0.1,0-0.1,0.1-0.2c0,0,1.7-1.7,1.3-4c0-0.1,0.1-0.2,0.2-0.2c0.1,0,0.2,0.1,0.2,0.2
						c0.4,2.5-1.3,4.3-1.4,4.4c-0.1,0.1-0.2,0.1-0.3,0C54.4,92.4,54.4,92.4,54.4,92.3z"/>
				</g>
				<g>
					<path d="M51.3,92.6c0-0.1,0-0.1,0.1-0.2c0,0,1.7-1.7,1.3-4c0-0.1,0.1-0.2,0.2-0.2c0.1,0,0.2,0.1,0.2,0.2
						c0.4,2.5-1.3,4.3-1.4,4.4c-0.1,0.1-0.2,0.1-0.3,0C51.3,92.7,51.3,92.6,51.3,92.6z"/>
				</g>
				<g>
					<path d="M48.3,92.8c0-0.1,0-0.1,0.1-0.2c0,0,1.7-1.7,1.3-4c0-0.1,0.1-0.2,0.2-0.2c0.1,0,0.2,0.1,0.2,0.2
						c0.4,2.5-1.3,4.3-1.4,4.4c-0.1,0.1-0.2,0.1-0.3,0C48.3,92.9,48.3,92.8,48.3,92.8z"/>
				</g>
				<g>
					<path d="M45.2,93c0-0.1,0-0.1,0.1-0.2c0,0,1.7-1.7,1.3-4c0-0.1,0.1-0.2,0.2-0.2c0.1,0,0.2,0.1,0.2,0.2c0.4,2.5-1.3,4.3-1.4,4.4
						c-0.1,0.1-0.2,0.1-0.3,0C45.3,93.1,45.2,93.1,45.2,93z"/>
				</g>
				<g>
					<path d="M42.2,93.2c0-0.1,0-0.1,0.1-0.2c0,0,1.7-1.7,1.3-4c0-0.1,0.1-0.2,0.2-0.2c0.1,0,0.2,0.1,0.2,0.2
						c0.4,2.5-1.3,4.3-1.4,4.4c-0.1,0.1-0.2,0.1-0.3,0C42.2,93.3,42.2,93.3,42.2,93.2z"/>
				</g>
			</g>
			<g>
				<g>
					<path d="M41.4,90.1c0-0.3,0-0.6,0-1c0-0.1,0.1-0.2,0.2-0.2c0.1,0,0.2,0.1,0.2,0.2c0,2.4,0.8,3.9,0.8,4c0,0.1,0,0.2-0.1,0.3
						c-0.1,0.1-0.2,0-0.3-0.1C42.2,93.3,41.6,92.1,41.4,90.1z"/>
				</g>
				<g>
					<path d="M44.5,89.9c0-0.3,0-0.6,0-1c0-0.1,0.1-0.2,0.2-0.2c0.1,0,0.2,0.1,0.2,0.2c0,2.4,0.8,3.9,0.8,4c0.1,0.1,0,0.2-0.1,0.3
						c-0.1,0.1-0.2,0-0.3-0.1C45.2,93,44.6,91.8,44.5,89.9z"/>
				</g>
				<g>
					<path d="M47.5,89.7c0-0.3,0-0.6,0-1c0-0.1,0.1-0.2,0.2-0.2c0.1,0,0.2,0.1,0.2,0.2c0,2.4,0.8,3.9,0.8,4c0,0.1,0,0.2-0.1,0.3
						c-0.1,0.1-0.2,0-0.3-0.1C48.3,92.8,47.7,91.6,47.5,89.7z"/>
				</g>
				<g>
					<path d="M50.6,89.5c0-0.3,0-0.6,0-1c0-0.1,0.1-0.2,0.2-0.2c0.1,0,0.2,0.1,0.2,0.2c0,2.4,0.8,3.9,0.8,4c0,0.1,0,0.2-0.1,0.3
						c-0.1,0.1-0.2,0-0.3-0.1C51.3,92.6,50.7,91.4,50.6,89.5z"/>
				</g>
				<g>
					<path d="M53.6,89.2c0-0.3,0-0.6,0-1c0-0.1,0.1-0.2,0.2-0.2c0.1,0,0.2,0.1,0.2,0.2c0,2.4,0.8,3.9,0.8,4c0,0.1,0,0.2-0.1,0.3
						c-0.1,0.1-0.2,0-0.3-0.1C54.4,92.4,53.7,91.2,53.6,89.2z"/>
				</g>
				<g>
					<path d="M56.6,89c0-0.3,0-0.6,0-1c0-0.1,0.1-0.2,0.2-0.2c0.1,0,0.2,0.1,0.2,0.2c0,2.4,0.8,3.9,0.8,4c0,0.1,0,0.2-0.1,0.3
						c-0.1,0.1-0.2,0-0.3-0.1C57.4,92.1,56.8,91,56.6,89z"/>
				</g>
				<g>
					<path d="M59.7,88.8c0-0.3,0-0.6,0-1c0-0.1,0.1-0.2,0.2-0.2c0.1,0,0.2,0.1,0.2,0.2c0,2.4,0.8,3.9,0.8,4c0.1,0.1,0,0.2-0.1,0.3
						c-0.1,0.1-0.2,0-0.3-0.1C60.4,91.9,59.8,90.7,59.7,88.8z"/>
				</g>
				<g>
					<path d="M62.7,88.6c0-0.3,0-0.6,0-1c0-0.1,0.1-0.2,0.2-0.2c0.1,0,0.2,0.1,0.2,0.2c0,2.4,0.8,3.9,0.8,4c0,0.1,0,0.2-0.1,0.3
						c-0.1,0.1-0.2,0-0.3-0.1C63.5,91.7,62.9,90.5,62.7,88.6z"/>
				</g>
				<g>
					<path d="M65.8,88.4c0-0.3,0-0.6,0-1c0-0.1,0.1-0.2,0.2-0.2c0.1,0,0.2,0.1,0.2,0.2c0,2.4,0.8,3.9,0.8,4c0.1,0.1,0,0.2-0.1,0.3
						c-0.1,0.1-0.2,0-0.3-0.1C66.5,91.5,65.9,90.3,65.8,88.4z"/>
				</g>
				<g>
					<path d="M68.8,88.1c0-0.3,0-0.6,0-1c0-0.1,0.1-0.2,0.2-0.2c0.1,0,0.2,0.1,0.2,0.2c0,2.4,0.8,3.9,0.8,4c0.1,0.1,0,0.2-0.1,0.3
						c-0.1,0.1-0.2,0-0.3-0.1C69.6,91.3,68.9,90.1,68.8,88.1z"/>
				</g>
				<g>
					<path d="M71.8,87.9c0-0.3,0-0.6,0-1c0-0.1,0.1-0.2,0.2-0.2c0.1,0,0.2,0.1,0.2,0.2c0,2.4,0.8,3.9,0.8,4c0,0.1,0,0.2-0.1,0.3
						c-0.1,0.1-0.2,0-0.3-0.1C72.6,91,72,89.9,71.8,87.9z"/>
				</g>
			</g>
		</g>
		<g>
			<g>
				<g>
					<path d="M74.2,91.6c0-0.1,0-0.2,0.1-0.2c0.2-0.1,0.9-0.4,1.1-0.8c0-0.1,0-0.1,0-0.2c0-0.1,0-0.2,0.1-0.3c0.1,0,0.2,0,0.3,0.1
						c0.1,0.2,0.1,0.3,0,0.5c-0.2,0.6-1.2,0.9-1.3,1C74.4,91.8,74.3,91.7,74.2,91.6C74.2,91.6,74.2,91.6,74.2,91.6z"/>
				</g>
				<g>
					<path d="M71.2,91.8c0-0.1,0-0.2,0.1-0.2c0.2-0.1,0.9-0.4,1.1-0.8c0-0.1,0-0.1,0-0.2c0-0.1,0-0.2,0.1-0.3c0.1,0,0.2,0,0.3,0.1
						c0.1,0.2,0.1,0.3,0,0.5c-0.2,0.6-1.2,0.9-1.3,1C71.3,92,71.2,91.9,71.2,91.8C71.2,91.8,71.2,91.8,71.2,91.8z"/>
				</g>
				<g>
					<path d="M68.1,92c0-0.1,0-0.2,0.1-0.2c0.2-0.1,0.9-0.4,1.1-0.8c0-0.1,0-0.1,0-0.2c0-0.1,0-0.2,0.1-0.3c0.1,0,0.2,0,0.3,0.1
						c0.1,0.2,0.1,0.3,0,0.5c-0.2,0.6-1.2,0.9-1.3,1C68.3,92.2,68.2,92.2,68.1,92C68.1,92,68.1,92,68.1,92z"/>
				</g>
				<g>
					<path d="M65.1,92.2c0-0.1,0-0.2,0.1-0.2c0.2-0.1,0.9-0.4,1.1-0.8c0-0.1,0-0.1,0-0.2c0-0.1,0-0.2,0.1-0.3c0.1,0,0.2,0,0.3,0.1
						c0.1,0.2,0.1,0.3,0,0.5c-0.2,0.6-1.2,0.9-1.3,1C65.3,92.4,65.1,92.4,65.1,92.2C65.1,92.3,65.1,92.2,65.1,92.2z"/>
				</g>
				<g>
					<path d="M62,92.4c0-0.1,0-0.2,0.1-0.2c0.2-0.1,0.9-0.4,1.1-0.8c0-0.1,0-0.1,0-0.2c0-0.1,0-0.2,0.1-0.3c0.1,0,0.2,0,0.3,0.1
						c0.1,0.2,0.1,0.3,0,0.5c-0.2,0.6-1.2,0.9-1.3,1C62.2,92.6,62.1,92.6,62,92.4C62.1,92.5,62.1,92.5,62,92.4z"/>
				</g>
				<g>
					<path d="M59,92.7c0-0.1,0-0.2,0.1-0.2c0.2-0.1,0.9-0.4,1.1-0.8c0-0.1,0-0.1,0-0.2c0-0.1,0-0.2,0.1-0.3c0.1,0,0.2,0,0.3,0.1
						c0.1,0.2,0.1,0.3,0,0.5c-0.2,0.6-1.2,0.9-1.3,1C59.2,92.9,59.1,92.8,59,92.7C59,92.7,59,92.7,59,92.7z"/>
				</g>
				<g>
					<path d="M56,92.9c0-0.1,0-0.2,0.1-0.2c0.2-0.1,0.9-0.4,1.1-0.8c0-0.1,0-0.1,0-0.2c0-0.1,0-0.2,0.1-0.3c0.1,0,0.2,0,0.3,0.1
						c0.1,0.2,0.1,0.3,0,0.5c-0.2,0.6-1.2,0.9-1.3,1C56.1,93.1,56,93,56,92.9C56,92.9,56,92.9,56,92.9z"/>
				</g>
				<g>
					<path d="M52.9,93.1c0-0.1,0-0.2,0.1-0.2c0.2-0.1,0.9-0.4,1.1-0.8c0-0.1,0-0.1,0-0.2c0-0.1,0-0.2,0.1-0.3c0.1,0,0.2,0,0.3,0.1
						c0.1,0.2,0.1,0.3,0,0.5c-0.2,0.6-1.2,0.9-1.3,1C53.1,93.3,53,93.3,52.9,93.1C52.9,93.1,52.9,93.1,52.9,93.1z"/>
				</g>
				<g>
					<path d="M49.9,93.3c0-0.1,0-0.2,0.1-0.2c0.2-0.1,0.9-0.4,1.1-0.8c0-0.1,0-0.1,0-0.2c0-0.1,0-0.2,0.1-0.3c0.1,0,0.2,0,0.3,0.1
						c0.1,0.2,0.1,0.3,0,0.5c-0.2,0.6-1.2,0.9-1.3,1C50.1,93.5,49.9,93.5,49.9,93.3C49.9,93.4,49.9,93.3,49.9,93.3z"/>
				</g>
				<g>
					<path d="M46.8,93.5c0-0.1,0-0.2,0.1-0.2c0.2-0.1,0.9-0.4,1.1-0.8c0-0.1,0-0.1,0-0.2c0-0.1,0-0.2,0.1-0.3c0.1,0,0.2,0,0.3,0.1
						c0.1,0.2,0.1,0.3,0,0.5c-0.2,0.6-1.2,0.9-1.3,1C47,93.8,46.9,93.7,46.8,93.5C46.9,93.6,46.9,93.6,46.8,93.5z"/>
				</g>
				<g>
					<path d="M43.8,93.8c0-0.1,0-0.2,0.1-0.2c0.2-0.1,0.9-0.4,1.1-0.8c0-0.1,0-0.1,0-0.2c0-0.1,0-0.2,0.1-0.3c0.1,0,0.2,0,0.3,0.1
						c0.1,0.2,0.1,0.3,0,0.5c-0.2,0.6-1.2,0.9-1.3,1C44,94,43.9,93.9,43.8,93.8C43.8,93.8,43.8,93.8,43.8,93.8z"/>
				</g>
			</g>
			<g>
				<g>
					<path d="M43.6,93.1c0-0.2,0-0.3,0-0.5c0-0.1,0.1-0.2,0.2-0.1c0.1,0,0.2,0.1,0.1,0.2c-0.1,0.6,0.1,0.9,0.1,0.9
						c0.1,0.1,0.1,0.2,0,0.3c-0.1,0.1-0.2,0.1-0.3,0C43.8,93.9,43.6,93.6,43.6,93.1z"/>
				</g>
				<g>
					<path d="M46.6,92.9c0-0.2,0-0.3,0-0.5c0-0.1,0.1-0.2,0.2-0.1c0.1,0,0.2,0.1,0.1,0.2c-0.1,0.6,0.1,0.9,0.1,0.9
						c0.1,0.1,0.1,0.2,0,0.3c-0.1,0.1-0.2,0.1-0.3,0C46.9,93.6,46.7,93.4,46.6,92.9z"/>
				</g>
				<g>
					<path d="M49.7,92.7c0-0.2,0-0.3,0-0.5c0-0.1,0.1-0.2,0.2-0.1c0.1,0,0.2,0.1,0.1,0.2c-0.1,0.6,0.1,0.9,0.1,0.9
						c0.1,0.1,0.1,0.2,0,0.3c-0.1,0.1-0.2,0.1-0.3,0C49.9,93.4,49.7,93.1,49.7,92.7z"/>
				</g>
				<g>
					<path d="M52.7,92.5c0-0.2,0-0.3,0-0.5c0-0.1,0.1-0.2,0.2-0.1c0.1,0,0.2,0.1,0.1,0.2C53,92.6,53.3,93,53.3,93
						c0.1,0.1,0.1,0.2,0,0.3c-0.1,0.1-0.2,0.1-0.3,0C53,93.2,52.7,92.9,52.7,92.5z"/>
				</g>
				<g>
					<path d="M55.7,92.2c0-0.2,0-0.3,0-0.5c0-0.1,0.1-0.2,0.2-0.1c0.1,0,0.2,0.1,0.1,0.2c-0.1,0.6,0.1,0.9,0.1,0.9
						c0.1,0.1,0.1,0.2,0,0.3c-0.1,0.1-0.2,0.1-0.3,0C56,93,55.8,92.7,55.7,92.2z"/>
				</g>
				<g>
					<path d="M58.8,92c0-0.2,0-0.3,0-0.5c0-0.1,0.1-0.2,0.2-0.1c0.1,0,0.2,0.1,0.1,0.2c-0.1,0.6,0.1,0.9,0.1,0.9
						c0.1,0.1,0.1,0.2,0,0.3c-0.1,0.1-0.2,0.1-0.3,0C59,92.8,58.8,92.5,58.8,92z"/>
				</g>
				<g>
					<path d="M61.8,91.8c0-0.2,0-0.3,0-0.5c0-0.1,0.1-0.2,0.2-0.1c0.1,0,0.2,0.1,0.1,0.2c-0.1,0.6,0.1,0.9,0.1,0.9
						c0.1,0.1,0.1,0.2,0,0.3c-0.1,0.1-0.2,0.1-0.3,0C62.1,92.5,61.9,92.3,61.8,91.8z"/>
				</g>
				<g>
					<path d="M64.9,91.6c0-0.2,0-0.3,0-0.5c0-0.1,0.1-0.2,0.2-0.1c0.1,0,0.2,0.1,0.1,0.2c-0.1,0.6,0.1,0.9,0.1,0.9
						c0.1,0.1,0.1,0.2,0,0.3c-0.1,0.1-0.2,0.1-0.3,0C65.1,92.3,64.9,92,64.9,91.6z"/>
				</g>
				<g>
					<path d="M67.9,91.4c0-0.2,0-0.3,0-0.5c0-0.1,0.1-0.2,0.2-0.1c0.1,0,0.2,0.1,0.1,0.2c-0.1,0.6,0.1,0.9,0.1,0.9
						c0.1,0.1,0.1,0.2,0,0.3c-0.1,0.1-0.2,0.1-0.3,0C68.2,92.1,67.9,91.8,67.9,91.4z"/>
				</g>
				<g>
					<path d="M70.9,91.1c0-0.2,0-0.3,0-0.5c0-0.1,0.1-0.2,0.2-0.1c0.1,0,0.2,0.1,0.1,0.2c-0.1,0.6,0.1,0.9,0.1,0.9
						c0.1,0.1,0.1,0.2,0,0.3c-0.1,0.1-0.2,0.1-0.3,0C71.2,91.9,71,91.6,70.9,91.1z"/>
				</g>
				<g>
					<path d="M74,90.9c0-0.2,0-0.3,0-0.5c0-0.1,0.1-0.2,0.2-0.1c0.1,0,0.2,0.1,0.1,0.2c-0.1,0.6,0.1,0.9,0.1,0.9
						c0.1,0.1,0.1,0.2,0,0.3c-0.1,0.1-0.2,0.1-0.3,0C74.2,91.7,74,91.4,74,90.9z"/>
				</g>
			</g>
		</g>
		<g>
			<g>
				<g>
					<path d="M74.2,91.6C74.2,91.6,74.2,91.5,74.2,91.6c0.1-0.2,0.2-0.2,0.3-0.2c0.1,0,1.7,0.7,1.5,2c0,0.1-0.1,0.2-0.2,0.2
						c-0.1,0-0.2-0.1-0.2-0.2c0.1-1-1.3-1.6-1.3-1.6C74.3,91.7,74.2,91.7,74.2,91.6z"/>
				</g>
				<g>
					<path d="M71.2,91.8C71.2,91.8,71.2,91.8,71.2,91.8c0.1-0.2,0.2-0.2,0.3-0.2c0.1,0,1.7,0.7,1.5,2c0,0.1-0.1,0.2-0.2,0.2
						c-0.1,0-0.2-0.1-0.2-0.2c0.1-1-1.3-1.6-1.3-1.6C71.2,92,71.2,91.9,71.2,91.8z"/>
				</g>
				<g>
					<path d="M68.1,92C68.1,92,68.1,92,68.1,92c0.1-0.2,0.2-0.2,0.3-0.2c0.1,0,1.7,0.7,1.5,2c0,0.1-0.1,0.2-0.2,0.2
						c-0.1,0-0.2-0.1-0.2-0.2c0.1-1-1.3-1.6-1.3-1.6C68.2,92.2,68.1,92.1,68.1,92z"/>
				</g>
				<g>
					<path d="M65.1,92.3C65.1,92.2,65.1,92.2,65.1,92.3c0.1-0.2,0.2-0.2,0.3-0.2c0.1,0,1.7,0.7,1.5,2c0,0.1-0.1,0.2-0.2,0.2
						c-0.1,0-0.2-0.1-0.2-0.2c0.1-1-1.3-1.6-1.3-1.6C65.1,92.4,65.1,92.3,65.1,92.3z"/>
				</g>
				<g>
					<path d="M62.1,92.5C62.1,92.5,62.1,92.4,62.1,92.5c0.1-0.2,0.2-0.2,0.3-0.2c0.1,0,1.7,0.7,1.5,2c0,0.1-0.1,0.2-0.2,0.2
						c-0.1,0-0.2-0.1-0.2-0.2c0.1-1-1.3-1.6-1.3-1.6C62.1,92.6,62.1,92.6,62.1,92.5z"/>
				</g>
				<g>
					<path d="M59,92.7C59,92.7,59,92.6,59,92.7c0.1-0.2,0.2-0.2,0.3-0.2c0.1,0,1.7,0.7,1.5,2c0,0.1-0.1,0.2-0.2,0.2
						c-0.1,0-0.2-0.1-0.2-0.2c0.1-1-1.3-1.6-1.3-1.6C59.1,92.8,59,92.8,59,92.7z"/>
				</g>
				<g>
					<path d="M56,92.9C56,92.9,56,92.9,56,92.9c0.1-0.2,0.2-0.2,0.3-0.2c0.1,0,1.7,0.7,1.5,2c0,0.1-0.1,0.2-0.2,0.2
						c-0.1,0-0.2-0.1-0.2-0.2c0.1-1-1.3-1.6-1.3-1.6C56,93.1,56,93,56,92.9z"/>
				</g>
				<g>
					<path d="M52.9,93.1C52.9,93.1,52.9,93.1,52.9,93.1c0.1-0.2,0.2-0.2,0.3-0.2c0.1,0,1.7,0.7,1.5,2c0,0.1-0.1,0.2-0.2,0.2
						c-0.1,0-0.2-0.1-0.2-0.2c0.1-1-1.3-1.6-1.3-1.6C53,93.3,52.9,93.2,52.9,93.1z"/>
				</g>
				<g>
					<path d="M49.9,93.4C49.9,93.3,49.9,93.3,49.9,93.4c0.1-0.2,0.2-0.2,0.3-0.2c0.1,0,1.7,0.7,1.5,2c0,0.1-0.1,0.2-0.2,0.2
						c-0.1,0-0.2-0.1-0.2-0.2c0.1-1-1.3-1.6-1.3-1.6C49.9,93.5,49.9,93.4,49.9,93.4z"/>
				</g>
				<g>
					<path d="M46.9,93.6C46.8,93.6,46.9,93.5,46.9,93.6c0.1-0.2,0.2-0.2,0.3-0.2c0.1,0,1.7,0.7,1.5,2c0,0.1-0.1,0.2-0.2,0.2
						c-0.1,0-0.2-0.1-0.2-0.2c0.1-1-1.3-1.6-1.3-1.6C46.9,93.7,46.9,93.7,46.9,93.6z"/>
				</g>
				<g>
					<path d="M43.8,93.8C43.8,93.8,43.8,93.7,43.8,93.8c0.1-0.2,0.2-0.2,0.3-0.2c0.1,0,1.7,0.7,1.5,2c0,0.1-0.1,0.2-0.2,0.2
						c-0.1,0-0.2-0.1-0.2-0.2c0.1-1-1.3-1.6-1.3-1.6C43.9,93.9,43.8,93.9,43.8,93.8z"/>
				</g>
			</g>
			<g>
				<g>
					<path d="M43.7,94.9c-0.1-0.7,0.1-1.2,0.1-1.2c0-0.1,0.1-0.2,0.2-0.1c0.1,0,0.2,0.1,0.1,0.2c0,0-0.2,0.7,0,1.8
						c0,0.1,0,0.2-0.1,0.2c-0.1,0-0.2,0-0.2-0.1C43.8,95.4,43.7,95.2,43.7,94.9z"/>
				</g>
				<g>
					<path d="M46.8,94.7c-0.1-0.7,0.1-1.2,0.1-1.2c0-0.1,0.1-0.2,0.2-0.1c0.1,0,0.2,0.1,0.1,0.2c0,0-0.2,0.7,0,1.8
						c0,0.1,0,0.2-0.1,0.2c-0.1,0-0.2,0-0.2-0.1C46.8,95.2,46.8,94.9,46.8,94.7z"/>
				</g>
				<g>
					<path d="M49.8,94.5c-0.1-0.7,0.1-1.2,0.1-1.2c0-0.1,0.1-0.2,0.2-0.1c0.1,0,0.2,0.1,0.1,0.2c0,0-0.2,0.7,0,1.8
						c0,0.1,0,0.2-0.1,0.2c-0.1,0-0.2,0-0.2-0.1C49.9,95,49.8,94.7,49.8,94.5z"/>
				</g>
				<g>
					<path d="M52.8,94.3c-0.1-0.7,0.1-1.2,0.1-1.2c0-0.1,0.1-0.2,0.2-0.1c0.1,0,0.2,0.1,0.1,0.2c0,0-0.2,0.7,0,1.8
						c0,0.1,0,0.2-0.1,0.2c-0.1,0-0.2,0-0.2-0.1C52.9,94.8,52.9,94.5,52.8,94.3z"/>
				</g>
				<g>
					<path d="M55.9,94c-0.1-0.7,0.1-1.2,0.1-1.2c0-0.1,0.1-0.2,0.2-0.1c0.1,0,0.2,0.1,0.1,0.2c0,0-0.2,0.7,0,1.8
						c0,0.1,0,0.2-0.1,0.2c-0.1,0-0.2,0-0.2-0.1C55.9,94.6,55.9,94.3,55.9,94z"/>
				</g>
				<g>
					<path d="M58.9,93.8c-0.1-0.7,0.1-1.2,0.1-1.2c0-0.1,0.1-0.2,0.2-0.1c0.1,0,0.2,0.1,0.1,0.2c0,0-0.2,0.7,0,1.8
						c0,0.1,0,0.2-0.1,0.2c-0.1,0-0.2,0-0.2-0.1C59,94.3,58.9,94.1,58.9,93.8z"/>
				</g>
				<g>
					<path d="M62,93.6c-0.1-0.7,0.1-1.2,0.1-1.2c0-0.1,0.1-0.2,0.2-0.1c0.1,0,0.2,0.1,0.1,0.2c0,0-0.2,0.7,0,1.8
						c0,0.1,0,0.2-0.1,0.2c-0.1,0-0.2,0-0.2-0.1C62,94.1,62,93.8,62,93.6z"/>
				</g>
				<g>
					<path d="M65,93.4c-0.1-0.7,0.1-1.2,0.1-1.2c0-0.1,0.1-0.2,0.2-0.1c0.1,0,0.2,0.1,0.1,0.2c0,0-0.2,0.7,0,1.8
						c0,0.1,0,0.2-0.1,0.2c-0.1,0-0.2,0-0.2-0.1C65.1,93.9,65,93.6,65,93.4z"/>
				</g>
				<g>
					<path d="M68,93.1C68,92.4,68.1,92,68.1,92c0-0.1,0.1-0.2,0.2-0.1c0.1,0,0.2,0.1,0.1,0.2c0,0-0.2,0.7,0,1.8c0,0.1,0,0.2-0.1,0.2
						c-0.1,0-0.2,0-0.2-0.1C68.1,93.7,68.1,93.4,68,93.1z"/>
				</g>
				<g>
					<path d="M71.1,92.9c-0.1-0.7,0.1-1.2,0.1-1.2c0-0.1,0.1-0.2,0.2-0.1c0.1,0,0.2,0.1,0.1,0.2c0,0-0.2,0.7,0,1.8
						c0,0.1,0,0.2-0.1,0.2c-0.1,0-0.2,0-0.2-0.1C71.1,93.4,71.1,93.2,71.1,92.9z"/>
				</g>
				<g>
					<path d="M74.1,92.7c-0.1-0.7,0.1-1.2,0.1-1.2c0-0.1,0.1-0.2,0.2-0.1c0.1,0,0.2,0.1,0.1,0.2c0,0-0.2,0.7,0,1.8
						c0,0.1,0,0.2-0.1,0.2c-0.1,0-0.2,0-0.2-0.1C74.2,93.2,74.1,93,74.1,92.7z"/>
				</g>
			</g>
		</g>
	</g>
	<path class="st8" d="M109.9,96.8c-0.2,0-0.4-0.1-0.5-0.1c-0.2-0.1-0.4-0.1-0.5-0.2c-0.4-0.2-0.5-0.6-0.5-1c0.1-0.5,0.3-0.8,0.6-1.2
		c0.1-0.1,0.2-0.2,0.4-0.3c-0.4-1-0.4-1.1-0.2-2c0,0,0-0.1-0.1-0.1c-1.1-0.9-1.3-2.1-1-3.4c0.1-0.3,0.2-0.7,0.4-1
		c0.9-1.8,2.2-3.2,3.9-4.2c0.6-0.3,1.2-0.6,1.8-0.8c3.1-1.2,6.3-2,9.6-2.3c0.8-0.1,1.7-0.1,2.5-0.2c1.1-0.1,2.1-0.3,3.2-0.4
		c1.4-0.1,2.7-0.2,4.1,0c3.1,0.4,5.9,1.3,8.6,3c1.2,0.7,2.2,1.7,2.9,2.9c0.2,0.3,0.4,0.7,0.7,1c0.3,0.4,0.5,0.9,0.4,1.5
		c0,0.1,0,0.1,0,0.2c0.7,0.4,1.1,1,1.3,1.8c0.2,0.8,0,1.5-0.4,2.1c0.6,0.7,0.8,1.5,0.8,2.4c0,0.6-0.2,1-0.6,1.4
		c0.3,1.2,0.2,2.3-0.2,3.4c-0.4,1.1-1.2,1.9-2.2,2.5c-0.5,0.3-1.1,0.5-1.7,0.6c-1.7,0.4-3.4,0.7-5.2,1.1c-2.7,0.5-5.5,0.9-8.3,1
		c-1.8,0.1-3.6,0.1-5.5,0c-0.6-0.1-1.3-0.1-1.9-0.1c-1.7-0.1-3.5-0.5-5.2-0.8c-1.3-0.3-2.6-0.7-3.8-1.2c-1.7-0.7-2.8-2-3.4-3.7
		C109.8,98,109.7,97.4,109.9,96.8z"/>
	<path d="M109.9,96.8c-0.2,0-0.4-0.1-0.5-0.1c-0.2-0.1-0.4-0.1-0.5-0.2c-0.4-0.2-0.5-0.6-0.5-1c0.1-0.5,0.3-0.8,0.6-1.2
		c0.1-0.1,0.2-0.2,0.4-0.3c-0.4-1-0.4-1.1-0.2-2c0,0,0-0.1-0.1-0.1c-1.1-0.9-1.3-2.1-1-3.4c0.1-0.3,0.2-0.7,0.4-1
		c0.9-1.8,2.2-3.2,3.9-4.2c0.6-0.3,1.2-0.6,1.8-0.8c3.1-1.2,6.3-2,9.6-2.3c0.8-0.1,1.7-0.1,2.5-0.2c1.1-0.1,2.1-0.3,3.2-0.4
		c1.4-0.1,2.7-0.2,4.1,0c3.1,0.4,5.9,1.3,8.6,3c1.2,0.7,2.2,1.7,2.9,2.9c0.2,0.3,0.4,0.7,0.7,1c0.3,0.4,0.5,0.9,0.4,1.5
		c0,0.1,0,0.1,0,0.2c0.7,0.4,1.1,1,1.3,1.8c0.2,0.8,0,1.5-0.4,2.1c0.6,0.7,0.8,1.5,0.8,2.4c0,0.6-0.2,1-0.6,1.4
		c0.3,1.2,0.2,2.3-0.2,3.4c-0.4,1.1-1.2,1.9-2.2,2.5c-0.5,0.3-1.1,0.5-1.7,0.6c-1.7,0.4-3.4,0.7-5.2,1.1c-2.7,0.5-5.5,0.9-8.3,1
		c-1.8,0.1-3.6,0.1-5.5,0c-0.6-0.1-1.3-0.1-1.9-0.1c-1.7-0.1-3.5-0.5-5.2-0.8c-1.3-0.3-2.6-0.7-3.8-1.2c-1.7-0.7-2.8-2-3.4-3.7
		C109.8,98,109.7,97.4,109.9,96.8z M110.7,97.8C110.7,97.7,110.7,97.7,110.7,97.8C110.7,97.7,110.7,97.7,110.7,97.8
		c0,0.1,0,0.3,0,0.4c0.5,1.5,1.3,2.6,2.8,3.2c1.2,0.5,2.5,0.9,3.7,1.2c2.7,0.7,5.5,0.9,8.3,0.9c2.9,0,5.8-0.2,8.7-0.7
		c2.8-0.4,5.5-1,8.2-1.6c0.3-0.1,0.6-0.1,0.8-0.2c1.1-0.4,1.9-1.1,2.5-2c0.5-0.7,0.6-1.5,0.4-2.4c-0.4,0.1-0.4,0.1-0.5,0.2
		c-0.1,0.1-0.2,0.3-0.3,0.4c-0.9,1.3-2.2,1.9-3.7,1.6c-0.4-0.1-0.9,0-1.3,0.1c-0.4,0.1-0.7,0.3-1.1,0.4c-1.2,0.4-2.5,0.5-3.7-0.1
		c-0.2,0-0.4,0.1-0.5,0.1c-0.7,0.2-1.4,0.2-2.1-0.1c-0.5-0.2-1-0.3-1.5-0.6c-0.5-0.2-0.9-0.2-1.3,0c-0.4,0.2-0.7,0.4-1.1,0.5
		c-1,0.5-2.1,0.8-3.2,0.6c-0.2,0-0.5,0-0.7,0.1c-0.3,0.1-0.5,0.2-0.7,0.3c-0.4,0.1-0.9,0.3-1.3,0.4c-0.7,0.1-1.4,0.2-2.1,0.4
		c-0.2,0-0.4,0.1-0.6,0.1c-0.6,0.1-1.2-0.1-1.7-0.4c-0.1-0.1-0.2-0.2-0.4-0.3c-0.2-0.2-0.5-0.2-0.7-0.2c-0.3,0.1-0.6,0.1-1,0.1
		c-0.8,0.1-1.6-0.1-2.1-0.8c-0.3-0.4-0.7-0.5-1.2-0.5c-0.3,0-0.6,0-1,0C111.8,98.9,111.1,98.6,110.7,97.8z M119.4,82
		c0.5,0.3,0.8,0.6,1.1,0.8c0.8,0.7,1.6,1.5,2.2,2.4c0.3,0.4,0.5,0.9,0.7,1.4c0.1,0.3,0.2,0.7,0.1,1.1c-0.1,1-0.8,1.2-1.4,0.9
		c-0.6-0.2-1.2-0.6-1.7-1c-0.5-0.5-1-1-1.5-1.5c-0.4-0.4-0.8-0.8-1.2-1.1c-1.1-0.8-2.3-1.2-3.6-1.3c-1.9,0.8-3.2,2.1-4.2,3.8
		c-0.2,0.4-0.4,0.8-0.5,1.2c-0.3,1.1,0.1,1.8,1,2.3c0.5,0.3,1,0.5,1.6,0.7c1.1,0.3,2.2,0.4,3.3,0.4c2.1,0.2,4.2,0.3,6.2,0.2
		c1.4,0,2.8,0,4.3-0.1c3.5-0.2,6.9-0.7,10.4-1.4c2.1-0.4,4.1-1,6.1-1.6c0.7-0.2,1.4-0.5,2-1c0.5-0.4,0.8-0.9,0.7-1.5
		c0-0.2,0-0.4-0.1-0.4c-0.8-0.9-1.5-1.7-2.4-2.4c-0.9-0.7-1.8-1.2-2.8-1.7c-1-0.5-2-0.9-3.1-1.1c-1.7-0.4-2.7-0.5-3.2-0.4
		c0.1,0.1,0.2,0.2,0.4,0.3c0.3,0.2,0.5,0.5,0.7,0.9c0.7,1.5,0.4,3-0.6,4.2c-0.1,0.1-0.2,0.2-0.3,0.2c-0.3,0.2-0.6,0.2-0.9,0
		c-0.1-0.1-0.2-0.2-0.3-0.3c-0.5-0.5-1.1-1.1-1.6-1.6c-1.3-1.4-2.9-2.4-4.7-3c-0.7-0.2-1.4-0.4-2.1-0.3c-0.8,0.1-1.6,0.2-2.4,0.3
		C121,81.7,120.3,81.9,119.4,82z M109.1,95.8c0.2,0.1,0.3,0.2,0.5,0.2c0.2,0.1,0.4,0.1,0.6,0.1c0.7,0.1,1.2,0.4,1.5,1.1
		c0,0,0,0,0,0.1c0.2,0.4,0.5,0.6,0.9,0.7c0.4,0.1,0.9,0.2,1.3,0.2c0.5,0,1,0.2,1.5,0.5c0.4,0.3,0.8,0.5,1.3,0.5c0.4,0,0.8,0,1.2,0
		c0.5,0,1,0,1.4,0.3c0.5,0.4,1.1,0.4,1.7,0.4c0.5,0,1-0.1,1.5-0.2c0.7-0.1,1.3-0.3,1.9-0.7c0.7-0.5,1.5-0.6,2.3-0.6
		c1.1,0.1,2.2,0,3.3-0.5c0.1,0,0.2-0.1,0.3-0.1c0.6-0.2,1.1-0.2,1.7-0.1c0.4,0.1,0.9,0.2,1.3,0.3c0.7,0.2,1.4,0.2,2.1,0.1
		c0.4-0.1,0.7-0.1,1.1-0.1c0.4,0,0.9,0,1.3,0c0,0,0,0,0.1,0c0,0,0,0,0-0.1c-0.4-0.1-0.8-0.3-1.2-0.5c-1-0.5-2-1-3-1.5
		c-0.5-0.2-0.9-0.5-1.5-0.4c-0.2,0-0.5,0-0.7-0.1c-0.6-0.2-1.1-0.1-1.6,0.2c-0.4,0.2-0.8,0.4-1.2,0.5c-0.7,0.2-1.3,0.2-1.9-0.3
		c-0.2-0.1-0.3-0.2-0.5-0.2c-0.3,0.3-0.5,0.5-0.8,0.8c-0.9,0.7-1.8,1.5-2.7,2.2c-0.2,0.1-0.4,0.3-0.6,0.4c-0.4,0.2-0.7,0.3-1.1,0.1
		c-0.5-0.2-1-0.4-1.5-0.6c-1.7-0.6-3.4-1.2-4.9-2.2c-0.3-0.2-0.7-0.4-1-0.6c-0.2-0.1-0.4-0.3-0.6-0.4c-0.3-0.3-0.7-0.5-1-0.8
		c-0.4,0-0.7,0.1-1.1,0c-0.3,0-0.7-0.2-1-0.3C109.6,94.8,109.2,95.2,109.1,95.8z M142,94.1c-0.1,0.1-0.2,0.3-0.3,0.4
		c-0.5,0.6-1,1.3-1.6,1.9c-0.5,0.6-1,1.3-1.9,1.7c0.7,0,1.2-0.1,1.8-0.2c0.6-0.2,1.3-0.3,2-0.3c0.5,0,1.1-0.1,1.6-0.1
		c0.6-0.1,1.1-0.4,1.4-0.8c0.4-0.5,0.8-1,1.4-1.4c0.4-0.2,0.5-0.6,0.5-1c0-0.5-0.1-1-0.2-1.6c-1.4,0.8-1.2,1-3,0.6
		C143.1,93.5,142.6,93.8,142,94.1z M122.5,93.7c0.2,0.9,0.7,1.3,1.4,1.4c0.5,0.1,0.9,0,1.4-0.1c0.7-0.2,1.4-0.2,2.1,0.1
		c0.3,0.1,0.7,0.2,1,0.1c0.3-0.1,0.7-0.1,1-0.3c0.8-0.3,1.6-0.5,2.5-0.5c0.5,0,1.1-0.1,1.6-0.2c0.9-0.2,1.5-0.9,1.6-1.9
		c-1.4,0.2-2.8,0.4-4.2,0.6c-1.4,0.2-2.8,0.4-4.2,0.5C125.4,93.6,124,93.6,122.5,93.7z M136.4,92.2c0.2,0.6,0.6,0.9,1.1,1
		c0.4,0.1,0.9,0.1,1.3-0.1c0.3-0.1,0.5-0.2,0.8-0.3c0.5-0.2,0.9-0.3,1.4,0c0.2,0.1,0.3,0.1,0.5,0.2c0.5,0.1,0.9,0.1,1.3-0.1
		c0.6-0.4,1.2-0.6,1.9-0.8c0.4-0.1,0.7-0.3,1-0.6c0.6-0.6,0.7-1.3,0.3-2.1c-0.1-0.2-0.2-0.4-0.3-0.6c-0.4,0.3-0.7,0.5-1.1,0.8
		c-0.6,0.4-1.3,0.7-2.1,0.9c-1.8,0.6-3.6,1.1-5.5,1.4C136.9,92.1,136.7,92.1,136.4,92.2z M121,93.6c-0.6,0-1.1-0.1-1.6-0.1
		c-2,0-3.9-0.2-5.9-0.4c-1.1-0.1-2.2-0.4-3.3-0.8c-0.1,0-0.2-0.1-0.4-0.1c-0.1,0.5-0.1,0.7,0,1c0.2,0.7,0.7,1,1.4,1
		c0.1,0,0.3,0,0.4,0c0.4-0.1,0.9,0,1.3,0.2c0.7,0.3,1.3,0.5,2.1,0.3c0.5-0.1,1,0,1.5,0.3c0.4,0.3,0.8,0.4,1.3,0.5
		c0.6,0.1,1.1,0,1.7-0.2C120.4,95.2,120.9,94.6,121,93.6z M133.3,85.9c0.7-0.6,1.2-1.2,1.1-2.1c0-0.8-0.4-1.4-0.9-1.9
		c-0.3-0.3-0.7-0.5-1.1-0.8c-0.3-0.2-0.6-0.3-1-0.3c-1.2,0.1-2.5,0.2-3.7,0.3c-0.1,0-0.2,0-0.2,0.1
		C130.3,82.6,130.4,82.4,133.3,85.9z M122.9,88.2c0.3-0.3,0.2-0.6,0.1-0.9c-0.1-0.5-0.3-1-0.6-1.4c-0.7-0.9-1.4-1.8-2.3-2.5
		c-0.5-0.4-1.1-0.8-1.7-1c-1.2,0.3-2.6,0.8-3,1.1c1.9,0.4,3.3,1.4,4.6,2.7c0.3,0.3,0.6,0.6,0.9,0.8c0.4,0.4,0.9,0.7,1.3,1.1
		C122.4,88.1,122.6,88.3,122.9,88.2z M134.2,95.5c0.4,0.2,0.7,0.3,1,0.5c0.8,0.4,1.5,0.7,2.2,1.1c0.2,0.1,0.5,0.2,0.7,0.1
		c1-0.7,2.7-2.6,3-3.2c-0.3-0.2-0.6-0.4-0.9-0.6c-0.2,0.1-0.4,0.2-0.6,0.2c-0.3,0.1-0.7,0.3-1,0.4c-0.5,0.2-1.1,0.2-1.6,0.1
		c-0.3-0.1-0.6-0.3-0.9-0.4c-0.3,0.3-0.5,0.7-0.8,1C135.1,95,134.6,95.2,134.2,95.5z M121.3,98.5c1.1-0.6,2.1-1.4,3.1-2.1
		c-0.5-0.1-0.8-0.1-1.2-0.1c-0.4-0.1-0.7-0.3-1-0.6c-0.2-0.3-0.4-0.6-0.6-0.9c-0.1,0.1-0.3,0.3-0.4,0.4c-0.9,0.8-1.9,1.3-3.1,1.5
		c-0.8,0.1-1.5,0-2.1-0.6c-0.1-0.1-0.3-0.2-0.4-0.3c-0.3,0-0.5,0.1-0.8,0.2c0.3,0.2,0.6,0.4,0.9,0.5C117.5,97,119.4,97.7,121.3,98.5
		z"/>
	<path class="st11" d="M121.6,43c0,0,2.8,1.9,3.8,0c0.9-1.9-0.9-3.8-0.9-3.8"/>
	<ellipse class="st0" cx="102.8" cy="29.7" rx="2.8" ry="1.9"/>
	<ellipse class="st1" cx="56.5" cy="29.7" rx="2.8" ry="1.9"/>
	<path class="st0" d="M117,30.7H80.8h-2.3H42.2c-1.6,0-2.9,1.3-2.9,2.9V36h39.1h2.3h39.1v-2.5C119.9,32,118.6,30.7,117,30.7z"/>
	<g>
		<circle class="st12" cx="44.2" cy="33.5" r="0.9"/>
		<circle class="st13" cx="53.3" cy="33.5" r="0.9"/>
		<circle class="st14" cx="62.4" cy="33.5" r="0.9"/>
		<circle class="st15" cx="71.5" cy="33.5" r="0.9"/>
		<circle class="st16" cx="80.6" cy="33.5" r="0.9"/>
		<circle class="st17" cx="89.7" cy="33.5" r="0.9"/>
		<circle class="st18" cx="98.8" cy="33.5" r="0.9"/>
		<circle class="st19" cx="107.8" cy="33.5" r="0.9"/>
		<circle class="st0" cx="116.9" cy="33.5" r="0.9"/>
	</g>
	<g>
		<path d="M54.8,28.7c-0.1-0.1-0.1-0.2-0.2-0.3c0.2,0.2,0.3,0.3,0.5,0.5c0.3,0.4,0.7,0.8,1,1.2c0.1,0.2,0.3,0.4,0.4,0.5
			c1,1.3,2.1,2.3,3.4,3.2c1.1,0.7,2.7,1.5,3.9,0.5c1-0.9,1.3-2.5,0.4-3.6c-0.9-1.1-2.1-1.8-3.2-2.6c-1.4-1-2.8-2.1-4-3.4
			c-1-1.1-1.7-2.6-3.4-2.9"/>
		<path class="st2" d="M54.4,23.7c0.6,1.8,2,3.1,3.3,4.4c0.7,0.7,1.4,1.4,2.1,2c0.7,0.6,1.5,1.1,2.5,0.9c0.7-0.1,1.3-0.4,2-0.1
			c0-0.1-0.1-0.1-0.1-0.2c-0.9-1.1-2.1-1.8-3.2-2.6c-1.4-1-2.8-2.1-4-3.4c-1-1-1.7-2.4-3.1-2.8C54,22.4,54.2,23.1,54.4,23.7z"/>
		<path class="st2" d="M51.9,24.1C51.9,24.1,51.9,24.1,51.9,24.1"/>
		<g>
			<path class="st5" d="M63.1,32.9c-0.4,0.3-0.8,0.7-1.3,0.8c-0.4,0.1-1-0.2-1.3-0.4c-1.1-0.6-2.1-1.5-3.1-2.3
				c-0.5-0.5-1.1-1-1.6-1.5c-0.4-0.4-0.9-0.9-1.4-1.2c0,0,0.1,0.2,0.1,0.2c0.1,0.2,0.3,0.3,0.4,0.5c0.3,0.4,0.7,0.8,1,1.2
				c0.1,0.2,0.3,0.4,0.4,0.5c1,1.3,2.1,2.3,3.4,3.2c1.1,0.7,2.7,1.5,3.9,0.5c0.4-0.3,0.7-0.8,0.8-1.2C64.3,32.6,63.6,32.6,63.1,32.9
				z"/>
		</g>
		<g>
			<g>
				<g>
					<path d="M52.1,24.6"/>
				</g>
				<path class="st20" d="M52.1,25.6c0.1-0.1,0.1-0.2,0.1-0.4"/>
			</g>
		</g>
	</g>
	<g>
		<path class="st0" d="M122,38.8c0-1.3-1-2.3-2.2-2.3l-39.5-0.8v0l-0.7,0l-0.7,0v0l-39.5,0.8c-1.2,0-2.2,1.1-2.2,2.3v4l42.4,2.6
			l42.4-2.6V38.8z"/>
	</g>
</g>
</svg>
