<?xml version="1.0" encoding="utf-8"?>
<!-- Generator: Adobe Illustrator 23.0.1, SVG Export Plug-In . SVG Version: 6.00 Build 0)  -->
<svg version="1.1" id="Слой_1" xmlns="http://www.w3.org/2000/svg" xmlns:xlink="http://www.w3.org/1999/xlink" x="0px" y="0px"
	 viewBox="0 0 131.6 113.1" style="enable-background:new 0 0 131.6 113.1;" xml:space="preserve">
<style type="text/css">
	.st0{fill:#FFFFFF;stroke:#000000;stroke-width:1.1298;stroke-linecap:round;stroke-linejoin:round;stroke-miterlimit:10;}
	.st1{fill:#FFFFFF;stroke:#1A1A1A;stroke-width:1.1298;stroke-linecap:round;stroke-linejoin:round;stroke-miterlimit:10;}
	.st2{fill:#FFFFFF;}
	.st3{fill:#1A1A1A;}
</style>
<g>
	<g>
		<path class="st0" d="M88.5,75.2c3.8,0.3,8,3.4,4.7,7.9c-3.5,3.2-10.3-0.1-10.6-4.6c-16.8,4.7-61.9-5.2-72.7-9.9
			c0.1,0.1-1,1.6-1.1,1.7c-1,1.3-2.5,2.3-4.1,2.2c-1.5-0.1-2.7-1.1-3.5-2.3c-1.1-1.7-0.7-3.9,0.5-5.5c0.5-0.7,1.2-1.2,2-1.6
			c0.1,0,1.5-0.5,1.5-0.5C0,35,17.2,9.5,17.2,9.5S11.9,6.1,16,1.9c0.4-0.4,0.7-0.7,1.1-0.9c0,0,0,0,0,0c3.1-1.7,7.2,1.5,6.7,5.8
			c23.8-9.9,61.9,2.3,72.4,7.6c1.4-1.5,3.1-1.8,4.6-1.6c2.9,0.4,4.1,4.1,2,6.3c-0.7,0.8-1.6,1.6-2.8,2.3
			C105.6,33.4,91.8,70.1,88.5,75.2z"/>
	</g>
	<path d="M86.4,57.3c-0.1-1.7-0.6-3.4-1.3-5c-0.6-1.6-1.5-3.1-2.3-4.5c-0.7-1.3,0.1-2.9,0.4-4.6c0.4-1.7,0.1-3.6-0.6-5.1
		c-0.3-0.8-0.8-1.6-1.3-2.2c-0.5-0.7-1.2-1.3-1.9-1.8c-0.7-0.5-1.4-1-2.1-1.4c-0.7-0.5-1.4-0.9-1.9-1.6c-1-1.3-1.6-2.9-2-4.5
		c-0.8-3.2-1.3-6.6-3-9.6c-0.9-1.5-2.1-2.8-3.6-3.7c-1.5-0.9-3.2-1.3-4.9-1.4c-2.4-0.1-4.7,0.3-6.9,1.2c-0.1,0-0.2,0-0.2,0l0,0.1
		c-0.9,0.4-1.8,0.8-2.6,1.3l0,0.1c0.8-0.4,1.7-0.7,2.5-1l-0.6,4.5l5.2,40.4c0,0-4.3,11.6,9.5,11.2c2,0,5.7-2.8,7.2-3.2l0,0.1
		c1.7-0.1,3.4-0.4,5-1c1.6-0.6,3.1-1.5,4.1-3C86.2,60.9,86.5,59,86.4,57.3z"/>
	<path class="st0" d="M112.4,57c0,0,2.1-5.3,4.4-7.9c2.3-2.6,1.2,0.9,0.5,2.9c2.4-2.9,7-8.6,7.9-8.6c0.9,0,1.3,2.4-0.7,5.8
		c2.1-2.9,4.4-5,4.6-4.2c0.2,0.8-0.3,2.2-2.3,5.4c2.1-2.4,3.1-2.3,3.7-1.9c0.5,0.4-0.9,3.4-3.8,7.8c3.2-3,3.9-2.9,4.3-2.2
		c0.5,0.7-2.3,6.2-11.5,11.3C117.7,66.4,112.4,57,112.4,57z"/>
	<path class="st0" d="M112.3,54.4c-9.6,5.2-19.2,19.2-21.8,20.9c-1.7-3.5-31.5-9-31.5-9l-3.2,1.6l0.1,0.4l-18.9-1.9
		c0,0-19.6,2-28.3,10.7c-4.8,4.8-9.2,28,1.3,34.1s56.2-9.7,56.2-9.7L65,95.1c6.5,2.6,18.5,5.7,30.7,0.2
		c18.1-8.1,25.3-32.2,25.3-32.2S119.3,50.9,112.3,54.4z"/>
	<path class="st1" d="M61.6,60.5c0,0-0.4,4.6,2.5,5.7c-1.2,4.8-6.4,4.7-11.1,2c-4.8-2.7-3.7,1.1-3.7,1.1l-4.1-12.7l3.7-1.2
		L61.6,60.5z"/>
	<g>
		<path class="st2" d="M71,42.3c0.4,5.4,0.4,10.2-3.2,14.7c-4.7,6-15.8,3.4-20.7-0.5c-4.7-3.7-8-8.9-9.9-14.4
			c-1.2-3.4-1.8-7-1.3-10.5c0.9-6.1,5.3-11.4,10.9-14.2c2.3-1.1,4.9-1.9,7.5-1.5c2.8,0.5,5.1,2.4,7,4.4C67,26.5,70.3,34.4,71,42.3z"
			/>
		<g>
			<path class="st3" d="M70.8,42.3c0.1,4,0.3,8.1-1.5,11.8c-1.8,3.6-4.7,5.7-8.6,6c-6.8,0.6-13-2.7-17.3-7.8
				c-5.3-6.3-9.2-16.1-6.1-24.1c2.9-7.5,13.3-15.6,21.1-10C65.9,23.8,69.3,33.5,70.8,42.3c0,0.4,0.5,0.3,0.5,0
				C71,33.4,66.4,23.6,59.4,18c-7.2-5.7-16.6-0.3-21,6.4c-5.4,8-2.6,18.4,2.5,25.9C45.1,56.6,51.5,61,59.4,61
				c10.2-0.1,12.8-10.1,11.8-18.6C71.1,42.1,70.8,42.1,70.8,42.3z"/>
		</g>
	</g>
	<g>
		<path class="st3" d="M59.2,52c0.7,0.2,1.4,0.3,2.1,0.3c0.7,0,1.3-0.1,1.9-0.2c0.6-0.1,1.2-0.4,1.8-0.7c0.5-0.3,1-0.8,1.4-1.4
			c0.1,0.8-0.3,1.6-0.8,2.1c-0.6,0.6-1.3,0.9-2,1.1C61.9,53.6,60.2,53.2,59.2,52z"/>
	</g>
	<path d="M43,37.4c9.5-6.2,22-8.5,27-5.2c0.2,0.2-0.7,2-0.6,2.2c0.9,1.7,2,5,1.7,7c-0.2,1.1-2.7,4.6-5.2,2.7c-3.1-2.3-4.3-1.7-6,0.4
		c-2.5,3.1-10.8,6.5-13.5,5.3C43.7,48.7,40.6,39,43,37.4z"/>
	<path d="M47.6,53.9c1.8-4.7,0.6-6.7-1-8.4c-2-2.2-3.3-5-3.5-8c-0.3-5.3,2.3-9.1,3.7-11.2c3.7-5.1,10-1.7,10-1.7l-0.2-12
		c-9.3-3-15.5-1.9-19.7,0.5c-0.5,0.2-1,0.5-1.4,0.7c-1.4,0.8-2.7,1.7-3.9,2.8c-1.2,1.1-2.2,2.3-3.1,3.6c-0.9,1.3-1.6,2.8-2.1,4.3
		c-0.6,1.5-0.7,3.1-1,4.6c-0.3,1.5-0.9,3-1.7,4.3c-0.8,1.3-1.8,2.5-2.8,3.8c-1,1.2-1.9,2.6-2.3,4.1c-0.5,1.5-0.6,3.3,0.1,4.8
		c0.3,0.8,0.8,1.5,1.3,2.1c0.4,0.6,0.9,1.3,1.1,1.9c0.6,1.3,0.5,2.8-0.3,4.1c0,0.1-0.1,0.1-0.1,0.2c-1.2,0.9-2.5,2-3.2,4.1
		c-0.3,0.5-0.6,0.9-0.8,1.5c-0.2,0.4-0.3,0.8-0.4,1.2c-0.1,0.4-0.1,0.8-0.2,1.2c-0.1,1.7,0.5,3.4,1.6,4.6c0.9,1.1,2.2,0.9,3.4,1.2
		c0.2,0.1,0.3,0.1,0.5,0.1c0.1,0,0.1,0,0.2,0.1c1.5,0.6,2.9,2.2,4.2,0.3l0-0.1c1.1-0.1,2.3-0.3,3.4-0.7c6.3-1.9,5.8,3,13.5,4.6
		c7.7,1.6,11.4-7.9,8.8-10.6C49.1,59.1,46.8,56.6,47.6,53.9z"/>
	<path class="st3" d="M57.3,25.1c0,0,5.5-5,8.6,1.3c2.8,5.7,4,2,3.9,1.3c-0.1-0.7-1.4-10.2-2.2-10.4c-0.8-0.2-6.9-1.7-8.5-1.7
		c-1.7,0-2.9-0.2-3.8,0c-0.8,0.3-4.1,1.4-3.7,3C51.8,20.4,57.3,25.1,57.3,25.1z"/>
	<path class="st0" d="M60,92.5c0,0,3.2-4.8,6-6.8c2.8-2,3.4-0.3,2.2,1.4c3-2.4,6.3-5.4,7.2-5.2c0.9,0.2,1.7,1.2-1,4.1
		c2.6-2.4,4.4-2.5,4.4-1.7c0.1,0.8-0.7,2.1-3.3,4.8c2.6-1.9,3.5-1.6,4-1.1c0.5,0.5-1.6,3.1-5.4,6.8c3.7-2.2,4.4-2,4.7-1.2
		c0.3,0.8-4.2,4.6-14.4,7.6C62.5,101.9,60,92.5,60,92.5z"/>
	<path class="st1" d="M27,90.6c2,1,25.5-0.5,25.5-0.5s6-1,7,2"/>
</g>
</svg>
