<?xml version="1.0" encoding="utf-8"?>
<!-- Generator: Adobe Illustrator 23.0.1, SVG Export Plug-In . SVG Version: 6.00 Build 0)  -->
<svg version="1.1" id="Слой_1" xmlns="http://www.w3.org/2000/svg" xmlns:xlink="http://www.w3.org/1999/xlink" x="0px" y="0px"
	 width="8.9px" height="16.4px" viewBox="0 0 8.9 16.4" style="enable-background:new 0 0 8.9 16.4;" xml:space="preserve">
<style type="text/css">
	.st0{fill:#FFFFFF;}
</style>
<g>
	<path class="st0" d="M8.6,0L6.4,0C4,0,2.5,1.6,2.5,4v1.9H0.3C0.2,5.9,0,6.1,0,6.2V9c0,0.2,0.2,0.3,0.3,0.3h2.1v6.8
		c0,0.2,0.2,0.3,0.3,0.3h2.8c0.2,0,0.3-0.2,0.3-0.3V9.3h2.5c0.2,0,0.3-0.2,0.3-0.3l0-2.7c0-0.1,0-0.2-0.1-0.2
		C8.6,5.9,8.5,5.9,8.5,5.9H5.9V4.3c0-0.8,0.2-1.1,1.2-1.1l1.4,0c0.2,0,0.3-0.2,0.3-0.3V0.3C8.9,0.2,8.7,0,8.6,0z"/>
</g>
</svg>
