<?xml version="1.0" encoding="utf-8"?>
<!-- Generator: Adobe Illustrator 23.0.1, SVG Export Plug-In . SVG Version: 6.00 Build 0)  -->
<svg version="1.1" id="Слой_1" xmlns="http://www.w3.org/2000/svg" xmlns:xlink="http://www.w3.org/1999/xlink" x="0px" y="0px"
	 viewBox="0 0 522 522" style="enable-background:new 0 0 522 522;" xml:space="preserve">
<path d="M302,522V330h78.1l8.3-50H302v-65c0-19.3,15.7-35,35-35h55v-50h-70c-38.6,0-70,31.4-70,70v80h-60v50h60v192H80
	c-44.1,0-80-35.9-80-80V80C0,35.9,35.9,0,80,0h362c44.1,0,80,35.9,80,80v362c0,44.1-35.9,80-80,80H302z M442,482
	c22.1,0,40-17.9,40-40V80c0-22.1-17.9-40-40-40H80c-22.1,0-40,17.9-40,40v362c0,22.1,17.9,40,40,40h132V370h-60V240h60v-40
	c0-60.7,49.3-110,110-110h110v130h-90v20h93.6l-21.7,130H342v112H442z"/>
</svg>
